<svg width="44" height="44" viewBox="0 0 44 44" fill="none" xmlns="http://www.w3.org/2000/svg">
<rect width="44" height="44" rx="10" fill="url(#paint0_linear_1_396)"/>
<path d="M28.9 18C28.9667 17.676 29 17.3427 29 17C28.9993 16.3014 28.8522 15.6108 28.5683 14.9725C28.2843 14.3343 27.8697 13.7626 27.3513 13.2944C26.8329 12.8262 26.2221 12.4718 25.5583 12.2541C24.8946 12.0364 24.1925 11.9601 23.4975 12.0303C22.8025 12.1006 22.1299 12.3156 21.5231 12.6617C20.9162 13.0077 20.3887 13.4771 19.9743 14.0396C19.56 14.602 19.2682 15.245 19.1176 15.9272C18.967 16.6093 18.961 17.3154 19.1 18M26 24C26 24.3978 26.158 24.7794 26.4393 25.0607C26.7206 25.342 27.1022 25.5 27.5 25.5C27.8978 25.5 28.2794 25.342 28.5607 25.0607C28.842 24.7794 29 24.3978 29 24C29 23.6022 28.842 23.2207 28.5607 22.9394C28.2794 22.658 27.8978 22.5 27.5 22.5C27.1022 22.5 26.7206 22.658 26.4393 22.9394C26.158 23.2207 26 23.6022 26 24Z" stroke="black" stroke-width="1.5" stroke-linecap="round" stroke-linejoin="round"/>
<path d="M17 17.993H26C28.828 17.993 30.243 17.993 31.121 18.873C32 19.751 32 21.166 32 23.996V25.997C32 28.827 32 30.242 31.121 31.121C30.243 32 28.828 32 26 32H20C16.229 32 14.343 32 13.172 30.828C12.001 29.656 12 27.769 12 23.996V21.996C12 18.222 12 16.336 13.172 15.163C14.115 14.22 15.52 14.036 18 14H20" stroke="black" stroke-width="1.5" stroke-linecap="round" stroke-linejoin="round"/>
<defs>
<linearGradient id="paint0_linear_1_396" x1="0.858355" y1="5.91398" x2="15.4817" y2="6.09968" gradientUnits="userSpaceOnUse">
<stop stop-color="#86E591"/>
<stop offset="1" stop-color="#B9F65B"/>
</linearGradient>
</defs>
</svg>
