<svg width="44" height="44" viewBox="0 0 44 44" fill="none" xmlns="http://www.w3.org/2000/svg">
<rect width="44" height="44" rx="10" fill="url(#paint0_linear_1_397)"/>
<g clip-path="url(#clip0_1_397)">
<path d="M28 20C28 19.7348 27.8946 19.4804 27.7071 19.2929C27.5196 19.1054 27.2652 19 27 19H15.41L17.71 16.71C17.8983 16.5217 18.0041 16.2663 18.0041 16C18.0041 15.7337 17.8983 15.4783 17.71 15.29C17.5217 15.1017 17.2663 14.9959 17 14.9959C16.7337 14.9959 16.4783 15.1017 16.29 15.29L12.29 19.29C12.1512 19.4306 12.0572 19.6092 12.0199 19.8032C11.9825 19.9972 12.0034 20.1979 12.08 20.38C12.155 20.5626 12.2824 20.7189 12.4461 20.8293C12.6099 20.9396 12.8026 20.999 13 21H27C27.2652 21 27.5196 20.8946 27.7071 20.7071C27.8946 20.5196 28 20.2652 28 20ZM31.92 23.62C31.845 23.4374 31.7176 23.2811 31.5539 23.1707C31.3901 23.0604 31.1974 23.001 31 23H17C16.7348 23 16.4804 23.1054 16.2929 23.2929C16.1054 23.4804 16 23.7348 16 24C16 24.2652 16.1054 24.5196 16.2929 24.7071C16.4804 24.8946 16.7348 25 17 25H28.59L26.29 27.29C26.1963 27.383 26.1219 27.4936 26.0711 27.6154C26.0203 27.7373 25.9942 27.868 25.9942 28C25.9942 28.132 26.0203 28.2627 26.0711 28.3846C26.1219 28.5064 26.1963 28.617 26.29 28.71C26.383 28.8037 26.4936 28.8781 26.6154 28.9289C26.7373 28.9797 26.868 29.0058 27 29.0058C27.132 29.0058 27.2627 28.9797 27.3846 28.9289C27.5064 28.8781 27.617 28.8037 27.71 28.71L31.71 24.71C31.8488 24.5694 31.9428 24.3908 31.9801 24.1968C32.0175 24.0028 31.9966 23.8021 31.92 23.62Z" fill="black"/>
</g>
<defs>
<linearGradient id="paint0_linear_1_397" x1="0.858355" y1="5.91398" x2="15.4817" y2="6.09968" gradientUnits="userSpaceOnUse">
<stop stop-color="#86E591"/>
<stop offset="1" stop-color="#B9F65B"/>
</linearGradient>
<clipPath id="clip0_1_397">
<rect width="24" height="24" fill="white" transform="translate(10 10)"/>
</clipPath>
</defs>
</svg>
