<svg width="56" height="55" viewBox="0 0 56 55" fill="none" xmlns="http://www.w3.org/2000/svg">
<path d="M47.3334 34.6087L33.836 11.1859C32.4175 8.78461 30.1872 7.56689 27.8885 7.56689C26.6521 7.61026 25.4487 7.97764 24.3989 8.63226C23.3492 9.28688 22.4897 10.2058 21.9067 11.2969C21.7871 11.5362 8.45204 34.6087 8.45204 34.6087C8.01551 35.3662 7.73244 36.2022 7.61901 37.0691C7.50559 37.936 7.56401 38.8167 7.79096 39.661C8.0179 40.5053 8.40892 41.2966 8.94168 41.9898C9.47445 42.683 10.1385 43.2644 10.896 43.701C11.6535 44.1375 12.4895 44.4206 13.3564 44.534C14.2233 44.6474 15.104 44.589 15.9483 44.362C16.7926 44.1351 17.5839 43.7441 18.2771 43.2113C18.9703 42.6786 19.5517 42.0145 19.9883 41.257L27.8927 27.5075L35.8186 41.2356C36.2335 42.0295 36.8046 42.7313 37.4976 43.2989C38.1906 43.8665 38.9911 44.2882 39.8511 44.5388C40.7111 44.7893 41.6129 44.8634 42.5022 44.7567C43.3916 44.6501 44.2503 44.3648 45.0266 43.918C45.803 43.4711 46.4811 42.8721 47.0201 42.1567C47.5592 41.4413 47.9481 40.6243 48.1636 39.7548C48.379 38.8854 48.4165 37.9813 48.2739 37.097C48.1312 36.2127 47.8114 35.3663 47.3334 34.6087ZM22.4579 12.7582C22.8852 11.3269 24.795 8.58379 27.8927 8.58379C31.1485 8.58379 32.9772 11.5747 33.3276 12.7582C33.5296 13.4712 33.5838 14.2181 33.4868 14.9528C33.3899 15.6875 33.1437 16.3947 32.7636 17.0309L27.8927 25.4694L23.0219 17.0309C22.6398 16.3955 22.3926 15.6882 22.2956 14.9532C22.1986 14.2181 22.2538 13.471 22.4579 12.7582Z" fill="#191D13" fill-opacity="0.6"/>
</svg>
