<svg width="55" height="55" viewBox="0 0 55 55" fill="none" xmlns="http://www.w3.org/2000/svg">
<path d="M41.1129 29.644C40.4763 29.3406 39.7115 28.9945 38.9552 28.6826C38.4596 29.4688 36.9983 31.8957 36.7035 32.7502C36.5503 33.1967 36.478 33.6669 36.4899 34.1388C36.4924 34.3378 36.4767 34.5366 36.4429 34.7327C36.3714 35.1103 36.1972 35.4608 35.9394 35.7457C35.6816 36.0307 35.3502 36.239 34.9816 36.3478C34.6441 36.4504 33.9562 36.57 33.1657 36.711C32.3327 36.8284 31.5089 37.004 30.7004 37.2365C30.4385 37.6347 30.1036 37.9798 29.7134 38.2534C29.559 38.3629 29.3871 38.4453 29.205 38.497C29.205 39.1721 28.9529 40.1206 28.1325 40.2958C27.9325 40.3292 27.7275 40.3162 27.5334 40.2577C27.3393 40.1991 27.1612 40.0967 27.0131 39.9582C26.9381 40.2082 26.8088 40.4385 26.6345 40.6328C26.4602 40.827 26.2451 40.9804 26.0047 41.0819C25.8121 41.1383 25.6103 41.156 25.4108 41.134C25.2114 41.112 25.0182 41.0507 24.8426 40.9538C24.6161 41.4836 24.1675 42.2014 23.3984 42.2356C23.1773 42.2248 22.9616 42.1638 22.7677 42.0572C22.5737 41.9505 22.4066 41.8011 22.279 41.6203C22.0607 41.9768 21.7577 42.2737 21.3969 42.4847C21.0361 42.6957 20.6287 42.8141 20.211 42.8295H20.0614C19.692 42.822 19.3397 42.6727 19.0772 42.4127C18.8148 42.1526 18.6623 41.8016 18.6514 41.4323C18.5608 41.483 18.4628 41.519 18.3609 41.5391C18.1624 41.558 17.9623 41.5256 17.7798 41.4451C17.8232 41.6407 17.8232 41.8434 17.7798 42.039C17.5576 42.7184 15.8058 42.6287 14.6821 42.4022C14.3086 42.3403 13.953 42.1978 13.6402 41.9846C13.3273 41.7713 13.0647 41.4925 12.8705 41.1674C12.3407 41.6288 12.11 41.6288 12.016 41.6288C11.8365 41.6288 11.5417 41.6288 10.8367 40.2787C10.4308 40.3086 9.70018 40.3513 9.42245 40.3342C9.24894 40.307 9.08709 40.2299 8.95661 40.1123C8.82613 39.9947 8.73265 39.8417 8.68755 39.672C8.44119 39.6885 8.19373 39.6698 7.95265 39.6164C7.86954 39.5984 7.78912 39.5696 7.71338 39.531C8.28165 40.9281 8.99518 42.227 9.29427 42.9021C9.63802 43.6342 10.1335 44.2848 10.7479 44.8107C11.3622 45.3367 12.0814 45.726 12.8577 45.9528C15.1692 46.5681 21.4031 46.7091 23.5394 46.6407C24.7183 46.6044 25.879 46.3403 26.9575 45.8631C27.817 45.5449 28.7178 45.352 29.6322 45.2905C30.7645 45.2051 33.7853 45.2094 34.4689 45.1837C36.0114 45.1239 37.5794 42.7526 38.6049 40.8811C39.3108 39.7464 39.6329 38.4146 39.5235 37.0827C39.4551 36.0017 39.3697 32.3443 39.7371 31.6009C40.1272 30.903 40.5882 30.2472 41.1129 29.644Z" fill="#191D13" fill-opacity="0.6"/>
<path d="M7.96133 36.1816C7.83531 36.9038 7.77666 37.6362 7.78615 38.3693C7.80751 38.4633 7.89296 38.7965 8.12796 38.8521C8.26849 38.8809 8.41182 38.8938 8.55523 38.8905C8.44494 38.0604 8.42774 37.2206 8.50396 36.3867C8.29887 36.3184 8.12796 36.2543 7.96133 36.1816Z" fill="#191D13" fill-opacity="0.6"/>
<path d="M6.93168 35.6123C6.87891 36.3224 6.94828 37.0363 7.13677 37.723C7.1698 37.1077 7.24403 36.4954 7.35895 35.89L6.93168 35.6123Z" fill="#191D13" fill-opacity="0.6"/>
<path d="M18.9337 35.7031C18.5257 35.7047 18.1296 35.8397 17.8057 36.0877C17.3528 37.6173 17.9595 40.0954 18.0834 40.5783C18.4707 40.1254 18.8194 39.6409 19.1259 39.1298C19.538 38.2451 19.8476 37.3161 20.0488 36.3611L19.9506 36.2757C19.6893 35.9714 19.3293 35.7687 18.9337 35.7031Z" fill="#191D13" fill-opacity="0.6"/>
<path d="M21.8475 38.578C21.9135 38.5108 21.9594 38.4264 21.9799 38.3345L22.3688 36.352C22.2406 35.882 21.0528 36.0742 20.9118 36.1469C20.7493 36.9605 20.5338 37.7626 20.2666 38.5481C20.7888 38.6398 21.3222 38.6499 21.8475 38.578Z" fill="#191D13" fill-opacity="0.6"/>
<path d="M19.7795 39.5906C19.6197 39.9541 19.5049 40.3358 19.4377 40.7271C19.4035 41.5518 19.4975 41.9619 20.1299 42.0089C21.8646 42.1157 22.0013 39.3684 22.0013 39.3684C21.7701 39.421 21.5334 39.4454 21.2963 39.441C20.8436 39.4309 20.3923 39.3867 19.9462 39.3086C19.8965 39.4059 19.8409 39.5001 19.7795 39.5906Z" fill="#191D13" fill-opacity="0.6"/>
<path d="M17.0451 35.4639C16.417 35.7117 13.4731 40.621 13.4731 40.621C13.5995 40.8848 13.7887 41.1136 14.0241 41.2871C14.2595 41.4607 14.5339 41.5738 14.8233 41.6165C15.5351 41.7933 16.2761 41.8181 16.9981 41.6892C17.5023 39.8775 16.4897 38.5103 17.0451 35.4639Z" fill="#191D13" fill-opacity="0.6"/>
<path d="M11.1445 37.25C11.0916 38.0902 11.1929 38.933 11.4436 39.7367C11.5983 40.1142 11.8054 40.4681 12.0589 40.7878C12.9433 40.3178 14.3832 37.7713 14.3832 37.7713C13.3259 37.7661 12.2751 37.6064 11.2641 37.297L11.1445 37.25Z" fill="#191D13" fill-opacity="0.6"/>
<path d="M10.0847 36.9155L9.23021 36.6592C9.18956 37.4999 9.22962 38.3427 9.34984 39.1758C9.37224 39.309 9.42011 39.4367 9.49084 39.5518C9.68738 39.5518 10.136 39.5518 10.5505 39.5133C10.346 38.6926 10.2824 37.843 10.3625 37.001L10.0847 36.9155Z" fill="#191D13" fill-opacity="0.6"/>
<path d="M7.26514 34.8744C7.56445 35.0712 7.88211 35.2386 8.21367 35.3743C8.21367 35.3743 8.98703 34.1352 9.41002 33.4345C9.36712 33.3769 9.31685 33.3252 9.26048 33.2807C8.88445 33.0601 8.4526 32.9533 8.01713 32.973C7.66332 33.561 7.40922 34.2034 7.26514 34.8744Z" fill="#191D13" fill-opacity="0.6"/>
<path d="M10.132 33.7537C9.78166 34.3391 9.13221 35.3816 8.93994 35.6892C9.22621 35.7918 9.51675 35.8858 9.79448 35.9755C10.17 35.1542 10.6559 34.388 11.2386 33.6982C11.1977 33.6617 11.1497 33.634 11.0976 33.617C10.7694 33.5814 10.4375 33.6284 10.132 33.7537Z" fill="#191D13" fill-opacity="0.6"/>
<path d="M12.9135 34.0527C12.7352 33.9977 12.5462 33.9872 12.3629 34.0222C12.1797 34.0572 12.0078 34.1366 11.8624 34.2535C11.3385 34.8419 10.9064 35.506 10.5806 36.2232C10.9395 36.33 11.7726 36.6163 11.8624 36.6505L13.3664 34.4372C13.4433 34.3304 12.9946 34.0783 12.9135 34.0527Z" fill="#191D13" fill-opacity="0.6"/>
<path d="M14.7121 34.2627C14.3532 34.4208 12.7168 36.8263 12.7168 36.8263C13.4432 36.9264 14.1754 36.9778 14.9087 36.9801L15.7632 35.6983C15.9384 35.4505 15.6778 34.6857 15.5624 34.5831C15.3124 34.4029 15.019 34.2923 14.7121 34.2627Z" fill="#191D13" fill-opacity="0.6"/>
<path d="M27.1758 35.8223L27.2057 37.2493C27.5817 37.181 27.9363 37.1254 28.2397 37.0955C28.291 36.5743 28.3337 36.0188 28.3294 35.7496C27.9434 35.7363 27.557 35.7606 27.1758 35.8223Z" fill="#191D13" fill-opacity="0.6"/>
<path d="M33.0419 35.9206C33.781 35.7924 34.4775 35.6685 34.7509 35.5788C34.982 35.5105 35.1891 35.3785 35.3486 35.1979C35.508 35.0172 35.6134 34.7953 35.6525 34.5576C35.6753 34.4164 35.6853 34.2734 35.6824 34.1303C35.6835 33.564 35.7863 33.0025 35.9857 32.4725C36.3019 31.5539 37.6692 29.2851 38.2374 28.3665C37.5807 28.0647 36.8795 27.8714 36.1609 27.7939C35.27 27.89 34.4383 28.2863 33.8024 28.9177C33.7764 28.9801 33.755 29.0444 33.7383 29.1099C33.5959 29.6364 33.3275 30.1203 32.9564 30.5199C32.6582 30.8183 32.332 31.0873 31.9822 31.3232C31.2687 31.8359 30.8286 32.1777 30.8286 32.8571C30.8286 33.1861 30.8542 33.8526 30.8756 34.5405C30.9055 35.395 30.9226 35.9548 30.9269 36.3265C31.3584 36.2239 32.0378 36.1 33.0419 35.9206Z" fill="#191D13" fill-opacity="0.6"/>
<path d="M22.6421 40.7186C22.6805 40.7699 22.8685 41.3894 23.3898 41.4108C24.5648 41.5176 24.2443 38.6592 24.2443 38.6592C24.0179 38.6592 23.471 38.7147 22.8856 38.7617L22.6421 40.7186Z" fill="#191D13" fill-opacity="0.6"/>
<path d="M15.4767 23.5425C15.3272 23.6194 15.105 24.0851 14.8914 25.8839C14.7959 26.5666 14.5971 27.2308 14.3018 27.8537C14.1946 28.0831 14.1047 28.3202 14.0326 28.5629C13.9536 28.8461 13.9797 29.1484 14.1061 29.4138C14.2326 29.6792 14.4508 29.89 14.7205 30.0071C14.9555 30.1258 15.2249 30.1576 15.481 30.0968C14.9768 29.8447 15.0794 29.3106 15.2076 28.6954C15.2418 28.5245 15.2845 28.3236 15.3272 28.0887C15.3805 27.7125 15.5083 27.3508 15.7032 27.0248C15.81 26.8368 15.8527 26.7598 15.7929 26.3283C15.7258 25.4537 15.9448 24.581 16.4167 23.8416C16.468 23.7391 16.5193 23.6451 16.5663 23.5468C16.6056 23.4739 16.6561 23.4076 16.7158 23.3502C16.293 23.3001 15.8645 23.3665 15.4767 23.5425Z" fill="#191D13" fill-opacity="0.6"/>
<path d="M48.8381 16.2065C48.8368 15.9026 48.7674 15.6029 48.6351 15.3293C48.5027 15.0557 48.3107 14.8153 48.0732 14.6257C47.6716 14.3308 45.0525 12.092 44.5953 11.2887C43.4972 9.37025 41.1045 8.29781 39.0408 8.07136C36.9064 7.95497 34.7657 8.09845 32.666 8.49863C31.489 8.9566 30.3599 9.52903 29.2948 10.2077L29.188 10.2632C30.7432 10.2632 32.243 10.447 33.3111 11.0665C34.6997 11.8698 36.0328 13.1259 36.4003 16.8517C36.5022 18.212 36.488 19.5785 36.3576 20.9364C36.2507 22.5344 36.1653 23.7991 36.6908 24.4485C36.8788 24.6793 37.5454 24.91 38.3059 25.1749C40.1864 25.7615 41.9639 26.638 43.5741 27.7727C43.8219 27.6872 44.0868 27.6146 44.4286 27.5334C45.4541 27.2728 46.8214 25.1749 47.2144 23.9016C47.3768 23.3547 47.5221 21.7653 47.7058 21.0945C47.9322 20.2912 48.3894 19.1504 48.4962 18.7958C48.7218 17.9512 48.8367 17.0808 48.8381 16.2065Z" fill="#191D13" fill-opacity="0.6"/>
<path d="M38.045 25.94C37.0537 25.5982 36.4 25.3717 36.071 24.9615C35.3447 24.0685 35.4387 22.6671 35.5583 20.8897C35.6805 19.5726 35.6905 18.2476 35.5882 16.9289C35.2763 13.75 34.3064 12.5622 32.8964 11.7589C31.4138 10.9044 28.8715 10.9856 26.6455 11.2078C25.8734 11.4567 25.0771 11.6228 24.2699 11.7034C23.3854 11.7034 22.0053 11.0411 21.5097 10.725C21.0342 10.3791 20.4792 10.1587 19.8959 10.084C19.3127 10.0093 18.7201 10.0828 18.1727 10.2977C17.6087 10.49 16.8525 10.8318 16.6047 11.3231C16.0624 12.5873 15.6487 13.9028 15.3699 15.2497C15.3067 15.9363 15.1633 16.6132 14.9426 17.2664C14.7589 17.7663 13.9855 20.1548 13.7719 20.5308C13.5582 20.9068 12.9131 21.7485 12.1483 22.9149C11.8417 23.4085 11.6721 23.9748 11.6569 24.5556C11.7039 25.0726 12.5969 26.0724 12.4815 27.4525C12.3961 28.4181 11.2425 29.1616 9.95637 30.4434C9.41236 30.982 8.92289 31.5731 8.49512 32.208C8.95412 32.2587 9.39397 32.4199 9.77692 32.678C9.88192 32.7651 9.97655 32.864 10.0589 32.9728C10.4794 32.8208 10.9346 32.7927 11.3706 32.8916C11.6429 32.9747 11.8734 33.1579 12.0158 33.4044C12.3341 33.3215 12.6611 33.277 12.99 33.2719C13.3644 33.3589 13.6986 33.5697 13.9385 33.8701C14.1145 33.7024 14.3243 33.5742 14.5538 33.4941C14.9255 33.4086 15.669 33.7504 15.9723 33.9213C16.0663 33.9641 16.3099 34.088 16.5278 34.9083C16.6366 34.7836 16.7767 34.6902 16.9337 34.6376C17.0906 34.5851 17.2588 34.5753 17.4208 34.6092C17.5062 34.6434 17.7241 34.7246 17.8224 35.1946C18.1879 35.0078 18.5958 34.9194 19.0059 34.9382C19.5212 34.9924 20.0022 35.2217 20.3689 35.5877C20.8445 35.3269 21.3905 35.2237 21.9284 35.2929C22.2837 35.3292 22.6178 35.4791 22.8812 35.7201C23.1246 35.4542 23.4581 35.2882 23.817 35.2544C23.9704 35.24 24.1248 35.2673 24.264 35.3335C24.4031 35.3997 24.5218 35.5023 24.6074 35.6304C24.689 35.512 24.7836 35.4031 24.8894 35.3057C25.1329 35.0878 25.5431 35.0921 26.0687 35.1049C26.2878 35.1184 26.5075 35.1184 26.7267 35.1049C28.2435 34.8955 28.9271 34.8912 29.0937 35.3954C29.1963 35.6988 28.8032 37.0703 29.1279 37.724C29.5378 37.4822 29.8791 37.1395 30.1192 36.7285C30.1192 36.5875 30.0935 35.4467 30.0636 34.5922C30.0636 33.8914 30.0209 33.2164 30.0209 32.8831C30.0209 31.7679 30.8113 31.1996 31.5078 30.6997C31.8146 30.4943 32.1008 30.2597 32.3623 29.999C32.6511 29.688 32.8594 29.311 32.969 28.9009C33.003 28.7705 33.0517 28.6443 33.1143 28.525C33.8845 27.6625 34.9536 27.1249 36.1052 27.021C37.2759 26.9227 41.1128 28.73 41.7323 29.0377C41.8519 28.9223 41.9673 28.8112 42.0827 28.7172C42.305 28.5244 42.5406 28.3473 42.7877 28.1874C41.3215 27.2168 39.7246 26.4601 38.045 25.94ZM17.7754 29.7384L17.6216 29.8367C16.4979 30.5459 15.874 30.939 15.2203 30.939C14.9337 30.9371 14.6503 30.8775 14.3871 30.7638C13.943 30.5706 13.5826 30.225 13.3711 29.7893C13.1595 29.3537 13.1107 28.8567 13.2335 28.3882C13.3154 28.0958 13.4197 27.8101 13.5454 27.5337C13.8104 26.9817 13.9891 26.3923 14.0752 25.7862C14.2718 24.0771 14.5025 23.1243 15.0964 22.8252C15.7288 22.5047 16.8397 22.2826 18.5146 23.026C20.0485 23.7011 20.7235 24.3078 20.8389 25.1068C20.9543 25.9058 20.3433 28.1148 17.7754 29.7384ZM22.8513 14.5789L22.8086 15.0062C22.6078 16.8733 22.3813 19.1934 21.3345 19.8856C20.2877 20.5778 18.7111 20.7401 17.7797 20.7401H17.613C16.297 20.7017 15.6091 19.8044 15.6091 18.937C15.6091 18.3773 15.9723 17.8048 16.3953 17.1425C16.664 16.7309 16.9066 16.3028 17.1217 15.8607C17.305 15.4603 17.4565 15.046 17.5746 14.6216C17.7139 14.0702 17.9388 13.5439 18.2411 13.0621C18.7325 12.2631 20.0997 11.6393 21.1166 12.0238L21.3132 12.0965C21.9968 12.3358 23.0607 12.716 22.8513 14.5789ZM33.1058 18.0312C32.717 19.0951 31.5163 21.4494 30.2901 22.0305C29.6695 22.2959 28.9994 22.4255 28.3246 22.4107C27.1281 22.4259 25.9517 22.1014 24.9321 21.475C24.1801 20.9538 24.1801 19.6976 24.1844 18.4841V18.0569C24.2407 17.3114 24.4078 16.5784 24.68 15.8821C24.7233 15.7862 24.8004 15.7097 24.8966 15.6671C24.9928 15.6245 25.1013 15.6189 25.2013 15.6514C25.2504 15.6707 25.2952 15.6995 25.3332 15.7362C25.3712 15.7728 25.4015 15.8166 25.4226 15.8651C25.4436 15.9135 25.4549 15.9655 25.4558 16.0183C25.4567 16.0711 25.4471 16.1235 25.4278 16.1726C25.1957 16.7755 25.0518 17.4087 25.0005 18.0526V18.4799C25.0005 19.3344 25.0005 20.5265 25.4278 20.8085C25.746 21.0154 26.091 21.1779 26.4532 21.2913C26.2292 20.2013 26.153 19.0861 26.2267 17.9757C26.3336 17.1212 27.9615 14.2926 28.9484 13.2757C28.2174 13.3993 27.5254 13.6919 26.9275 14.1303C26.8426 14.1869 26.7394 14.2091 26.6387 14.1924C26.538 14.1757 26.4475 14.1213 26.3855 14.0403C26.3235 13.9592 26.2947 13.8576 26.3049 13.7561C26.3151 13.6546 26.3635 13.5608 26.4404 13.4937C26.9702 13.092 28.1495 12.4554 29.0766 12.4554C29.6974 12.4702 30.3065 12.6274 30.8569 12.9148C31.4073 13.2022 31.8843 13.6122 32.2512 14.1132C33.2297 15.4505 33.5501 16.8392 33.11 18.0312H33.1058Z" fill="#191D13" fill-opacity="0.6"/>
<path d="M18.8953 13.4722C18.6307 13.8924 18.4359 14.3527 18.3185 14.8352C18.1908 15.2995 18.025 15.7525 17.8228 16.1896C17.5929 16.656 17.3332 17.1069 17.0452 17.5398C16.7297 17.9427 16.5052 18.4091 16.3872 18.9071C16.3872 19.4753 16.8914 19.8898 17.6135 19.9069H17.7801C17.6674 19.2484 17.7308 18.5718 17.9638 17.9457C18.1986 17.3098 18.5115 16.7056 18.8953 16.1469C19.2263 15.6432 19.5122 15.1114 19.7498 14.5575C19.8923 14.1321 19.9869 13.6921 20.0318 13.2458C20.0574 13.0449 20.0788 12.8826 20.1044 12.7373C19.624 12.8233 19.1928 13.0853 18.8953 13.4722Z" fill="#191D13" fill-opacity="0.6"/>
<path d="M24.2658 36.408C24.2658 36.2413 23.9582 36.0576 23.8385 36.0491C23.7189 36.0405 23.1891 36.267 23.1506 36.4763L22.9712 37.9504L24.253 37.8564L24.2658 36.408Z" fill="#191D13" fill-opacity="0.6"/>
<path d="M25.0264 40.1124C25.1266 40.2062 25.2486 40.2737 25.3813 40.3088C25.514 40.3438 25.6534 40.3453 25.7869 40.3132C26.0945 40.2235 26.3509 39.5399 26.4364 39.087V38.2324C25.9834 38.3264 25.5476 38.4247 25.1973 38.5016L25.0605 38.5315L25.0264 40.1124Z" fill="#191D13" fill-opacity="0.6"/>
<path d="M26.3768 35.8907C26.3768 35.801 25.6931 35.7711 25.3684 35.9164C25.2869 35.9571 25.2169 36.0175 25.1647 36.0921C25.1124 36.1667 25.0797 36.2532 25.0693 36.3436V37.681L26.4238 37.3905L26.3768 35.8907Z" fill="#191D13" fill-opacity="0.6"/>
<path d="M28.3206 37.8906C28.0044 37.9248 27.6199 37.9846 27.2183 38.0615L27.2396 39.0058C27.3764 39.2152 27.6669 39.5741 27.9831 39.51C28.3932 39.4245 28.7222 38.3521 28.3206 37.8906Z" fill="#191D13" fill-opacity="0.6"/>
</svg>
