<svg width="56" height="55" viewBox="0 0 56 55" fill="none" xmlns="http://www.w3.org/2000/svg">
<path d="M20.2057 35.7622L6.57153 43.6325C6.65612 43.6651 6.74581 43.6824 6.83644 43.6838H49.5419C49.6276 43.6828 49.7127 43.6684 49.794 43.641L36.1299 35.7622H20.2057Z" fill="#191D13" fill-opacity="0.6"/>
<path d="M27.6358 5.30225C27.5728 5.35997 27.5182 5.42611 27.4734 5.49879L6.13135 42.466C6.09187 42.5354 6.06307 42.6103 6.0459 42.6882L19.7185 34.8094L27.6358 21.0556V5.30225Z" fill="#191D13" fill-opacity="0.6"/>
<path d="M50.2213 42.466L28.8793 5.49879C28.8373 5.42532 28.784 5.35898 28.7212 5.30225V21.0556L36.6684 34.8265L50.3111 42.7267C50.2977 42.635 50.2672 42.5466 50.2213 42.466Z" fill="#191D13" fill-opacity="0.6"/>
</svg>
