<svg width="55" height="55" viewBox="0 0 55 55" fill="none" xmlns="http://www.w3.org/2000/svg">
<path d="M9.82715 27.5156H44.8631C45.4762 27.5156 46.0641 27.272 46.4976 26.8385C46.9311 26.405 47.1747 25.8171 47.1747 25.204C47.1747 24.591 46.9311 24.003 46.4976 23.5695C46.0641 23.136 45.4762 22.8925 44.8631 22.8925H37.5996L33.7029 11.7835C33.2409 10.4683 32.3819 9.32904 31.2446 8.52306C30.1072 7.71707 28.7477 7.28418 27.3537 7.28418C25.9597 7.28418 24.6001 7.71707 23.4628 8.52306C22.3254 9.32904 21.4664 10.4683 21.0045 11.7835L17.0907 22.8925H9.82715C9.21409 22.8925 8.62615 23.136 8.19265 23.5695C7.75916 24.003 7.51563 24.591 7.51562 25.204C7.51563 25.8171 7.75916 26.405 8.19265 26.8385C8.62615 27.272 9.21409 27.5156 9.82715 27.5156ZM25.3541 13.2961C25.4991 12.8838 25.7686 12.5267 26.1252 12.2741C26.4818 12.0215 26.9081 11.8859 27.3451 11.8859C27.7822 11.8859 28.2084 12.0215 28.5651 12.2741C28.9217 12.5267 29.1912 12.8838 29.3362 13.2961L32.6988 22.8925H21.9915L25.3541 13.2961Z" fill="#191D13" fill-opacity="0.6"/>
<path d="M44.8633 31.7029H9.82729C9.23964 31.7387 8.68779 31.9973 8.28434 32.4261C7.88089 32.8548 7.65625 33.4214 7.65625 34.0101C7.65625 34.5989 7.88089 35.1654 8.28434 35.5942C8.68779 36.0229 9.23964 36.2816 9.82729 36.3174H12.3909L9.57948 44.35C9.38377 44.9267 9.42356 45.5574 9.69021 46.1049C9.95687 46.6525 10.4288 47.0726 11.0035 47.2742C11.5783 47.4757 12.2093 47.4422 12.7595 47.1811C13.3097 46.92 13.7346 46.4523 13.9419 45.8796L17.2874 36.3174H37.4032L40.7487 45.8711C40.9076 46.3224 41.2024 46.7135 41.5926 46.9905C41.9828 47.2674 42.4493 47.4167 42.9278 47.4178C43.1884 47.4179 43.4471 47.3731 43.6926 47.2854C44.2709 47.0829 44.7452 46.6591 45.0112 46.1071C45.2772 45.555 45.3131 44.92 45.1111 44.3415L42.2997 36.3174H44.8633C45.4763 36.3174 46.0643 36.0738 46.4978 35.6404C46.9313 35.2069 47.1748 34.6189 47.1748 34.0059C47.1748 33.3928 46.9313 32.8049 46.4978 32.3714C46.0643 31.9379 45.4763 31.6943 44.8633 31.6943V31.7029Z" fill="#191D13" fill-opacity="0.6"/>
</svg>
