<svg width="56" height="55" viewBox="0 0 56 55" fill="none" xmlns="http://www.w3.org/2000/svg">
<path d="M47.3337 34.6092L33.8363 11.1863C32.4178 8.7851 30.1874 7.56738 27.8887 7.56738C26.6523 7.61075 25.449 7.97813 24.3992 8.63275C23.3494 9.28737 22.49 10.2063 21.907 11.2974C21.7873 11.5367 8.45228 34.6092 8.45228 34.6092C8.01575 35.3667 7.73269 36.2027 7.61926 37.0696C7.50583 37.9365 7.56426 38.8172 7.7912 39.6615C8.01814 40.5058 8.40916 41.2971 8.94193 41.9903C9.47469 42.6835 10.1388 43.2649 10.8963 43.7015C11.6537 44.138 12.4898 44.4211 13.3567 44.5345C14.2235 44.6479 15.1043 44.5895 15.9486 44.3625C16.7928 44.1356 17.5842 43.7446 18.2774 43.2118C18.9705 42.679 19.552 42.015 19.9885 41.2575L27.893 27.508L35.8188 41.2361C36.2338 42.03 36.8049 42.7318 37.4978 43.2994C38.1908 43.867 38.9913 44.2887 39.8513 44.5393C40.7113 44.7898 41.6131 44.8639 42.5025 44.7572C43.3919 44.6506 44.2505 44.3652 45.0269 43.9184C45.8033 43.4716 46.4813 42.8725 47.0204 42.1571C47.5594 41.4417 47.9484 40.6248 48.1638 39.7553C48.3793 38.8859 48.4168 37.9818 48.2741 37.0975C48.1315 36.2132 47.8116 35.3668 47.3337 34.6092ZM22.4581 12.7587C22.8854 11.3273 24.7953 8.58428 27.893 8.58428C31.1488 8.58428 32.9775 11.5752 33.3278 12.7587C33.5299 13.4717 33.5841 14.2185 33.4871 14.9533C33.3901 15.688 33.144 16.3952 32.7638 17.0314L27.893 25.4699L23.0221 17.0314C22.6401 16.396 22.3929 15.6887 22.2958 14.9537C22.1988 14.2186 22.2541 13.4715 22.4581 12.7587Z" fill="#191D13" fill-opacity="0.6"/>
</svg>
