<svg width="55" height="55" viewBox="0 0 55 55" fill="none" xmlns="http://www.w3.org/2000/svg">
<path d="M23.0847 21.2139C24.7937 22.124 25.1398 23.2348 24.5801 24.1065C24.1028 24.8125 23.5273 25.447 22.871 25.9907C22.6104 26.1873 22.1789 26.23 22.0165 25.948C21.6234 25.2943 20.4783 24.3372 19.8118 23.8117C19.6795 23.7056 19.5129 23.6518 19.3435 23.6605C19.1742 23.6692 19.014 23.7397 18.8932 23.8587C17.6114 25.1063 13.8813 28.7509 13.0225 29.379C12.6636 29.6481 11.8817 30.0711 11.5399 29.2978C11.0272 28.1356 11.3305 26.6359 11.8561 26.042C12.2833 25.572 15.334 22.9614 16.5816 21.9018C16.638 21.8549 16.6814 21.7943 16.7076 21.7258C16.7338 21.6573 16.7419 21.5832 16.7311 21.5107C16.7204 21.4382 16.6912 21.3696 16.6463 21.3117C16.6014 21.2537 16.5424 21.2082 16.4748 21.1797C15.287 20.6627 12.8046 19.6031 12.3303 19.5475C11.698 19.4792 10.7281 19.3638 10.3606 20.8293C9.50608 24.2475 9.71972 30.3104 11.1895 34.9805C11.5826 36.2323 12.4713 38.0995 14.0095 37.1852C20.1878 33.5277 34.7149 19.4578 36.3941 17.706C38.0732 15.9542 42.4784 11.6217 43.5252 11.0235C44.572 10.4253 46.5972 10.4681 47.4475 12.0062C50.7375 17.9581 50.3871 36.8519 49.7676 39.5095C49.4471 40.8768 48.161 41.6757 46.3879 41.2827C42.5425 40.4281 34.9585 34.8993 31.2711 32.6775C31.1082 32.5781 30.9695 32.4436 30.8652 32.2837C30.7608 32.1239 30.6935 31.9428 30.6681 31.7536C30.6428 31.5645 30.6599 31.372 30.7184 31.1903C30.7769 31.0087 30.8752 30.8423 31.0062 30.7035L32.3308 29.3106C32.4355 29.1992 32.5766 29.129 32.7286 29.1125C32.8806 29.0961 33.0335 29.1345 33.1597 29.2209C34.9456 30.4429 41.4615 34.8779 42.3032 35.2026C43.2731 35.5914 44.5079 35.4804 44.8924 33.5918C45.2513 31.8229 45.4992 20.7524 43.1834 17.8385C42.3032 16.7361 39.7182 17.2787 36.2873 21.0601C34.3176 23.2306 15.5049 42.0902 11.3562 43.7053C9.64708 44.3761 8.10037 43.9702 7.26293 41.7142C4.27205 33.6858 5.03259 17.1976 5.71194 14.6724C6.3913 12.1472 8.35673 12.9633 10.2367 14.0059" fill="#191D13" fill-opacity="0.6"/>
</svg>
