<svg width="56" height="55" viewBox="0 0 56 55" fill="none" xmlns="http://www.w3.org/2000/svg">
<path d="M29.4873 38.9539C29.118 39.166 28.6997 39.2777 28.2738 39.2777C27.848 39.2777 27.4296 39.166 27.0604 38.9539L18.8269 34.1813C18.4593 33.9681 18.1542 33.6621 17.942 33.2939C17.7298 32.9257 17.618 32.5083 17.6178 32.0834V22.5895C17.621 22.1674 17.7342 21.7535 17.9462 21.3886C18.1583 21.0237 18.4618 20.7204 18.8269 20.5087L27.0604 15.7361C27.4296 15.5239 27.848 15.4123 28.2738 15.4123C28.6997 15.4123 29.118 15.5239 29.4873 15.7361L34.0334 18.3723L24.0011 24.2387C23.8294 24.3353 23.6868 24.4763 23.5883 24.647C23.4899 24.8176 23.4391 25.0116 23.4414 25.2086V29.4813C23.4391 29.6783 23.4899 29.8723 23.5883 30.043C23.6868 30.2136 23.8294 30.3546 24.0011 30.4512L27.7312 32.5876C27.8988 32.6843 28.0889 32.7352 28.2824 32.7352C28.4759 32.7352 28.666 32.6843 28.8335 32.5876L45.497 22.9569C46.0749 22.6228 46.5548 22.1425 46.8886 21.5643C47.2223 20.9861 47.3981 20.3303 47.3983 19.6627V18.7996C47.3986 18.0358 47.1978 17.2854 46.816 16.6239C46.4343 15.9623 45.885 15.413 45.2235 15.0311L30.4443 6.48574C29.7833 6.10357 29.0331 5.90234 28.2695 5.90234C27.5059 5.90234 26.7558 6.10357 26.0948 6.48574L11.3155 15.0311C10.6549 15.4135 10.1065 15.9631 9.72549 16.6246C9.34449 17.2861 9.1443 18.0362 9.14502 18.7996V35.8903C9.14473 36.6541 9.34557 37.4045 9.72734 38.0661C10.1091 38.7276 10.6584 39.277 11.3198 39.6588L26.099 48.2042C26.7601 48.5864 27.5102 48.7876 28.2738 48.7876C29.0374 48.7876 29.7875 48.5864 30.4486 48.2042L45.2278 39.6588C45.8893 39.277 46.4385 38.7276 46.8203 38.0661C47.2021 37.4045 47.4029 36.6541 47.4026 35.8903V28.6268L29.4873 38.9539Z" fill="#191D13" fill-opacity="0.6"/>
</svg>
