<svg width="56" height="55" viewBox="0 0 56 55" fill="none" xmlns="http://www.w3.org/2000/svg">
<path d="M45.0517 24.9053C42.9709 22.1152 38.7324 22.0127 38.7324 22.0127C38.7324 22.0127 41.9283 18.5945 39.4972 13.792C37.9376 10.7157 34.2375 8.83573 28.8155 10.3269L26.6791 3.3667L22.2911 4.69978L24.4274 11.6429L20.7871 12.7581L18.6508 5.81067L14.2542 7.16511L16.3905 14.1125L9.3064 16.2745L10.6352 20.654L14.9335 19.338L21.428 40.5476L17.1297 41.8721L18.5525 46.5379L25.6238 44.4015L27.7601 51.3575L32.1482 49.9902L30.0118 43.0343L33.6521 41.9234L35.7885 48.8793L40.1851 47.5377L38.0487 40.5775L39.0656 40.2656C47.6024 37.5054 48.6621 29.7163 45.0517 24.9053ZM22.2227 17.1162C22.2227 17.1162 24.0172 16.5565 26.568 15.7874C29.0035 15.0568 31.7423 15.9156 32.5498 18.2997C33.3573 20.6839 31.9986 23.3586 29.3538 24.2046C26.9312 24.9822 24.8162 25.5932 24.8162 25.5932L22.2227 17.1162ZM34.5152 36.5441C32.02 37.3644 28.7044 38.3215 28.7044 38.3215L26.0169 29.5198C26.0169 29.5198 29.0077 28.6652 31.6055 27.8107C34.7246 26.7981 37.4762 27.5501 38.3564 30.2974C39.2365 33.0448 37.8949 35.4375 34.5152 36.5441Z" fill="#191D13" fill-opacity="0.6"/>
</svg>
