<svg width="56" height="55" viewBox="0 0 56 55" fill="none" xmlns="http://www.w3.org/2000/svg">
<path d="M21.0887 33.494L25.8699 25.2093C25.9592 25.0549 26.0875 24.9268 26.242 24.8377C26.3965 24.7486 26.5717 24.7017 26.75 24.7017C26.9284 24.7017 27.1036 24.7486 27.2581 24.8377C27.4126 24.9268 27.5409 25.0549 27.6302 25.2093L32.907 34.3443C33.0016 34.4993 33.053 34.6769 33.0558 34.8585C33.0586 35.0402 33.0127 35.2192 32.9229 35.3771C32.833 35.535 32.7025 35.6659 32.5449 35.7563C32.3874 35.8467 32.2084 35.8932 32.0268 35.891H22.9217C22.6548 35.8908 22.3926 35.961 22.1616 36.0945C21.9305 36.2281 21.7388 36.4202 21.6057 36.6515L18.0509 42.8085C17.9613 42.9627 17.9141 43.1378 17.914 43.3162C17.9138 43.4945 17.9608 43.6697 18.0501 43.8241C18.1394 43.9785 18.2679 44.1065 18.4226 44.1952C18.5773 44.284 18.7527 44.3303 18.931 44.3295H46.6437C46.822 44.3303 46.9974 44.284 47.1521 44.1952C47.3067 44.1065 47.4353 43.9785 47.5246 43.8241C47.6139 43.6697 47.6609 43.4945 47.6607 43.3162C47.6606 43.1378 47.6134 42.9627 47.5238 42.8085L27.6302 8.32792C27.5409 8.17356 27.4126 8.0454 27.2581 7.95631C27.1036 7.86721 26.9284 7.82031 26.75 7.82031C26.5717 7.82031 26.3965 7.86721 26.242 7.95631C26.0875 8.0454 25.9592 8.17356 25.8699 8.32792L11.77 32.7335C11.6818 32.8879 11.6357 33.0628 11.6362 33.2406C11.6368 33.4185 11.6839 33.593 11.773 33.747C11.862 33.9009 11.9899 34.0288 12.1438 34.1178C12.2978 34.2069 12.4724 34.254 12.6502 34.2546H19.7685C20.0358 34.2542 20.2984 34.1838 20.53 34.0504C20.7617 33.9169 20.9543 33.7251 21.0887 33.494Z" fill="#191D13" fill-opacity="0.6"/>
</svg>
