<svg width="56" height="55" viewBox="0 0 56 55" fill="none" xmlns="http://www.w3.org/2000/svg">
<path d="M31.9362 34.8737C31.7179 34.3258 31.5742 33.7509 31.5089 33.1647C30.9377 33.7702 30.2472 34.2506 29.4809 34.5756C28.7145 34.9007 27.8892 35.0633 27.0568 35.0532C23.8822 35.0532 21.3613 33.3142 21.3613 30.1738C21.3613 25.743 25.8904 24.9056 28.8043 24.9056H31.2697V23.7648C31.2697 22.4274 30.099 21.2396 28.407 21.2396C26.997 21.2396 25.728 22.06 25.728 23.2136H21.669C21.6257 22.355 21.8977 21.5101 22.4338 20.838C23.0798 19.9758 23.9504 19.3077 24.9504 18.9067C26.1091 18.4266 27.3537 18.1882 28.6078 18.206C30.6587 18.206 32.2852 18.7216 33.4872 19.7527C34.0987 20.2382 34.5858 20.8622 34.9082 21.5732C35.2307 22.2843 35.3792 23.0619 35.3415 23.8417V31.0497C35.3183 32.3782 35.602 33.6941 36.1704 34.8951L31.9362 34.8737ZM27.8772 31.9555C29.2444 31.9555 30.8937 30.9984 31.2953 30.1866V27.3453H29.2316C27.0098 27.3453 25.493 28.3152 25.493 29.8576C25.493 31.4898 26.7065 31.9555 27.8772 31.9555Z" fill="#191D13" fill-opacity="0.6"/>
<path d="M27.9883 49.6876C23.5695 49.6876 19.25 48.3773 15.5759 45.9223C11.9018 43.4674 9.03817 39.9781 7.34717 35.8956C5.65616 31.8132 5.21372 27.321 6.07579 22.9871C6.93785 18.6532 9.06571 14.6723 12.1903 11.5477C15.3148 8.42313 19.2958 6.29527 23.6297 5.43321C27.9636 4.57114 32.4558 5.01359 36.5382 6.70459C40.6206 8.39559 44.11 11.2592 46.5649 14.9333C49.0199 18.6074 50.3302 22.927 50.3302 27.3458C50.3245 33.2695 47.9689 38.9489 43.7802 43.1376C39.5915 47.3263 33.912 49.682 27.9883 49.6876ZM27.9883 8.35797C24.2329 8.35797 20.5618 9.47159 17.4393 11.558C14.3168 13.6444 11.8831 16.6099 10.4459 20.0795C9.00877 23.549 8.63275 27.3668 9.3654 31.0501C10.098 34.7334 11.9065 38.1167 14.5619 40.7722C17.2174 43.4277 20.6007 45.2361 24.284 45.9687C27.9673 46.7014 31.7851 46.3254 35.2547 44.8882C38.7242 43.4511 41.6897 41.0174 43.7761 37.8948C45.8625 34.7723 46.9762 31.1012 46.9762 27.3458C46.9716 22.3113 44.9697 17.4843 41.4098 13.9244C37.8498 10.3644 33.0228 8.3625 27.9883 8.35797Z" fill="#191D13" fill-opacity="0.6"/>
</svg>
