<svg width="55" height="55" viewBox="0 0 55 55" fill="none" xmlns="http://www.w3.org/2000/svg">
<path d="M37.5766 27.3456C44.4556 22.5858 49.4248 17.7577 48.1045 15.4718C47.25 14.002 44.1993 14.2584 40.1146 15.5786C39.8294 15.2988 39.4707 15.1056 39.0801 15.0216C38.6895 14.9375 38.283 14.9661 37.908 15.1039C37.533 15.2418 37.2048 15.4832 36.9616 15.8002C36.7184 16.1172 36.5701 16.4967 36.5341 16.8946C35.2523 17.4159 33.9235 18.0055 32.5562 18.6507C31.8726 10.3104 30.1763 3.59375 27.5358 3.59375C24.8953 3.59375 23.199 10.3104 22.5154 18.6507C14.9528 15.0744 8.28738 13.1816 6.96712 15.4718C6.17241 16.869 7.7063 19.2275 10.5989 21.915C10.4956 22.1761 10.4433 22.4546 10.4451 22.7354C10.4445 23.0331 10.5027 23.328 10.6162 23.6033C10.7298 23.8785 10.8965 24.1287 11.1068 24.3394C11.3172 24.5501 11.567 24.7173 11.842 24.8314C12.117 24.9454 12.4119 25.0042 12.7096 25.0042C13.1165 25.0028 13.5153 24.8905 13.8632 24.6794C14.9912 25.5596 16.2089 26.4526 17.4993 27.3456C10.616 32.1054 5.64687 36.9335 6.96712 39.2194C7.36448 39.9073 8.24893 40.2192 9.48801 40.2192C12.3763 40.2192 17.2258 38.54 22.5154 36.0405C22.6479 37.6855 22.823 39.2664 23.0367 40.7404C22.6581 40.9835 22.3605 41.3339 22.1818 41.7469C22.0032 42.1598 21.9516 42.6166 22.0336 43.059C22.1157 43.5014 22.3277 43.9093 22.6425 44.2307C22.9574 44.5521 23.3609 44.7724 23.8015 44.8636C24.6945 48.6364 25.9378 51.0889 27.5358 51.0889C30.1763 51.0889 31.8726 44.368 32.5562 36.032C37.8458 38.5315 42.6953 40.2106 45.5836 40.2106C46.827 40.2106 47.72 39.8987 48.1045 39.2108C49.4248 36.9335 44.4556 32.1054 37.5766 27.3456ZM36.7221 18.0012C36.932 18.4349 37.2824 18.7848 37.7163 18.9942C38.1502 19.2036 38.6422 19.2602 39.1123 19.1548C39.5824 19.0494 40.0031 18.7882 40.306 18.4136C40.609 18.0389 40.7764 17.5729 40.7811 17.0912C40.7781 16.9075 40.7508 16.725 40.7 16.5485C42.879 15.8606 44.5881 15.5274 45.7118 15.5274C46.5023 15.5274 46.9936 15.6897 47.1859 16.0016C47.8866 17.2236 44.195 21.492 36.6366 26.6833C35.4232 25.8672 34.1627 25.0554 32.8767 24.265C32.8339 22.7525 32.7613 21.2741 32.663 19.8C34.0858 19.1207 35.4531 18.5182 36.7178 18.0012H36.7221ZM29.6722 31.0543C28.9458 31.473 28.2337 31.8746 27.5358 32.2592C26.8351 31.8746 26.123 31.473 25.3995 31.0543C24.676 30.6356 23.9639 30.2183 23.2631 29.8024C23.2631 29.0034 23.2631 28.2001 23.2631 27.3456C23.2631 26.4911 23.2631 25.6878 23.2888 24.8888C23.9724 24.4758 24.6845 24.0585 25.4251 23.6369C26.1515 23.2096 26.865 22.8208 27.5615 22.4363C28.2622 22.8208 28.9757 23.2182 29.6978 23.6369C30.4199 24.0556 31.1291 24.4914 31.8128 24.8888C31.8085 25.6878 31.8085 26.4911 31.8085 27.3456C31.8085 28.2001 31.8085 29.0034 31.7829 29.8024C31.1049 30.2183 30.4014 30.6356 29.6722 31.0543ZM31.753 31.0842C31.7145 32.2293 31.659 33.3231 31.5906 34.3741C30.6421 33.9084 29.6679 33.4085 28.6595 32.8702C29.1808 32.5839 29.6978 32.2891 30.2148 31.99C30.7318 31.6909 31.2445 31.3918 31.7572 31.0842H31.753ZM26.4078 32.8702C25.3995 33.4085 24.4225 33.9099 23.4768 34.3741C23.4084 33.3231 23.3529 32.2378 23.3144 31.0842C23.8271 31.3918 24.3399 31.6952 24.8526 31.99C25.3653 32.2848 25.8866 32.5839 26.4078 32.8702ZM22.1864 29.1316C21.2165 28.5291 20.2979 27.9309 19.4177 27.3456C20.2936 26.7602 21.2122 26.1621 22.1821 25.5596C22.1821 26.1535 22.1821 26.7517 22.1821 27.3456C22.1821 27.9395 22.1779 28.5377 22.1864 29.1316ZM23.3144 23.607C23.3543 22.4676 23.4084 21.3724 23.4768 20.3213C24.4253 20.787 25.3995 21.2827 26.4036 21.821C25.8866 22.1116 25.3696 22.4021 24.8526 22.7012C24.3356 23.0003 23.8271 23.2994 23.3144 23.607ZM28.6681 21.821C29.6722 21.2827 30.6463 20.787 31.5949 20.3213C31.6632 21.3724 31.7173 22.4676 31.7572 23.607C31.2445 23.2994 30.7318 22.996 30.2191 22.7012C29.7063 22.4064 29.1851 22.1116 28.6681 21.821ZM32.8852 25.5596C33.8551 26.1621 34.7737 26.7602 35.6539 27.3456C34.7994 27.9309 33.8594 28.5291 32.8895 29.1316C32.8895 28.5377 32.8895 27.9395 32.8895 27.3456C32.8895 26.7517 32.8938 26.1535 32.8852 25.5596ZM27.5358 4.70037C28.9415 4.70037 30.7873 10.0455 31.5094 19.1719C30.1977 19.8129 28.8646 20.5008 27.5358 21.2228C26.207 20.5008 24.8739 19.8129 23.5622 19.1719C24.2843 10.0241 26.1301 4.70037 27.5358 4.70037ZM14.6451 23.9274C14.927 23.4687 15.0355 22.9242 14.951 22.3924C14.8666 21.8606 14.5946 21.3765 14.1844 21.0277C13.7742 20.6789 13.2527 20.4883 12.7143 20.4904C12.1758 20.4925 11.6559 20.6871 11.2484 21.0391C8.63774 18.5866 7.48412 16.7664 7.90284 16.0358C8.08657 15.7239 8.58647 15.5615 9.37692 15.5615C11.6457 15.5615 16.2944 16.9117 22.4257 19.8342C22.3274 21.2912 22.2548 22.7866 22.2121 24.2992C20.9303 25.0896 19.6484 25.9014 18.4521 26.7175C17.0507 25.7262 15.7774 24.782 14.6451 23.9018V23.9274ZM7.90284 38.681C7.20212 37.459 10.8937 33.1906 18.4521 27.9993C19.6655 28.8154 20.926 29.6272 22.2121 30.4176C22.2548 31.9302 22.3274 33.4085 22.4257 34.8826C14.1623 38.822 8.60783 39.8987 7.90284 38.681ZM27.5572 50.0122C26.7326 50.0122 25.7541 48.1706 24.9466 44.8123C25.466 44.6541 25.9113 44.3145 26.2013 43.8554C26.4913 43.3963 26.6066 42.8483 26.5264 42.3113C26.4461 41.7743 26.1755 41.284 25.764 40.9297C25.3524 40.5755 24.8273 40.381 24.2843 40.3815C24.2288 40.3815 24.1732 40.3815 24.1177 40.3815C23.904 38.9117 23.726 37.291 23.5836 35.5192C24.8953 34.8783 26.2284 34.1947 27.5572 33.4726C28.886 34.1947 30.2191 34.8783 31.5308 35.5192C30.7873 44.6628 28.9458 50.0122 27.5358 50.0122H27.5572ZM47.2115 38.681C46.5065 39.8987 40.952 38.822 32.6844 34.8826C32.7827 33.4256 32.8553 31.9302 32.898 30.4176C34.1798 29.6272 35.4616 28.8154 36.658 27.9993C44.1608 33.1906 47.8695 37.459 47.1902 38.681H47.2115Z" fill="#191D13" fill-opacity="0.6"/>
<path d="M27.5357 29.9473C28.9727 29.9473 30.1377 28.7823 30.1377 27.3452C30.1377 25.9081 28.9727 24.7432 27.5357 24.7432C26.0986 24.7432 24.9336 25.9081 24.9336 27.3452C24.9336 28.7823 26.0986 29.9473 27.5357 29.9473Z" fill="#191D13" fill-opacity="0.6"/>
</svg>
