<svg width="52" height="52" viewBox="0 0 52 52" fill="none" xmlns="http://www.w3.org/2000/svg">
<rect width="52" height="52" rx="8" fill="#191D13" fill-opacity="0.1"/>
<path d="M40.0002 24.72V26.008C39.9985 29.027 39.0209 31.9646 37.2133 34.3826C35.4057 36.8006 32.8648 38.5695 29.9697 39.4255C27.0746 40.2815 23.9804 40.1787 21.1485 39.1324C18.3166 38.0862 15.8988 36.1525 14.2556 33.6199C12.6124 31.0873 11.832 28.0913 12.0306 25.0788C12.2292 22.0664 13.3963 19.1989 15.3578 16.9039C17.3193 14.609 19.9701 13.0095 22.9149 12.3442C25.8597 11.6789 28.9406 11.9833 31.6982 13.212M40.0002 14.8L26.0002 28.814L21.8002 24.614" stroke="#191D13" stroke-width="2.1" stroke-linecap="round" stroke-linejoin="round"/>
</svg>
