<svg width="52" height="52" viewBox="0 0 52 52" fill="none" xmlns="http://www.w3.org/2000/svg">
<rect x="0.75" y="0.75" width="50.5" height="50.5" rx="7.25" fill="#191D13"/>
<rect x="0.75" y="0.75" width="50.5" height="50.5" rx="7.25" stroke="#191D13" stroke-width="1.5"/>
<path d="M40 24.72V26.008C39.9983 29.027 39.0207 31.9646 37.2131 34.3826C35.4054 36.8006 32.8646 38.5695 29.9695 39.4255C27.0744 40.2815 23.9802 40.1787 21.1483 39.1324C18.3164 38.0862 15.8985 36.1525 14.2553 33.6199C12.6122 31.0873 11.8317 28.0913 12.0303 25.0788C12.229 22.0664 13.3961 19.1989 15.3576 16.9039C17.3191 14.609 19.9699 13.0095 22.9147 12.3442C25.8594 11.6789 28.9404 11.9833 31.698 13.212M40 14.8L26 28.814L21.8 24.614" stroke="white" stroke-width="2.1" stroke-linecap="round" stroke-linejoin="round"/>
</svg>
