<svg width="417" height="278" viewBox="0 0 417 278" fill="none" xmlns="http://www.w3.org/2000/svg">
<path d="M370.824 83.551L365.503 109.322L362.078 105.98L356.251 110.139L351.798 104.607L341.812 111.868L333.278 97.5956L323.759 103.172L319.984 97.9681L307.896 104.779L304.26 96.9895L312.733 55.9512L358.159 65.3309L370.824 83.551Z" fill="#1F1F1F"/>
<path d="M358.158 65.3301L370.824 83.5502L355.067 80.2976L358.158 65.3301Z" fill="#292B29"/>
<path d="M364.369 114.47L356.568 152.278L295.381 139.646L303.126 102.144L306.762 109.928L318.855 103.117L322.625 108.321L332.149 102.75L340.678 117.022L350.669 109.761L355.117 115.287L360.95 111.134L364.369 114.47Z" fill="#1F1F1F"/>
<path d="M276.793 110.038L214.438 113.897L209.484 33.8553L255.788 30.9863L272.785 45.2477L276.793 110.038Z" fill="#20201F"/>
<path d="M255.788 30.9863L272.785 45.2477L256.727 46.243L255.788 30.9863Z" fill="#313131"/>
<path d="M238.524 84.8462L238.279 83.0392C237.651 79.2973 238.674 75.1106 241.927 70.7349C244.862 66.8429 246.453 64.0629 246.275 60.9048C246.074 57.3464 243.711 55.1002 239.314 55.2781C236.8 55.4086 234.386 56.3006 232.391 57.8357L230.473 53.5378C232.697 51.7308 236.589 50.3964 240.287 50.2018C248.31 49.757 252.213 54.5052 252.519 59.8039C252.785 64.5466 250.328 68.1106 247.203 72.275C244.334 76.0725 243.395 79.2028 243.8 82.7445L243.973 84.557L238.524 84.8462ZM237.534 94.6929C237.39 92.1131 239.03 90.2004 241.471 90.067C243.912 89.9336 245.691 91.646 245.835 94.2314C245.969 96.6723 244.473 98.6405 241.893 98.7851C239.43 98.9241 237.651 97.1338 237.512 94.6929H237.534Z" fill="#292B29"/>
<path d="M82.5549 71.2298L76.2832 68.3887L75.4103 70.3069C75.2814 70.581 75.0803 70.8149 74.8285 70.9833C74.5768 71.1518 74.2839 71.2486 73.9813 71.2632C73.6367 71.2745 73.2931 71.3079 72.9528 71.3633C72.654 71.4076 72.3487 71.37 72.0697 71.2545C71.7906 71.1389 71.5481 70.9498 71.3681 70.7072L70.1394 68.9892L64.5405 73.0035L65.7692 74.7215C65.9401 74.9695 66.0407 75.2591 66.0603 75.5596C66.0799 75.8602 66.0177 76.1604 65.8804 76.4284C65.7219 76.7342 65.579 77.0478 65.4523 77.3681C65.3422 77.6505 65.1572 77.8975 64.9171 78.0827C64.6771 78.2678 64.3912 78.3841 64.0901 78.4189L61.994 78.6246L62.6667 85.4801L64.774 85.2688C65.0762 85.2447 65.3793 85.3034 65.6506 85.4386C65.922 85.5737 66.1514 85.7803 66.3141 86.0361C66.4031 86.1807 66.4976 86.3197 66.5977 86.4587C66.6977 86.5977 66.7978 86.7311 66.9035 86.8645C67.0953 87.098 67.2187 87.3801 67.26 87.6794C67.3012 87.9788 67.2586 88.2837 67.137 88.5604L66.2585 90.4952L72.5358 93.342L73.4087 91.4126C73.5388 91.1387 73.7411 90.9055 73.9938 90.738C74.2466 90.5704 74.5402 90.475 74.8431 90.4619C75.1839 90.4478 75.5236 90.4144 75.8606 90.3618C76.1594 90.3174 76.4646 90.355 76.7437 90.4706C77.0228 90.5861 77.2653 90.7753 77.4452 91.0179L78.674 92.7359L84.2785 88.7216L83.0497 87.0035C82.8735 86.7578 82.7698 86.4677 82.7501 86.166C82.7304 85.8643 82.7957 85.5631 82.9385 85.2966C83.0934 84.9926 83.2326 84.6808 83.3555 84.3625C83.4624 84.0781 83.6465 83.8291 83.8872 83.6434C84.1278 83.4578 84.4154 83.3429 84.7177 83.3117L86.8249 83.1004L86.1466 76.245L84.0394 76.4507C83.7391 76.477 83.4373 76.4199 83.1675 76.2854C82.8976 76.151 82.6702 75.9446 82.5104 75.689C82.4159 75.5444 82.3214 75.4054 82.2213 75.2664C82.1212 75.1274 82.0211 74.9884 81.9155 74.8605C81.7249 74.6242 81.6024 74.3403 81.5613 74.0395C81.5201 73.7387 81.5618 73.4324 81.6819 73.1536L82.5549 71.2298ZM78.9965 77.5738C79.6467 78.4811 80.0132 79.5609 80.0497 80.6765C80.0861 81.7921 79.791 82.8936 79.2014 83.8414C78.6119 84.7893 77.7546 85.541 76.7378 86.0016C75.721 86.4622 74.5905 86.6109 73.4892 86.4289C72.3879 86.2469 71.3653 85.7424 70.5507 84.9792C69.7361 84.216 69.1662 83.2283 68.913 82.1412C68.6598 81.0541 68.7346 79.9163 69.1281 78.8717C69.5216 77.8271 70.216 76.9227 71.1235 76.2727C72.3401 75.4015 73.853 75.0491 75.3294 75.2931C76.8058 75.5371 78.1248 76.3574 78.9965 77.5738Z" fill="#1F1F1F"/>
<path d="M366.059 162.191L361.878 164.604L362.618 165.883C362.728 166.067 362.783 166.278 362.776 166.492C362.769 166.706 362.701 166.914 362.579 167.09C362.451 167.29 362.328 167.496 362.217 167.712C362.126 167.904 361.982 168.066 361.801 168.178C361.621 168.291 361.412 168.349 361.2 168.346H359.732V173.178H361.211C361.423 173.175 361.632 173.234 361.812 173.346C361.993 173.458 362.137 173.62 362.228 173.812C362.34 174.029 362.462 174.234 362.59 174.435C362.712 174.611 362.78 174.818 362.787 175.032C362.794 175.246 362.739 175.458 362.629 175.641L361.889 176.92L366.07 179.333L366.815 178.049C366.923 177.866 367.08 177.718 367.267 177.62C367.455 177.521 367.666 177.477 367.877 177.493H368.589C368.8 177.478 369.011 177.522 369.199 177.621C369.386 177.719 369.543 177.867 369.651 178.049L370.396 179.338L374.572 176.925L373.832 175.641C373.727 175.457 373.675 175.246 373.683 175.034C373.691 174.822 373.758 174.616 373.877 174.44C374.005 174.24 374.127 174.029 374.238 173.817C374.329 173.626 374.474 173.464 374.654 173.352C374.834 173.239 375.043 173.181 375.256 173.184H376.734V168.352H375.244C375.032 168.354 374.823 168.296 374.643 168.184C374.463 168.071 374.318 167.91 374.227 167.718C374.116 167.507 373.993 167.295 373.866 167.095C373.747 166.919 373.68 166.713 373.672 166.501C373.664 166.289 373.716 166.079 373.821 165.894L374.561 164.61L370.385 162.197L369.64 163.465C369.532 163.647 369.376 163.795 369.188 163.894C369 163.992 368.789 164.036 368.578 164.021H368.222H367.866C367.654 164.035 367.443 163.991 367.254 163.892C367.066 163.794 366.909 163.646 366.799 163.465L366.059 162.191ZM368.222 166.806C369.006 166.805 369.772 167.036 370.424 167.471C371.075 167.906 371.584 168.524 371.884 169.247C372.184 169.971 372.263 170.767 372.111 171.536C371.958 172.304 371.581 173.01 371.027 173.564C370.473 174.118 369.767 174.495 368.999 174.648C368.23 174.8 367.434 174.722 366.71 174.421C365.987 174.121 365.368 173.613 364.934 172.961C364.499 172.309 364.268 171.543 364.269 170.759C364.268 170.24 364.37 169.725 364.568 169.245C364.767 168.765 365.058 168.328 365.425 167.96C365.792 167.593 366.228 167.301 366.708 167.102C367.188 166.903 367.703 166.801 368.222 166.801V166.806Z" fill="#1F1F1F"/>
<path d="M95.2428 50.6854L91.4119 53.6211L92.296 54.7943C92.4278 54.9614 92.5089 55.1629 92.5296 55.3748C92.5503 55.5868 92.5098 55.8001 92.4127 55.9897C92.3063 56.2061 92.2135 56.4289 92.1347 56.6569C92.0662 56.8577 91.943 57.0354 91.7789 57.1699C91.6149 57.3045 91.4165 57.3906 91.2062 57.4186L89.7384 57.6076L90.3611 62.3948L91.8289 62.2057C92.0426 62.176 92.2603 62.2071 92.4571 62.2957C92.6538 62.3842 92.8215 62.5265 92.9409 62.7061C93.0748 62.8996 93.2196 63.0852 93.3746 63.2621C93.5179 63.4197 93.6129 63.615 93.6483 63.8249C93.6838 64.0349 93.6583 64.2506 93.5748 64.4464L93.0188 65.8142L97.4668 67.6657L98.0228 66.2979C98.1055 66.1017 98.2416 65.9326 98.4155 65.8098C98.5894 65.6869 98.7943 65.6153 99.0069 65.6029L99.3627 65.564L99.713 65.5084C99.9188 65.4696 100.131 65.488 100.327 65.5615C100.523 65.635 100.695 65.7609 100.825 65.9254L101.731 67.1097L105.562 64.174L104.667 63.0008C104.538 62.8313 104.458 62.6291 104.438 62.417C104.417 62.2048 104.456 61.9911 104.55 61.7999C104.656 61.5849 104.748 61.364 104.828 61.1382C104.897 60.9374 105.02 60.7597 105.184 60.6252C105.348 60.4906 105.546 60.4045 105.757 60.3765L107.225 60.1875L106.602 55.4003L105.134 55.5893C104.921 55.6197 104.704 55.5894 104.507 55.5019C104.31 55.4143 104.142 55.2732 104.022 55.0945C103.883 54.8943 103.738 54.7053 103.583 54.5385C103.453 54.3776 103.369 54.1848 103.34 53.9804C103.311 53.7759 103.337 53.5673 103.416 53.3765L103.972 52.0087L99.524 50.1572L98.968 51.525C98.8842 51.7204 98.7478 51.8889 98.5741 52.0115C98.4004 52.1342 98.1961 52.2064 97.9839 52.22L97.628 52.2533L97.3 52.2645C97.0942 52.3032 96.8818 52.2849 96.6857 52.2114C96.4897 52.1378 96.3175 52.012 96.188 51.8475L95.2428 50.6854ZM97.9839 54.9833C98.7584 54.8837 99.545 55.0158 100.245 55.3628C100.944 55.7098 101.525 56.2562 101.915 56.933C102.304 57.6099 102.484 58.3869 102.432 59.1661C102.381 59.9452 102.099 60.6916 101.624 61.3111C101.148 61.9305 100.5 62.3953 99.7609 62.6468C99.0217 62.8982 98.2245 62.9251 97.4699 62.7241C96.7154 62.523 96.0373 62.1029 95.5212 61.5169C95.0051 60.9309 94.6741 60.2052 94.57 59.4313C94.5005 58.9149 94.5338 58.3898 94.668 57.8863C94.8022 57.3827 95.0346 56.9107 95.3519 56.4973C95.6692 56.084 96.065 55.7374 96.5167 55.4775C96.9684 55.2177 97.467 55.0497 97.9839 54.9833Z" fill="#1F1F1F"/>
<path d="M66.6199 176.13C66.8288 170.755 66.7545 165.373 66.3975 160.006C65.602 148.923 63.9118 137.923 61.3435 127.113C59.9312 121.03 58.1965 115.048 56.3839 109.071C56.3283 108.887 56.0392 108.937 56.0893 109.126C61.6882 130.199 66.2807 151.938 65.9638 173.845C65.8749 179.961 65.1632 185.993 64.5849 192.087C64.5849 192.248 64.8351 192.315 64.8741 192.148C66.025 186.916 66.4031 181.456 66.6199 176.13Z" fill="#1F1F1F"/>
<path d="M56.0893 109.11C56.0893 109.11 47.6158 130.628 49.5118 135.665C51.4077 140.702 55.322 141.781 55.322 141.781C55.322 141.781 50.1345 149.187 53.7596 156.131C57.3847 163.076 65.4356 162.748 65.9916 170.621C65.9749 170.66 66.4197 137.739 56.0893 109.11Z" fill="#1F1F1F"/>
<path d="M65.052 157.065C65.0657 157.029 65.0657 156.989 65.052 156.953C63.9399 142.263 61.1834 127.744 56.8343 113.669C56.8343 113.63 56.7509 113.641 56.762 113.669C58.4412 119.97 59.9238 126.297 61.21 132.651C60.0709 131.571 58.6792 130.795 57.1624 130.393C57.1624 130.393 57.1179 130.427 57.1624 130.438C58.7558 131.022 60.1885 131.974 61.3435 133.218C61.5881 134.469 61.8328 135.714 62.0607 136.965C60.1648 134.847 57.5404 133.796 54.9106 132.795C54.9046 132.798 54.8995 132.802 54.896 132.807C54.8924 132.813 54.8905 132.819 54.8905 132.826C54.8905 132.832 54.8924 132.839 54.896 132.844C54.8995 132.849 54.9046 132.854 54.9106 132.856C57.6516 133.968 60.376 135.403 62.2331 137.766C62.878 141.335 63.4452 144.918 63.9344 148.513C62.5655 147.079 60.8098 146.073 58.8804 145.617C58.8192 145.617 58.7859 145.689 58.847 145.705C60.829 146.289 62.5985 147.437 63.94 149.008H63.9734C64.1402 150.268 64.2995 151.534 64.4515 152.806C63.3925 151.909 62.1968 151.189 60.9098 150.671C60.8764 150.671 60.8542 150.709 60.9098 150.721C62.2232 151.29 63.4259 152.086 64.4626 153.072C64.4626 153.072 64.4904 153.072 64.5071 153.072C64.6461 154.279 64.7851 155.486 64.9074 156.692C62.9982 154.384 60.5204 152.613 57.7184 151.555C57.7066 151.555 57.6953 151.559 57.6869 151.568C57.6786 151.576 57.6739 151.587 57.6739 151.599C57.6739 151.611 57.6786 151.622 57.6869 151.631C57.6953 151.639 57.7066 151.644 57.7184 151.644C60.4852 152.863 62.9156 154.735 64.8018 157.098C64.8226 157.124 64.8506 157.143 64.8823 157.153C64.914 157.163 64.9479 157.163 64.9797 157.154C65.1632 159.005 65.33 160.856 65.4634 162.714C65.4634 162.741 65.5079 162.741 65.5079 162.714C65.3634 160.849 65.2114 158.966 65.052 157.065Z" fill="#1F211E"/>
<path d="M58.241 128.275C56.7064 127.32 54.9534 126.772 53.148 126.685C53.1392 126.685 53.1307 126.688 53.1244 126.694C53.1182 126.701 53.1147 126.709 53.1147 126.718C53.1147 126.727 53.1182 126.735 53.1244 126.742C53.1307 126.748 53.1392 126.751 53.148 126.751C54.8935 127.082 56.5873 127.643 58.1854 128.419C58.2521 128.436 58.3021 128.319 58.241 128.275Z" fill="#1F211E"/>
<path d="M59.2696 151.055C58.0902 150.378 56.7914 149.934 55.4443 149.748C55.3998 149.748 55.3943 149.809 55.4443 149.82C56.7598 150.084 58.0322 150.53 59.2251 151.144C59.2752 151.171 59.3196 151.082 59.2696 151.055Z" fill="#1F211E"/>
<path d="M88.9044 136.037C85.3198 138.515 82.0276 141.391 79.091 144.61C76.0625 148.019 73.7264 151.985 72.2133 156.286C68.9929 165.248 67.2612 174.676 67.087 184.198C66.9789 189.47 67.4846 194.738 68.5937 199.893C68.6027 199.931 68.6258 199.964 68.6581 199.984C68.6905 200.005 68.7297 200.013 68.7675 200.006C68.8054 199.999 68.8391 199.977 68.8616 199.946C68.8841 199.915 68.8937 199.876 68.8884 199.838C67.5083 190.74 67.5608 181.481 69.0441 172.399C70.5008 163.503 72.786 153.818 78.446 146.584C81.5263 142.642 85.3682 139.545 89.1657 136.343C89.3659 136.165 89.1101 135.892 88.9044 136.037Z" fill="#1F1F1F"/>
<path d="M68.3324 177.781C70.3728 174.481 72.7707 171.416 75.4826 168.641C79.7248 164.398 83.2944 161.385 83.8504 158.582C84.4064 155.78 79.6025 153.712 79.6025 153.712C79.6025 153.712 85.4683 154.768 87.0752 152.305C88.682 149.842 89.4548 135.575 89.4548 135.575C89.4548 135.575 78.7796 143.198 73.8034 153.884C68.8272 164.571 68.3324 177.781 68.3324 177.781Z" fill="#1F1F1F"/>
<path d="M85.624 148.958C84.921 148.854 84.2085 148.83 83.5001 148.886C83.4167 148.886 83.4222 149.031 83.5001 149.036C84.2006 149.036 84.9067 149.003 85.6073 149.036C85.6153 149.034 85.6226 149.03 85.6283 149.024C85.634 149.018 85.638 149.011 85.6397 149.003C85.6415 148.994 85.6409 148.986 85.6381 148.978C85.6353 148.97 85.6304 148.964 85.624 148.958Z" fill="#1F211E"/>
<path d="M77.9567 162.797C76.8295 162.82 75.7151 163.042 74.6652 163.453C74.6652 163.453 74.6652 163.509 74.6652 163.503C75.7772 163.242 76.8503 163.136 77.9512 162.947C77.9656 162.941 77.9779 162.931 77.9867 162.918C77.9955 162.905 78.0005 162.889 78.0011 162.874C78.0017 162.858 77.9978 162.842 77.99 162.829C77.9821 162.815 77.9706 162.804 77.9567 162.797Z" fill="#1F211E"/>
<path d="M75.6549 158.016C75.1869 158.012 74.7196 158.053 74.2593 158.138C74.2508 158.141 74.2435 158.147 74.2383 158.154C74.2331 158.162 74.2303 158.171 74.2303 158.18C74.2303 158.189 74.2331 158.198 74.2383 158.205C74.2435 158.213 74.2508 158.218 74.2593 158.222C74.7254 158.249 75.193 158.228 75.6549 158.16C75.6741 158.16 75.6925 158.153 75.706 158.139C75.7196 158.126 75.7272 158.107 75.7272 158.088C75.7272 158.069 75.7196 158.051 75.706 158.037C75.6925 158.023 75.6741 158.016 75.6549 158.016Z" fill="#1F211E"/>
<path d="M37.0352 151.171C40.5097 152.349 43.8392 153.918 46.9598 155.847C50.1976 157.905 53.0054 160.571 55.2275 163.698C59.9029 170.206 63.4825 177.435 65.8248 185.098C67.1312 189.342 67.9373 193.723 68.2268 198.153C68.2207 198.182 68.2049 198.208 68.1822 198.226C68.1594 198.244 68.131 198.255 68.1017 198.255C68.0723 198.255 68.0439 198.244 68.0211 198.226C67.9984 198.208 67.9826 198.182 67.9766 198.153C66.9951 190.472 64.8151 182.992 61.5158 175.985C58.2744 169.119 54.1878 161.813 47.9383 157.265C44.5356 154.791 40.7103 153.167 36.8962 151.455C36.696 151.388 36.835 151.105 37.0352 151.171Z" fill="#1F1F1F"/>
<path d="M63.334 180.2C60.9184 178.003 58.269 176.077 55.4332 174.457C51.0185 172.005 47.4323 170.393 46.337 168.252C45.2417 166.111 48.65 163.331 48.65 163.331C48.65 163.331 44.1464 165.555 42.2782 163.915C40.4101 162.275 36.4847 150.933 36.4847 150.933C36.4847 150.933 46.8875 154.63 53.376 162.13C59.8645 169.631 63.334 180.2 63.334 180.2Z" fill="#1F1F1F"/>
<path d="M54.6993 169.759C53.6765 169.687 52.6495 169.814 51.6746 170.131C51.6746 170.131 51.6746 170.181 51.6746 170.176C52.6692 170.005 53.6741 169.901 54.6826 169.864C54.7549 169.864 54.7715 169.764 54.6993 169.759Z" fill="#1F211E"/>
<path d="M45.6254 157.86C45.1588 157.822 44.6892 157.848 44.2298 157.938C44.1798 157.938 44.1964 158.027 44.2298 158.021C44.6913 157.971 45.1416 157.988 45.5976 157.976C45.6117 157.977 45.6256 157.973 45.6369 157.964C45.6482 157.956 45.6562 157.943 45.6595 157.93C45.6628 157.916 45.6611 157.901 45.6549 157.889C45.6487 157.876 45.6382 157.866 45.6254 157.86Z" fill="#1F211E"/>
<path d="M76.7502 212.492H53.2704L56.6175 187.967L57.4737 181.679H72.5469L73.4031 187.967L76.7502 212.492Z" fill="#292B29"/>
<path d="M73.4031 187.967H56.6175L57.4737 181.679H72.5469L73.4031 187.967Z" fill="#1F211E"/>
<path d="M74.6986 179.499H55.3164V184.826H74.6986V179.499Z" fill="#292B29"/>
<path d="M38.3418 212.492L80.6033 212.358L122.865 212.308L207.388 212.214L291.911 212.308L334.173 212.358L376.434 212.492L334.173 212.631L291.911 212.675L207.388 212.77L122.865 212.675L80.6033 212.625L38.3418 212.492Z" fill="#263238"/>
<path d="M208.5 253.931C296.549 253.931 367.927 246.11 367.927 236.462C367.927 226.814 296.549 218.992 208.5 218.992C120.451 218.992 49.0726 226.814 49.0726 236.462C49.0726 246.11 120.451 253.931 208.5 253.931Z" fill="#1F211E"/>
<path d="M320.434 240.22H151.032L175.524 101.304H344.926L320.434 240.22Z" fill="url(#paint0_linear_548_930)"/>
<path d="M233.503 86.9141H178.065L175.524 101.303H234.854L233.503 86.9141Z" fill="url(#paint1_linear_548_930)"/>
<g opacity="0.1">
<path d="M320.434 240.22H151.032L175.524 101.304H344.926L320.434 240.22Z" fill="black"/>
<path d="M233.503 86.9141H178.065L175.524 101.303H234.854L233.503 86.9141Z" fill="black"/>
</g>
<path d="M172.082 92.7854C171.711 91.1944 171.711 89.5393 172.082 87.9482C172.453 89.5393 172.453 91.1944 172.082 92.7854Z" fill="#263238"/>
<path d="M167.156 94.2085C166.59 93.6214 166.102 92.9636 165.705 92.2513C165.288 91.5539 164.961 90.8067 164.732 90.0273C165.299 90.6109 165.787 91.2671 166.183 91.9789C166.599 92.6788 166.925 93.4277 167.156 94.2085Z" fill="#263238"/>
<path d="M163.597 97.9059C162.035 97.4309 160.603 96.6034 159.411 95.4873C160.19 95.7139 160.938 96.039 161.635 96.4547C162.347 96.8546 163.006 97.3421 163.597 97.9059Z" fill="#263238"/>
<path d="M162.352 102.888C160.761 103.259 159.106 103.259 157.515 102.888C159.106 102.518 160.761 102.518 162.352 102.888Z" fill="#263238"/>
<path d="M163.798 107.814C163.208 108.378 162.551 108.865 161.84 109.266C161.143 109.681 160.396 110.006 159.616 110.233C160.204 109.667 160.861 109.179 161.574 108.782C162.27 108.364 163.017 108.039 163.798 107.814Z" fill="#263238"/>
<path d="M167.489 111.367C167.016 112.932 166.189 114.366 165.071 115.559C165.297 114.779 165.624 114.031 166.044 113.335C166.44 112.621 166.926 111.959 167.489 111.367Z" fill="#263238"/>
<path d="M172.471 112.596C172.665 113.387 172.758 114.2 172.749 115.014C172.761 115.829 172.668 116.642 172.471 117.433C172.272 116.643 172.178 115.829 172.193 115.014C172.184 114.2 172.277 113.387 172.471 112.596Z" fill="#263238"/>
<path d="M177.397 111.201C177.963 111.788 178.451 112.445 178.849 113.158C179.266 113.854 179.592 114.601 179.816 115.382C178.698 114.189 177.871 112.754 177.397 111.189V111.201Z" fill="#263238"/>
<path d="M180.95 107.475C181.73 107.699 182.478 108.024 183.174 108.442C183.886 108.839 184.544 109.327 185.131 109.893C184.351 109.669 183.603 109.344 182.907 108.926C182.195 108.529 181.537 108.041 180.95 107.475Z" fill="#263238"/>
<path d="M182.179 102.493C183.772 102.122 185.429 102.122 187.022 102.493C185.429 102.863 183.772 102.863 182.179 102.493Z" fill="#263238"/>
<path d="M180.756 97.567C181.344 97.0043 182.002 96.5186 182.713 96.1214C183.407 95.6997 184.155 95.3725 184.937 95.1484C183.744 96.2661 182.309 97.0937 180.744 97.567H180.756Z" fill="#263238"/>
<path d="M177.058 94.0141C177.287 93.2355 177.612 92.4884 178.026 91.7901C178.423 91.0779 178.911 90.42 179.477 89.833C179.252 90.6132 178.927 91.3609 178.509 92.057C178.112 92.7693 177.624 93.4271 177.058 94.0141Z" fill="#263238"/>
<path d="M320.184 240.22H150.42L126.312 106.347H296.081L320.184 240.22Z" fill="url(#paint2_linear_548_930)"/>
<path d="M185.142 188.184C189.039 188.184 192.198 185.025 192.198 181.128C192.198 177.231 189.039 174.072 185.142 174.072C181.246 174.072 178.087 177.231 178.087 181.128C178.087 185.025 181.246 188.184 185.142 188.184Z" fill="#263238"/>
<path d="M240.92 188.184C244.817 188.184 247.976 185.025 247.976 181.128C247.976 177.231 244.817 174.072 240.92 174.072C237.024 174.072 233.865 177.231 233.865 181.128C233.865 185.025 237.024 188.184 240.92 188.184Z" fill="#263238"/>
<path d="M223.167 189.313L222.778 188.573C222.745 188.506 219.097 181.768 211.764 181.768C205.092 181.768 203.424 188.112 203.379 188.384L203.179 189.19L201.561 188.801L201.756 187.989C201.756 187.911 203.746 180.1 211.764 180.1C220.104 180.1 224.09 187.483 224.257 187.8L224.646 188.534L223.167 189.313Z" fill="#263238"/>
<path d="M308.975 180.589L308.858 180.033C309.219 179.955 309.575 179.872 309.931 179.777L310.07 180.333C309.692 180.428 309.342 180.511 308.975 180.589Z" fill="#BEF856" fill-opacity="0.15"/>
<path d="M312.222 179.694L312.044 179.171C312.739 178.932 313.434 178.671 314.107 178.387L314.324 178.899C313.64 179.188 312.933 179.455 312.222 179.694ZM316.364 177.92L316.114 177.431C316.764 177.092 317.415 176.725 318.032 176.319L318.321 176.791C317.687 177.231 317.026 177.603 316.364 177.92ZM320.189 175.568L319.861 175.118C320.462 174.679 321.04 174.217 321.585 173.744L321.952 174.161C321.368 174.667 320.812 175.14 320.184 175.59L320.189 175.568ZM323.581 172.61L323.175 172.227C323.687 171.671 324.17 171.115 324.615 170.559L325.054 170.898C324.593 171.509 324.098 172.082 323.592 172.632L323.581 172.61ZM326.333 169.052L325.861 168.757C326.245 168.136 326.587 167.49 326.884 166.822L327.395 167.05C327.081 167.746 326.724 168.422 326.328 169.074L326.333 169.052ZM328.173 164.926L327.617 164.771C327.821 164.073 327.971 163.361 328.068 162.641L328.624 162.713C328.532 163.469 328.379 164.217 328.168 164.949L328.173 164.926ZM328.791 160.478H328.235V160.317C328.235 159.644 328.196 158.96 328.129 158.288L328.685 158.232C328.758 158.925 328.795 159.621 328.796 160.317L328.791 160.478ZM327.79 156.125C327.64 155.408 327.455 154.699 327.234 154.001L327.79 153.834C328.018 154.557 328.212 155.291 328.346 156.008L327.79 156.125ZM326.472 151.938C326.205 151.282 325.916 150.609 325.56 149.931L326.061 149.681C326.4 150.37 326.711 151.06 326.984 151.727L326.472 151.938ZM324.526 147.974C324.181 147.368 323.803 146.728 323.414 146.072L323.887 145.778C324.293 146.439 324.676 147.084 324.999 147.701L324.526 147.974ZM322.202 144.199C321.796 143.587 321.385 142.97 320.962 142.353L321.424 142.041C321.846 142.659 322.258 143.276 322.664 143.898L322.202 144.199ZM319.7 140.518C319.283 139.906 318.86 139.289 318.449 138.678L318.911 138.366C319.322 138.978 319.739 139.595 320.156 140.201L319.7 140.518ZM317.215 136.815C316.809 136.192 316.414 135.558 316.025 134.925L316.497 134.635C316.887 135.269 317.281 135.892 317.682 136.515L317.215 136.815ZM314.896 132.995C314.518 132.322 314.168 131.655 313.851 131.016L314.351 130.766C314.663 131.4 315.013 132.056 315.38 132.723L314.896 132.995ZM312.922 128.992C312.628 128.297 312.366 127.591 312.122 126.901L312.678 126.724C312.911 127.396 313.173 128.091 313.462 128.775L312.922 128.992ZM311.477 124.75C311.293 124.027 311.132 123.287 311.01 122.526L311.566 122.437C311.688 123.148 311.838 123.871 312.022 124.583L311.477 124.75ZM310.732 120.302C310.676 119.618 310.648 118.928 310.648 118.239V118.056H311.204V118.233C311.204 118.906 311.204 119.585 311.288 120.252L310.732 120.302ZM311.288 115.854L310.732 115.798C310.732 115.648 310.76 115.492 310.776 115.331C310.843 114.736 310.926 114.141 311.026 113.574L311.582 113.669C311.488 114.225 311.405 114.808 311.338 115.392C311.36 115.565 311.36 115.715 311.316 115.87L311.288 115.854ZM312.061 111.528L311.505 111.378C311.71 110.644 311.949 109.927 312.216 109.243L312.733 109.443C312.481 110.132 312.265 110.833 312.088 111.545L312.061 111.528ZM339.766 108.287C339.455 108.287 339.132 108.242 338.815 108.198C338.382 108.136 337.948 108.064 337.52 107.981L337.631 107.425C338.042 107.503 338.471 107.575 338.893 107.636C339.193 107.675 339.499 107.703 339.794 107.719L339.766 108.287ZM342.051 108.114L341.934 107.558C342.632 107.414 343.301 107.155 343.914 106.791L344.203 107.264C343.548 107.669 342.83 107.962 342.079 108.131L342.051 108.114ZM313.662 107.453L313.167 107.191C313.521 106.528 313.913 105.886 314.34 105.268L314.796 105.584C314.39 106.19 314.02 106.819 313.69 107.469L313.662 107.453ZM335.346 107.419C334.628 107.192 333.923 106.926 333.233 106.624L333.461 106.113C334.129 106.41 334.814 106.668 335.513 106.885L335.346 107.419ZM345.91 105.685L345.448 105.373C345.844 104.799 346.079 104.129 346.127 103.433L346.683 103.472C346.635 104.269 346.374 105.039 345.927 105.701L345.91 105.685ZM331.231 105.601C330.581 105.223 329.952 104.809 329.347 104.361L329.675 103.916C330.263 104.351 330.876 104.752 331.509 105.117L331.231 105.601ZM316.164 103.866L315.752 103.494C316.256 102.934 316.792 102.405 317.359 101.909L317.726 102.326C317.181 102.814 316.665 103.334 316.181 103.883L316.164 103.866ZM327.612 102.927C327.058 102.417 326.533 101.877 326.038 101.309L326.455 100.942C326.937 101.493 327.447 102.019 327.984 102.515L327.612 102.927ZM345.71 101.42C345.391 100.785 344.951 100.218 344.414 99.752L344.781 99.335C345.372 99.846 345.857 100.467 346.21 101.164L345.71 101.42ZM319.455 100.981L319.138 100.525C319.761 100.1 320.405 99.7086 321.068 99.3517L321.329 99.841C320.69 100.194 320.071 100.58 319.472 100.997L319.455 100.981ZM324.648 99.5352C324.437 99.2349 324.231 98.9291 324.037 98.6122L323.314 98.8958L323.103 98.3842L323.742 98.1285C323.642 97.9617 323.542 97.7949 323.447 97.6281L323.931 97.3556C324.042 97.5502 324.154 97.7448 324.27 97.9116C324.582 97.8004 324.899 97.6948 325.221 97.5947L325.382 98.1507C325.11 98.2341 324.826 98.3231 324.571 98.4176C324.743 98.69 324.921 98.9736 325.127 99.2127L324.648 99.5352ZM342.624 98.5788C342.086 98.3107 341.528 98.084 340.956 97.9005L340.589 97.7838L340.75 97.2278L341.128 97.3501C341.724 97.5399 342.304 97.776 342.863 98.0562L342.624 98.5788ZM327.512 97.5836L327.395 97.0276C328.112 96.8664 328.857 96.7329 329.619 96.6273L329.702 97.1833C328.969 97.3 328.24 97.439 327.529 97.6003L327.512 97.5836ZM338.465 97.2834C337.77 97.161 337.036 97.0665 336.286 96.9998L336.33 96.4438C337.103 96.5105 337.853 96.605 338.554 96.7329L338.465 97.2834ZM331.876 96.9609L331.838 96.4049C332.499 96.366 333.161 96.3437 333.817 96.3437H334.089V96.8997H333.822C333.194 96.9164 332.538 96.9331 331.893 96.9776L331.876 96.9609ZM322.48 95.632C322.18 94.9537 321.924 94.2476 321.674 93.5304L322.23 93.358C322.463 94.0586 322.725 94.748 323.014 95.4096L322.48 95.632ZM321.073 91.362C320.907 90.6447 320.768 89.8997 320.662 89.138L321.218 89.0601C321.324 89.794 321.457 90.5224 321.618 91.2285L321.073 91.362ZM320.451 86.914C320.423 86.4136 320.406 85.902 320.406 85.3905C320.406 85.1514 320.406 84.9068 320.406 84.6677H320.962C320.962 84.9068 320.962 85.1403 320.962 85.3794C320.962 85.8798 320.962 86.3858 321.001 86.8695L320.451 86.914ZM321.112 82.466L320.556 82.4104C320.634 81.6764 320.74 80.9258 320.868 80.1864L321.424 80.2809C321.273 81.0204 321.168 81.732 321.096 82.4771L321.112 82.466ZM321.874 78.1236L321.318 77.9902C321.496 77.2729 321.702 76.5501 321.93 75.8273L322.486 75.9997C322.235 76.728 322.03 77.4342 321.857 78.1347L321.874 78.1236ZM323.208 73.9147L322.691 73.7145C322.964 73.0195 323.247 72.3245 323.586 71.6518L324.087 71.8964C323.753 72.5636 323.459 73.2419 323.192 73.948L323.208 73.9147ZM325.121 69.9504L324.637 69.6668C325.015 69.0274 325.421 68.388 325.844 67.7764L326.3 68.0934C325.866 68.705 325.471 69.3277 325.104 69.9615L325.121 69.9504ZM327.629 66.3308L327.195 65.9806C327.662 65.4246 328.162 64.8352 328.679 64.3126L329.08 64.6962C328.557 65.2188 328.068 65.7748 327.612 66.342L327.629 66.3308ZM330.653 63.1283L330.281 62.7168C330.837 62.222 331.393 61.7327 331.988 61.2601L332.332 61.6994C331.737 62.172 331.17 62.6557 330.637 63.1394L330.653 63.1283ZM334.106 60.3816L333.789 59.9202C334.395 59.5032 335.029 59.0917 335.674 58.7025L335.957 59.1751C335.312 59.5699 334.712 59.9758 334.089 60.3928L334.106 60.3816ZM337.881 58.0854L337.62 57.5961C338.276 57.2458 338.954 56.9122 339.633 56.6008L339.866 57.1068C339.16 57.4237 338.509 57.7573 337.865 58.0965L337.881 58.0854ZM341.901 56.2394L341.695 55.7168C342.396 55.4444 343.102 55.1608 343.803 54.9551L343.981 55.5111C343.274 55.7224 342.574 55.9781 341.884 56.2506L341.901 56.2394Z" fill="#BEF856" fill-opacity="0.15"/>
<path d="M346.188 54.8332L346.049 54.2772C346.738 54.0993 347.161 54.0215 347.161 54.0215L347.261 54.5775C347.261 54.5775 346.861 54.6609 346.188 54.8332Z" fill="#BEF856" fill-opacity="0.15"/>
<path d="M356.018 51.2413C354.6 46.8489 345.104 48.4279 346.955 54.1714C348.807 59.9149 357.436 55.6392 356.018 51.2413Z" fill="#BEF856" fill-opacity="0.15"/>
<path d="M341.79 49.4842C341.862 47.5549 344.542 46.0703 348.334 46.7542C352.126 47.4381 355.69 49.9957 355.69 49.9957C355.69 49.9957 351.948 52.2642 348.117 52.6812C344.286 53.0982 341.718 51.4079 341.79 49.4842Z" fill="#1F1F1F"/>
<path d="M355.69 49.9845C353.722 49.9845 351.759 49.9289 349.796 49.8677C347.834 49.8065 345.865 49.7065 343.903 49.5508C345.871 49.5508 347.839 49.6008 349.802 49.662C351.765 49.7231 353.733 49.8232 355.69 49.9845Z" fill="#BEF856" fill-opacity="0.15"/>
<path d="M345.599 47.7666C346.716 48.3011 347.77 48.9595 348.74 49.7293C348.181 49.4669 347.638 49.1698 347.116 48.8397C346.59 48.5119 346.083 48.1536 345.599 47.7666Z" fill="#BEF856" fill-opacity="0.15"/>
<path d="M350.753 49.8008C349.747 50.6159 348.656 51.3205 347.5 51.9025C348.511 51.0863 349.607 50.3817 350.769 49.8008H350.753Z" fill="#BEF856" fill-opacity="0.15"/>
<path d="M351.325 48.7168C351.886 48.9862 352.377 49.3821 352.76 49.8733C352.479 49.7409 352.216 49.5747 351.976 49.3784C351.734 49.1834 351.516 48.9614 351.325 48.7168Z" fill="#BEF856" fill-opacity="0.15"/>
<path d="M345.404 60.91C346.588 62.4334 349.63 62.0665 352.304 59.2976C354.978 56.5287 356.396 52.3643 356.396 52.3643C356.396 52.3643 352.015 52.6979 348.673 54.5883C345.332 56.4787 344.214 59.381 345.404 60.91Z" fill="#1F1F1F"/>
<path d="M356.396 52.3643C354.795 53.4763 353.238 54.7106 351.676 55.906C350.113 57.1014 348.584 58.3357 347.089 59.6089C348.69 58.4969 350.247 57.2682 351.803 56.0728C353.36 54.8774 354.878 53.6431 356.396 52.3643Z" fill="#BEF856" fill-opacity="0.15"/>
<path d="M349.491 60.048C349.788 59.5079 350.053 58.951 350.286 58.38C350.522 57.8074 350.723 57.2206 350.886 56.623C350.588 57.1627 350.322 57.7197 350.091 58.291C349.857 58.8645 349.656 59.4511 349.491 60.048Z" fill="#BEF856" fill-opacity="0.15"/>
<path d="M352.504 55.4002C351.203 55.3307 349.898 55.3996 348.612 55.606C349.26 55.6449 349.91 55.6449 350.558 55.606C351.21 55.5742 351.86 55.5055 352.504 55.4002Z" fill="#BEF856" fill-opacity="0.15"/>
<path d="M353.577 55.9508C353.726 55.6762 353.841 55.3851 353.922 55.0834C354.004 54.784 354.053 54.4763 354.066 54.166C353.771 54.7164 353.603 55.3266 353.577 55.9508Z" fill="#BEF856" fill-opacity="0.15"/>
<path d="M356.018 51.2408C355.704 51.3428 355.367 51.3492 355.049 51.2594C354.731 51.1696 354.447 50.9875 354.233 50.7363C354.019 50.485 353.884 50.1758 353.846 49.8479C353.808 49.52 353.868 49.1881 354.018 48.8942C354.169 48.6004 354.403 48.3577 354.691 48.1971C354.98 48.0365 355.309 47.965 355.638 47.9918C355.967 48.0187 356.281 48.1425 356.54 48.3477C356.798 48.553 356.99 48.8303 357.091 49.1447C357.226 49.5649 357.189 50.0215 356.988 50.4144C356.786 50.8073 356.438 51.1045 356.018 51.2408Z" fill="#B9F65B"/>
<path d="M357.041 54.4161C356.727 54.5177 356.39 54.5239 356.073 54.434C355.756 54.3441 355.472 54.1622 355.258 53.9111C355.044 53.6601 354.909 53.3512 354.871 53.0236C354.832 52.696 354.892 52.3644 355.042 52.0706C355.192 51.7769 355.426 51.5342 355.714 51.3732C356.001 51.2122 356.331 51.1403 356.659 51.1664C356.988 51.1925 357.302 51.3155 357.561 51.5198C357.82 51.7242 358.012 52.0007 358.114 52.3144C358.182 52.5229 358.208 52.7426 358.19 52.9611C358.173 53.1796 358.113 53.3925 358.013 53.5876C357.913 53.7828 357.776 53.9564 357.609 54.0986C357.443 54.2408 357.249 54.3486 357.041 54.4161Z" fill="#B9F65B"/>
<path d="M174.756 52.9977C174.49 55.5515 173.519 57.981 171.952 60.0152C170.385 62.0493 168.284 63.608 165.883 64.5174C163.482 65.4268 160.875 65.6511 158.354 65.1652C155.832 64.6793 153.496 63.5024 151.605 61.7658L144.671 62.7833L148.141 56.7896C147.347 54.8394 147.009 52.734 147.151 50.6333C147.293 48.5327 147.912 46.492 148.961 44.6664C150.009 42.8408 151.461 41.2782 153.204 40.0973C154.947 38.9165 156.936 38.1484 159.021 37.8514C161.105 37.5544 163.23 37.7364 165.233 38.3835C167.237 39.0306 169.066 40.1258 170.583 41.5859C172.1 43.0459 173.264 44.8325 173.988 46.8099C174.711 48.7873 174.974 50.9035 174.756 52.9977Z" fill="#1F211E"/>
<path d="M174.756 52.998C174.496 55.5504 173.533 57.9809 171.976 60.0203C171.216 61.0517 170.298 61.9578 169.258 62.7057C168.24 63.4817 167.116 64.1089 165.922 64.5683C164.726 65.0391 163.47 65.3386 162.191 65.4579C161.551 65.5153 160.908 65.5283 160.267 65.4969C159.623 65.4803 158.982 65.4134 158.349 65.2967C155.794 64.8265 153.42 63.6541 151.493 61.9107L151.655 61.9607L144.732 63.0226L144.226 63.1005L144.482 62.6557L147.929 56.6509V56.89C147.116 54.9037 146.77 52.757 146.919 50.6158C147.067 48.4746 147.706 46.3962 148.786 44.5412C149.864 42.6921 151.347 41.1107 153.122 39.9153C154.895 38.7358 156.912 37.973 159.022 37.6841C161.132 37.3952 163.28 37.5878 165.304 38.2473C167.308 38.9288 169.133 40.0496 170.648 41.5277C172.158 43.0021 173.314 44.8012 174.026 46.7886C174.738 48.7761 174.987 50.8996 174.756 52.998ZM174.756 52.998C174.981 50.9099 174.723 48.7981 174.002 46.8257C173.281 44.8533 172.116 43.0729 170.597 41.6221C169.079 40.1714 167.247 39.089 165.244 38.4585C163.241 37.828 161.119 37.6664 159.044 37.986C156.989 38.2901 155.031 39.0624 153.323 40.2433C151.628 41.4335 150.213 42.9778 149.175 44.7692C148.153 46.5645 147.55 48.568 147.412 50.6294C147.277 52.7047 147.611 54.7839 148.391 56.7121L148.441 56.8344L148.374 56.9511L144.882 62.9337L144.638 62.5667L151.577 61.5937H151.671L151.738 61.6549C153.593 63.3813 155.891 64.5575 158.377 65.0521C158.996 65.1782 159.624 65.2545 160.256 65.28C160.887 65.3245 161.521 65.3245 162.152 65.28C163.418 65.178 164.664 64.903 165.855 64.4627C167.049 64.028 168.173 63.4211 169.191 62.6612C170.227 61.9193 171.146 61.0252 171.915 60.0091C173.492 57.9797 174.476 55.5527 174.756 52.998Z" fill="#263238"/>
<path d="M154.201 58.0182C154.19 57.8341 154.218 57.6498 154.281 57.4767C154.345 57.3036 154.443 57.1454 154.57 57.0119C154.698 56.8785 154.851 56.7726 155.021 56.7008C155.19 56.6291 155.373 56.593 155.558 56.5948C155.935 56.5948 156.297 56.7448 156.564 57.0117C156.831 57.2786 156.981 57.6407 156.981 58.0182C156.981 58.3957 156.831 58.7577 156.564 59.0246C156.297 59.2916 155.935 59.4415 155.558 59.4415C155.373 59.4434 155.19 59.4073 155.021 59.3355C154.851 59.2638 154.698 59.1579 154.57 59.0244C154.443 58.8909 154.345 58.7327 154.281 58.5596C154.218 58.3866 154.19 58.2022 154.201 58.0182ZM154.757 54.7322L154.435 43.7012H156.659L156.336 54.7322H154.757Z" fill="#B9F65B"/>
<path d="M159.489 58.0182C159.478 57.8346 159.505 57.6507 159.568 57.478C159.631 57.3053 159.729 57.1474 159.856 57.014C159.983 56.8806 160.135 56.7746 160.304 56.7025C160.474 56.6304 160.656 56.5937 160.84 56.5948C161.217 56.5948 161.579 56.7448 161.846 57.0117C162.113 57.2786 162.263 57.6407 162.263 58.0182C162.263 58.3957 162.113 58.7577 161.846 59.0246C161.579 59.2916 161.217 59.4415 160.84 59.4415C160.656 59.4426 160.474 59.406 160.304 59.3339C160.135 59.2618 159.983 59.1558 159.856 59.0224C159.729 58.889 159.631 58.731 159.568 58.5583C159.505 58.3856 159.478 58.2018 159.489 58.0182ZM160.045 54.7322L159.739 43.7012H161.963L161.64 54.7322H160.045Z" fill="#B9F65B"/>
<path d="M164.771 58.0182C164.76 57.8341 164.787 57.6498 164.851 57.4767C164.914 57.3036 165.013 57.1454 165.14 57.0119C165.267 56.8785 165.42 56.7726 165.59 56.7008C165.76 56.6291 165.943 56.593 166.127 56.5948C166.505 56.5948 166.867 56.7448 167.134 57.0117C167.401 57.2786 167.551 57.6407 167.551 58.0182C167.551 58.3957 167.401 58.7577 167.134 59.0246C166.867 59.2916 166.505 59.4415 166.127 59.4415C165.943 59.4434 165.76 59.4073 165.59 59.3355C165.42 59.2638 165.267 59.1579 165.14 59.0244C165.013 58.8909 164.914 58.7327 164.851 58.5596C164.787 58.3866 164.76 58.2022 164.771 58.0182ZM165.327 54.7322L165.004 43.7012H167.228L166.911 54.7322H165.327Z" fill="#B9F65B"/>
<defs>
<linearGradient id="paint0_linear_548_930" x1="154.814" y1="119.975" x2="219.245" y2="121.117" gradientUnits="userSpaceOnUse">
<stop stop-color="#86E591"/>
<stop offset="1" stop-color="#B9F65B"/>
</linearGradient>
<linearGradient id="paint1_linear_548_930" x1="176.681" y1="88.8481" x2="196.349" y2="89.878" gradientUnits="userSpaceOnUse">
<stop stop-color="#86E591"/>
<stop offset="1" stop-color="#B9F65B"/>
</linearGradient>
<linearGradient id="paint2_linear_548_930" x1="130.094" y1="124.34" x2="194.516" y2="125.525" gradientUnits="userSpaceOnUse">
<stop stop-color="#86E591"/>
<stop offset="1" stop-color="#B9F65B"/>
</linearGradient>
</defs>
</svg>
