<svg width="52" height="52" viewBox="0 0 52 52" fill="none" xmlns="http://www.w3.org/2000/svg">
<rect x="0.75" y="0.75" width="50.5" height="50.5" rx="7.25" fill="#191D13"/>
<rect x="0.75" y="0.75" width="50.5" height="50.5" rx="7.25" stroke="#191D13" stroke-width="1.5"/>
<path d="M25.9999 30.3092L21.9999 26.3092M25.9999 30.3092C27.8624 29.6009 29.6491 28.7075 31.3333 27.6426M25.9999 30.3092V36.9759C25.9999 36.9759 30.0399 36.2426 31.3333 34.3092C32.7733 32.1492 31.3333 27.6426 31.3333 27.6426M21.9999 26.3092C22.7094 24.4685 23.6029 22.704 24.6666 21.0426C26.2202 18.5586 28.3834 16.5133 30.9506 15.1014C33.5178 13.6894 36.4035 12.9577 39.3333 12.9759C39.3333 16.6026 38.2933 22.9759 31.3333 27.6426M21.9999 26.3092H15.3333C15.3333 26.3092 16.0666 22.2692 17.9999 20.9759C20.1599 19.5359 24.6666 20.9759 24.6666 20.9759M15.9999 32.3092C13.9999 33.9892 13.3333 38.9759 13.3333 38.9759C13.3333 38.9759 18.3199 38.3092 19.9999 36.3092C20.9466 35.1892 20.9333 33.4692 19.8799 32.4292C19.3617 31.9346 18.679 31.6488 17.9629 31.6266C17.2468 31.6045 16.5478 31.8476 15.9999 32.3092Z" stroke="white" stroke-width="2.1" stroke-linecap="round" stroke-linejoin="round"/>
</svg>
