<svg width="118" height="106" viewBox="0 0 118 106" fill="none" xmlns="http://www.w3.org/2000/svg">
<circle cx="40" cy="40" r="40" fill="#252724"/>
<path d="M91.5 44.1667C91.5 42.9953 91.0347 41.8719 90.2064 41.0436C89.3781 40.2153 88.2547 39.75 87.0833 39.75H35.8942L46.0525 29.6358C46.8842 28.8042 47.3514 27.6762 47.3514 26.5C47.3514 25.3238 46.8842 24.1958 46.0525 23.3642C45.2208 22.5325 44.0928 22.0653 42.9167 22.0653C41.7405 22.0653 40.6125 22.5325 39.7808 23.3642L22.1142 41.0308C21.5013 41.6519 21.0862 42.4406 20.9211 43.2974C20.756 44.1542 20.8484 45.0407 21.1867 45.845C21.518 46.6516 22.0807 47.342 22.8038 47.8293C23.5269 48.3166 24.378 48.579 25.25 48.5833H87.0833C88.2547 48.5833 89.3781 48.118 90.2064 47.2897C91.0347 46.4614 91.5 45.338 91.5 44.1667ZM108.813 60.155C108.482 59.3484 107.919 58.658 107.196 58.1707C106.473 57.6834 105.622 57.421 104.75 57.4167H42.9167C41.7453 57.4167 40.6219 57.882 39.7936 58.7103C38.9653 59.5386 38.5 60.662 38.5 61.8333C38.5 63.0047 38.9653 64.1281 39.7936 64.9564C40.6219 65.7847 41.7453 66.25 42.9167 66.25H94.1058L83.9475 76.3642C83.5335 76.7748 83.205 77.2632 82.9807 77.8014C82.7565 78.3397 82.6411 78.9169 82.6411 79.5C82.6411 80.083 82.7565 80.6603 82.9807 81.1985C83.205 81.7368 83.5335 82.2252 83.9475 82.6358C84.3581 83.0498 84.8466 83.3784 85.3848 83.6026C85.923 83.8268 86.5003 83.9423 87.0833 83.9423C87.6664 83.9423 88.2437 83.8268 88.7819 83.6026C89.3201 83.3784 89.8086 83.0498 90.2192 82.6358L107.886 64.9692C108.499 64.3481 108.914 63.5594 109.079 62.7026C109.244 61.8458 109.152 60.9593 108.813 60.155Z" fill="url(#paint0_linear_2_46)"/>
<defs>
<linearGradient id="paint0_linear_2_46" x1="22.5642" y1="30.3821" x2="51.9114" y2="30.914" gradientUnits="userSpaceOnUse">
<stop stop-color="#86E591"/>
<stop offset="1" stop-color="#B9F65B"/>
</linearGradient>
</defs>
</svg>
