<svg width="1680" height="4365" viewBox="0 0 1680 4365" fill="none" xmlns="http://www.w3.org/2000/svg">
<g clip-path="url(#clip0_0_51)">
<rect width="1680" height="4365" fill="white"/>
<g clip-path="url(#clip1_0_51)">
<g filter="url(#filter0_f_0_51)">
<path d="M1761.94 397.337C2157.71 381.716 2182.66 535.65 2086.56 809.37C2017.36 926.414 1753.02 444.383 1440.75 448.99C1128.48 453.597 1068.33 508.62 906.448 518.31C744.562 527.999 170.792 313.812 266.015 181.189C361.238 48.5659 534.635 -158.527 1009.9 152.043C1649.09 569.735 1366.17 412.959 1761.94 397.337Z" fill="url(#paint0_linear_0_51)"/>
</g>
<g filter="url(#filter1_f_0_51)">
<path d="M-14.262 2773.57C32.6457 3166.86 -118.829 3203.93 -399.298 3129.8C-521.454 3070.09 -61.8657 2768.41 -91.183 2457.48C-120.5 2146.56 -180.112 2090.96 -202.589 1930.35C-225.065 1769.74 -56.9793 1180.81 82.7667 1265.23C222.513 1349.66 442.684 1506.11 170.719 2004.48C-195.053 2674.73 -61.1698 2380.28 -14.262 2773.57Z" fill="url(#paint1_linear_0_51)"/>
</g>
<g filter="url(#filter2_f_0_51)">
<path d="M231.999 511.317C327.499 487.317 336.499 564.817 318.499 708.317C303.999 770.817 255.999 743.817 180.499 758.817C104.999 773.817 91.4993 804.317 52.4993 815.817C13.4993 827.317 -129.501 741.317 -109.001 669.817C-88.5006 598.317 -67.0006 645.817 70.4994 624.817C207.999 603.817 136.499 535.317 231.999 511.317Z" fill="url(#paint2_linear_0_51)"/>
</g>
<g filter="url(#filter3_f_0_51)">
<path d="M987.392 -57.0556C1085.85 -55.5206 1074.48 21.6681 1019.96 155.62C989.775 212.237 950.399 173.734 873.589 168.682C796.779 163.63 775.845 189.597 735.198 190.611C694.55 191.625 578.681 71.5442 616.988 7.78632C655.296 -55.9716 663.769 -4.5255 802.019 10.7777C940.269 26.0809 888.934 -58.5906 987.392 -57.0556Z" fill="url(#paint3_linear_0_51)"/>
</g>
<g filter="url(#filter4_f_0_51)">
<path d="M-71.9225 860.312C-70.7048 783.944 -10.9158 792.737 92.8308 834.991C136.679 858.385 106.842 888.938 102.906 948.515C98.9707 1008.09 119.079 1024.32 119.853 1055.85C120.627 1087.38 27.5753 1177.28 -21.802 1147.59C-71.1794 1117.9 -31.3255 1111.31 -19.431 1004.07C-7.53655 896.838 -73.1402 936.679 -71.9225 860.312Z" fill="url(#paint4_linear_0_51)"/>
</g>
<g filter="url(#filter5_f_0_51)">
<path d="M959.015 1672.32C1054.51 1648.32 1063.51 1725.82 1045.51 1869.32C1031.01 1931.82 983.015 1904.82 907.515 1919.82C832.015 1934.82 818.515 1965.32 779.515 1976.82C740.515 1988.32 597.515 1902.32 618.015 1830.82C638.515 1759.32 660.015 1806.82 797.515 1785.82C935.015 1764.82 863.515 1696.32 959.015 1672.32Z" fill="url(#paint5_linear_0_51)"/>
</g>
<g filter="url(#filter6_f_0_51)">
<path d="M1649.06 1936.97C1593.56 1544.8 1744.19 1504.43 2026.21 1572.41C2149.65 1629.44 1696.76 1941.09 1732.87 2251.3C1768.98 2561.51 1829.79 2615.79 1855.77 2775.87C1881.76 2935.96 1726.59 3528.42 1585.03 3447.07C1443.47 3365.72 1219.93 3214.12 1480.94 2709.93C1831.97 2031.83 1704.55 2329.14 1649.06 1936.97Z" fill="url(#paint6_linear_0_51)"/>
</g>
<g filter="url(#filter7_f_0_51)">
<path d="M1442.7 3764.17C1347.74 3790.26 1337.05 3712.97 1351.91 3569.11C1365.04 3506.31 1413.62 3532.25 1488.77 3515.61C1563.93 3498.96 1576.76 3468.17 1615.5 3455.82C1654.23 3443.47 1799.08 3526.33 1780.15 3598.26C1761.22 3670.19 1738.68 3623.17 1601.68 3647.17C1464.67 3671.17 1537.65 3738.09 1442.7 3764.17Z" fill="url(#paint7_linear_0_51)"/>
</g>
<g filter="url(#filter8_f_0_51)">
<path d="M699.91 4348.93C601.442 4349.54 611.117 4272.13 662.703 4137.01C691.64 4079.75 731.848 4117.38 808.75 4120.75C885.652 4124.13 906.013 4097.71 946.629 4095.8C987.244 4093.9 1105.71 4211.42 1068.81 4276C1031.9 4340.58 1022.31 4289.33 883.755 4277.06C745.204 4264.78 798.377 4348.31 699.91 4348.93Z" fill="url(#paint8_linear_0_51)"/>
</g>
<g filter="url(#filter9_f_0_51)">
<path d="M690.47 2619.35C595.518 2645.43 584.826 2568.14 599.684 2424.28C612.814 2361.48 661.393 2387.43 736.547 2370.78C811.701 2354.13 824.531 2323.34 863.27 2310.99C902.009 2298.64 1046.86 2381.5 1027.92 2453.43C1008.99 2525.36 986.458 2478.34 849.45 2502.34C712.442 2526.34 785.423 2593.26 690.47 2619.35Z" fill="url(#paint9_linear_0_51)"/>
</g>
<g filter="url(#filter10_f_0_51)">
<path d="M1714.41 1103.94C1812.86 1105.48 1801.5 1182.67 1746.97 1316.62C1716.79 1373.24 1677.41 1334.73 1600.6 1329.68C1523.79 1324.63 1502.86 1350.6 1462.21 1351.61C1421.57 1352.62 1305.7 1232.54 1344 1168.79C1382.31 1105.03 1390.78 1156.47 1529.03 1171.78C1667.28 1187.08 1615.95 1102.41 1714.41 1103.94Z" fill="url(#paint10_linear_0_51)"/>
</g>
<g filter="url(#filter11_f_0_51)">
<path d="M655.093 2021.31C656.311 1944.94 716.1 1953.74 819.846 1995.99C863.695 2019.39 833.858 2049.94 829.922 2109.52C825.986 2169.09 846.095 2185.32 846.869 2216.85C847.642 2248.38 754.591 2338.28 705.214 2308.59C655.836 2278.9 695.69 2272.31 707.585 2165.07C719.479 2057.84 653.876 2097.68 655.093 2021.31Z" fill="url(#paint11_linear_0_51)"/>
</g>
<g filter="url(#filter12_f_0_51)">
<ellipse cx="770.373" cy="557.73" rx="404.609" ry="136.755" transform="rotate(25.1473 770.373 557.73)" fill="url(#paint12_linear_0_51)" fill-opacity="0.75"/>
</g>
<g filter="url(#filter13_f_0_51)">
<ellipse cx="1211.37" cy="1127.73" rx="404.609" ry="136.755" transform="rotate(25.1473 1211.37 1127.73)" fill="url(#paint13_linear_0_51)" fill-opacity="0.75"/>
</g>
<g filter="url(#filter14_b_0_51)">
<rect x="-0.000610352" width="1680" height="4365" fill="#F4FAFB" fill-opacity="0.54"/>
</g>
</g>
<g filter="url(#filter15_f_0_51)">
<path d="M-1076 3660.95C-1076 3409.6 -1026.52 3160.72 -930.389 2928.51C-834.257 2696.3 -693.354 2485.31 -515.725 2307.58C-338.096 2129.86 -127.22 1988.88 104.864 1892.69C336.947 1796.51 585.693 1747 836.898 1747C1088.1 1747 1336.85 1796.51 1568.93 1892.69C1801.02 1988.88 2011.89 2129.86 2189.52 2307.58C2367.15 2485.31 2508.05 2696.3 2604.19 2928.51C2700.32 3160.72 2749.8 3409.6 2749.8 3660.94L2662.35 3660.94C2662.35 3421.09 2615.13 3183.59 2523.39 2961.99C2431.66 2740.4 2297.19 2539.05 2127.69 2369.45C1958.18 2199.85 1756.94 2065.31 1535.47 1973.53C1313.99 1881.74 1076.62 1834.5 836.898 1834.5C597.176 1834.5 359.802 1881.74 138.329 1973.53C-83.1453 2065.31 -284.381 2199.85 -453.89 2369.45C-623.399 2539.05 -757.861 2740.4 -849.598 2961.99C-941.335 3183.59 -988.552 3421.09 -988.552 3660.95L-1076 3660.95Z" fill="url(#paint14_linear_0_51)"/>
</g>
<g opacity="0.85" filter="url(#filter16_f_0_51)">
<path d="M-1069 3757.95C-1069 3506.6 -1019.52 3257.72 -923.389 3025.51C-827.257 2793.3 -686.354 2582.31 -508.725 2404.58C-331.096 2226.86 -120.22 2085.88 111.864 1989.69C343.947 1893.51 592.693 1844 843.898 1844C1095.1 1844 1343.85 1893.51 1575.93 1989.69C1808.02 2085.88 2018.89 2226.86 2196.52 2404.58C2374.15 2582.31 2515.05 2793.3 2611.19 3025.51C2707.32 3257.72 2756.8 3506.6 2756.8 3757.95L2669.35 3757.95C2669.35 3518.09 2622.13 3280.59 2530.39 3058.99C2438.66 2837.4 2304.19 2636.05 2134.69 2466.45C1965.18 2296.85 1763.94 2162.31 1542.47 2070.53C1320.99 1978.74 1083.62 1931.5 843.898 1931.5C604.176 1931.5 366.802 1978.74 145.329 2070.53C-76.1453 2162.31 -277.381 2296.85 -446.89 2466.45C-616.399 2636.05 -750.861 2837.4 -842.598 3058.99C-934.335 3280.59 -981.552 3518.09 -981.552 3757.95L-1069 3757.95Z" fill="#36C154"/>
</g>
</g>
<defs>
<filter id="filter0_f_0_51" x="4.64972" y="-261.037" width="2379.75" height="1339.51" filterUnits="userSpaceOnUse" color-interpolation-filters="sRGB">
<feFlood flood-opacity="0" result="BackgroundImageFix"/>
<feBlend mode="normal" in="SourceGraphic" in2="BackgroundImageFix" result="shape"/>
<feGaussianBlur stdDeviation="125.386" result="effect1_foregroundBlur_0_51"/>
</filter>
<filter id="filter1_f_0_51" x="-670.772" y="1006.23" width="1221.53" height="2405.31" filterUnits="userSpaceOnUse" color-interpolation-filters="sRGB">
<feFlood flood-opacity="0" result="BackgroundImageFix"/>
<feBlend mode="normal" in="SourceGraphic" in2="BackgroundImageFix" result="shape"/>
<feGaussianBlur stdDeviation="125.386" result="effect1_foregroundBlur_0_51"/>
</filter>
<filter id="filter2_f_0_51" x="-411" y="207" width="1037.02" height="909.858" filterUnits="userSpaceOnUse" color-interpolation-filters="sRGB">
<feFlood flood-opacity="0" result="BackgroundImageFix"/>
<feBlend mode="normal" in="SourceGraphic" in2="BackgroundImageFix" result="shape"/>
<feGaussianBlur stdDeviation="150" result="effect1_foregroundBlur_0_51"/>
</filter>
<filter id="filter3_f_0_51" x="309.335" y="-357.076" width="1051.99" height="847.693" filterUnits="userSpaceOnUse" color-interpolation-filters="sRGB">
<feFlood flood-opacity="0" result="BackgroundImageFix"/>
<feBlend mode="normal" in="SourceGraphic" in2="BackgroundImageFix" result="shape"/>
<feGaussianBlur stdDeviation="150" result="effect1_foregroundBlur_0_51"/>
</filter>
<filter id="filter4_f_0_51" x="-371.939" y="502.95" width="791.797" height="950.568" filterUnits="userSpaceOnUse" color-interpolation-filters="sRGB">
<feFlood flood-opacity="0" result="BackgroundImageFix"/>
<feBlend mode="normal" in="SourceGraphic" in2="BackgroundImageFix" result="shape"/>
<feGaussianBlur stdDeviation="150" result="effect1_foregroundBlur_0_51"/>
</filter>
<filter id="filter5_f_0_51" x="316.016" y="1368" width="1037.02" height="909.858" filterUnits="userSpaceOnUse" color-interpolation-filters="sRGB">
<feFlood flood-opacity="0" result="BackgroundImageFix"/>
<feBlend mode="normal" in="SourceGraphic" in2="BackgroundImageFix" result="shape"/>
<feGaussianBlur stdDeviation="150" result="effect1_foregroundBlur_0_51"/>
</filter>
<filter id="filter6_f_0_51" x="1109.69" y="1294.76" width="1188.68" height="2410.71" filterUnits="userSpaceOnUse" color-interpolation-filters="sRGB">
<feFlood flood-opacity="0" result="BackgroundImageFix"/>
<feBlend mode="normal" in="SourceGraphic" in2="BackgroundImageFix" result="shape"/>
<feGaussianBlur stdDeviation="125.386" result="effect1_foregroundBlur_0_51"/>
</filter>
<filter id="filter7_f_0_51" x="1046.43" y="3154.59" width="1035.42" height="914.596" filterUnits="userSpaceOnUse" color-interpolation-filters="sRGB">
<feFlood flood-opacity="0" result="BackgroundImageFix"/>
<feBlend mode="normal" in="SourceGraphic" in2="BackgroundImageFix" result="shape"/>
<feGaussianBlur stdDeviation="150" result="effect1_foregroundBlur_0_51"/>
</filter>
<filter id="filter8_f_0_51" x="324.556" y="3795.78" width="1051.28" height="853.147" filterUnits="userSpaceOnUse" color-interpolation-filters="sRGB">
<feFlood flood-opacity="0" result="BackgroundImageFix"/>
<feBlend mode="normal" in="SourceGraphic" in2="BackgroundImageFix" result="shape"/>
<feGaussianBlur stdDeviation="150" result="effect1_foregroundBlur_0_51"/>
</filter>
<filter id="filter9_f_0_51" x="294.201" y="2009.76" width="1035.42" height="914.596" filterUnits="userSpaceOnUse" color-interpolation-filters="sRGB">
<feFlood flood-opacity="0" result="BackgroundImageFix"/>
<feBlend mode="normal" in="SourceGraphic" in2="BackgroundImageFix" result="shape"/>
<feGaussianBlur stdDeviation="150" result="effect1_foregroundBlur_0_51"/>
</filter>
<filter id="filter10_f_0_51" x="1036.35" y="803.924" width="1051.99" height="847.693" filterUnits="userSpaceOnUse" color-interpolation-filters="sRGB">
<feFlood flood-opacity="0" result="BackgroundImageFix"/>
<feBlend mode="normal" in="SourceGraphic" in2="BackgroundImageFix" result="shape"/>
<feGaussianBlur stdDeviation="150" result="effect1_foregroundBlur_0_51"/>
</filter>
<filter id="filter11_f_0_51" x="355.076" y="1663.95" width="791.797" height="950.568" filterUnits="userSpaceOnUse" color-interpolation-filters="sRGB">
<feFlood flood-opacity="0" result="BackgroundImageFix"/>
<feBlend mode="normal" in="SourceGraphic" in2="BackgroundImageFix" result="shape"/>
<feGaussianBlur stdDeviation="150" result="effect1_foregroundBlur_0_51"/>
</filter>
<filter id="filter12_f_0_51" x="99.4774" y="45.8486" width="1341.79" height="1023.76" filterUnits="userSpaceOnUse" color-interpolation-filters="sRGB">
<feFlood flood-opacity="0" result="BackgroundImageFix"/>
<feBlend mode="normal" in="SourceGraphic" in2="BackgroundImageFix" result="shape"/>
<feGaussianBlur stdDeviation="150" result="effect1_foregroundBlur_0_51"/>
</filter>
<filter id="filter13_f_0_51" x="540.477" y="615.849" width="1341.79" height="1023.76" filterUnits="userSpaceOnUse" color-interpolation-filters="sRGB">
<feFlood flood-opacity="0" result="BackgroundImageFix"/>
<feBlend mode="normal" in="SourceGraphic" in2="BackgroundImageFix" result="shape"/>
<feGaussianBlur stdDeviation="150" result="effect1_foregroundBlur_0_51"/>
</filter>
<filter id="filter14_b_0_51" x="-150.001" y="-150" width="1980" height="4665" filterUnits="userSpaceOnUse" color-interpolation-filters="sRGB">
<feFlood flood-opacity="0" result="BackgroundImageFix"/>
<feGaussianBlur in="BackgroundImageFix" stdDeviation="75"/>
<feComposite in2="SourceAlpha" operator="in" result="effect1_backgroundBlur_0_51"/>
<feBlend mode="normal" in="SourceGraphic" in2="effect1_backgroundBlur_0_51" result="shape"/>
</filter>
<filter id="filter15_f_0_51" x="-1212.3" y="1610.7" width="4098.4" height="2186.54" filterUnits="userSpaceOnUse" color-interpolation-filters="sRGB">
<feFlood flood-opacity="0" result="BackgroundImageFix"/>
<feBlend mode="normal" in="SourceGraphic" in2="BackgroundImageFix" result="shape"/>
<feGaussianBlur stdDeviation="68.15" result="effect1_foregroundBlur_0_51"/>
</filter>
<filter id="filter16_f_0_51" x="-1270.7" y="1642.3" width="4229.2" height="2317.34" filterUnits="userSpaceOnUse" color-interpolation-filters="sRGB">
<feFlood flood-opacity="0" result="BackgroundImageFix"/>
<feBlend mode="normal" in="SourceGraphic" in2="BackgroundImageFix" result="shape"/>
<feGaussianBlur stdDeviation="100.85" result="effect1_foregroundBlur_0_51"/>
</filter>
<linearGradient id="paint0_linear_0_51" x1="1887.25" y1="418.772" x2="780.948" y2="-408.59" gradientUnits="userSpaceOnUse">
<stop stop-color="#BBFF40"/>
<stop offset="1" stop-color="#CCFF72"/>
</linearGradient>
<linearGradient id="paint1_linear_0_51" x1="-25.7082" y1="2900.19" x2="711.465" y2="1731.85" gradientUnits="userSpaceOnUse">
<stop stop-color="#BBFF40"/>
<stop offset="1" stop-color="#CCFF72"/>
</linearGradient>
<linearGradient id="paint2_linear_0_51" x1="287.999" y1="725.317" x2="-76.0006" y2="616.317" gradientUnits="userSpaceOnUse">
<stop stop-color="#17FFE6"/>
<stop offset="1" stop-color="#00FFDF"/>
</linearGradient>
<linearGradient id="paint3_linear_0_51" x1="986.097" y1="164.146" x2="662.711" y2="-35.3497" gradientUnits="userSpaceOnUse">
<stop stop-color="#17FFE6"/>
<stop offset="1" stop-color="#00FFDF"/>
</linearGradient>
<linearGradient id="paint4_linear_0_51" x1="99.4259" y1="861.252" x2="-55.4099" y2="1112.01" gradientUnits="userSpaceOnUse">
<stop stop-color="#17FFE6"/>
<stop offset="1" stop-color="#00FFDF"/>
</linearGradient>
<linearGradient id="paint5_linear_0_51" x1="1015.01" y1="1886.32" x2="651.015" y2="1777.32" gradientUnits="userSpaceOnUse">
<stop stop-color="#17FFE6"/>
<stop offset="1" stop-color="#00FFDF"/>
</linearGradient>
<linearGradient id="paint6_linear_0_51" x1="1657.73" y1="1810.14" x2="946.28" y2="2994.31" gradientUnits="userSpaceOnUse">
<stop stop-color="#BBFF40"/>
<stop offset="1" stop-color="#CCFF72"/>
</linearGradient>
<linearGradient id="paint7_linear_0_51" x1="1382.03" y1="3551.45" x2="1748.33" y2="3652.46" gradientUnits="userSpaceOnUse">
<stop stop-color="#17FFE6"/>
<stop offset="1" stop-color="#00FFDF"/>
</linearGradient>
<linearGradient id="paint8_linear_0_51" x1="696.369" y1="4127.75" x2="1024.04" y2="4320.13" gradientUnits="userSpaceOnUse">
<stop stop-color="#17FFE6"/>
<stop offset="1" stop-color="#00FFDF"/>
</linearGradient>
<linearGradient id="paint9_linear_0_51" x1="629.805" y1="2406.62" x2="996.101" y2="2507.64" gradientUnits="userSpaceOnUse">
<stop stop-color="#17FFE6"/>
<stop offset="1" stop-color="#00FFDF"/>
</linearGradient>
<linearGradient id="paint10_linear_0_51" x1="1713.11" y1="1325.15" x2="1389.73" y2="1125.65" gradientUnits="userSpaceOnUse">
<stop stop-color="#17FFE6"/>
<stop offset="1" stop-color="#00FFDF"/>
</linearGradient>
<linearGradient id="paint11_linear_0_51" x1="826.442" y1="2022.25" x2="671.606" y2="2273.01" gradientUnits="userSpaceOnUse">
<stop stop-color="#17FFE6"/>
<stop offset="1" stop-color="#00FFDF"/>
</linearGradient>
<linearGradient id="paint12_linear_0_51" x1="935.914" y1="444.77" x2="918.191" y2="691.737" gradientUnits="userSpaceOnUse">
<stop stop-color="#038FDE"/>
<stop offset="1" stop-color="#0037A0"/>
</linearGradient>
<linearGradient id="paint13_linear_0_51" x1="1376.91" y1="1014.77" x2="1359.19" y2="1261.74" gradientUnits="userSpaceOnUse">
<stop stop-color="#038FDE"/>
<stop offset="1" stop-color="#0037A0"/>
</linearGradient>
<linearGradient id="paint14_linear_0_51" x1="2675.16" y1="5060.39" x2="1403.67" y2="5044.25" gradientUnits="userSpaceOnUse">
<stop stop-color="#00A223"/>
<stop offset="1" stop-color="#A4FF00"/>
</linearGradient>
<clipPath id="clip0_0_51">
<rect width="1680" height="4365" fill="white"/>
</clipPath>
<clipPath id="clip1_0_51">
<rect width="1680" height="4365" fill="white"/>
</clipPath>
</defs>
</svg>
