<svg width="1680" height="1074" viewBox="0 0 1680 1074" fill="none" xmlns="http://www.w3.org/2000/svg">
<g clip-path="url(#clip0_219_1090)">
<rect width="1680" height="1074" fill="white"/>
<g clip-path="url(#clip1_219_1090)">
<g filter="url(#filter0_f_219_1090)">
<path d="M1325.94 714.337C1721.71 698.716 1746.66 852.65 1650.56 1126.37C1581.36 1243.41 1317.02 761.383 1004.75 765.99C692.477 770.597 632.336 825.62 470.449 835.31C308.563 844.999 -265.207 630.812 -169.984 498.189C-74.7611 365.566 98.6361 158.473 573.902 469.043C1213.09 886.735 930.168 729.959 1325.94 714.337Z" fill="url(#paint0_linear_219_1090)"/>
</g>
<g filter="url(#filter1_f_219_1090)">
<path d="M231.999 511.317C327.499 487.317 336.499 564.817 318.499 708.317C303.999 770.817 255.999 743.817 180.499 758.817C104.999 773.817 91.4989 804.317 52.4989 815.817C13.4989 827.317 -129.501 741.317 -109.001 669.817C-88.5011 598.317 -67.0011 645.817 70.4989 624.817C207.999 603.817 136.499 535.317 231.999 511.317Z" fill="url(#paint1_linear_219_1090)"/>
</g>
<g filter="url(#filter2_f_219_1090)">
<path d="M987.392 -57.0558C1085.85 -55.5208 1074.48 21.6678 1019.96 155.619C989.775 212.237 950.399 173.734 873.589 168.682C796.779 163.63 775.845 189.596 735.198 190.611C694.55 191.625 578.681 71.544 616.988 7.78608C655.295 -55.9718 663.769 -4.52574 802.019 10.7774C940.269 26.0806 888.934 -58.5908 987.392 -57.0558Z" fill="url(#paint2_linear_219_1090)"/>
</g>
<g filter="url(#filter3_f_219_1090)">
<path d="M-71.9223 860.312C-70.7046 783.944 -10.9156 792.737 92.8309 834.991C136.68 858.385 106.842 888.938 102.907 948.515C98.9709 1008.09 119.079 1024.32 119.853 1055.85C120.627 1087.38 27.5755 1177.28 -21.8019 1147.59C-71.1793 1117.9 -31.3253 1111.31 -19.4309 1004.07C-7.53643 896.838 -73.14 936.679 -71.9223 860.312Z" fill="url(#paint3_linear_219_1090)"/>
</g>
<g filter="url(#filter4_f_219_1090)">
<ellipse cx="770.373" cy="557.73" rx="404.609" ry="136.755" transform="rotate(25.1473 770.373 557.73)" fill="url(#paint4_linear_219_1090)" fill-opacity="0.75"/>
</g>
<g filter="url(#filter5_b_219_1090)">
<rect x="-0.000488281" width="1680" height="1074" fill="white" fill-opacity="0.4"/>
</g>
</g>
<path d="M745.095 1188.69H784.8V1043.79H745.095V1188.69Z" fill="#D2F98C"/>
<path d="M765.431 1083.62C765.429 1083.62 765.427 1083.62 765.425 1083.62C764.787 1083.61 764.272 1083.09 764.275 1082.46L764.816 982.382C764.819 981.747 765.336 981.233 765.971 981.233C765.973 981.233 765.975 981.233 765.977 981.233C766.615 981.237 767.13 981.757 767.126 982.395L766.586 1082.47C766.583 1083.1 766.067 1083.62 765.431 1083.62Z" fill="#D2F98C"/>
<path d="M1022.08 1143.79C1022.08 1143.79 1022.08 1143.79 1022.07 1143.79C1021.44 1143.79 1020.92 1143.27 1020.92 1142.63L1021.46 1021.68C1021.47 1021.04 1021.98 1020.53 1022.62 1020.53C1022.62 1020.53 1022.62 1020.53 1022.62 1020.53C1023.26 1020.53 1023.78 1021.05 1023.77 1021.69L1023.23 1142.64C1023.23 1143.28 1022.72 1143.79 1022.08 1143.79Z" fill="#D2F98C"/>
<path d="M1001.74 1206.7H1041.45V1061.8H1001.74V1206.7Z" fill="#D2F98C"/>
<path d="M892.064 1144.41C892.062 1144.41 892.061 1144.41 892.059 1144.41C891.421 1144.41 890.906 1143.89 890.908 1143.25L891.583 989.744C891.586 989.109 892.103 988.594 892.738 988.594C892.74 988.594 892.741 988.594 892.744 988.594C893.382 988.597 893.897 989.116 893.894 989.755L893.219 1143.26C893.217 1143.9 892.7 1144.41 892.064 1144.41Z" fill="#BCE692"/>
<path d="M873.011 1117.54H912.562V1030.64H873.011V1117.54Z" fill="#BCE692"/>
<path d="M808.95 1068.76H848.655V975.43H808.95V1068.76Z" fill="#D2F98C"/>
<path d="M828.058 1117.18C828.057 1117.18 828.054 1117.18 828.052 1117.18C827.414 1117.18 826.899 1116.66 826.902 1116.02L827.442 1008.17C827.446 1007.53 827.963 1007.02 828.598 1007.02C828.599 1007.02 828.601 1007.02 828.603 1007.02C829.242 1007.02 829.757 1007.54 829.753 1008.18L829.213 1116.03C829.21 1116.67 828.694 1117.18 828.058 1117.18Z" fill="#D2F98C"/>
<path d="M828.208 1052.31C828.207 1052.31 828.206 1052.31 828.205 1052.31C827.567 1052.31 827.051 1051.79 827.053 1051.15L827.728 814.152C827.729 813.515 828.247 813 828.883 813C828.884 813 828.885 813 828.886 813C829.525 813.002 830.04 813.52 830.039 814.159L829.364 1051.16C829.362 1051.8 828.845 1052.31 828.208 1052.31Z" fill="#BCE692"/>
<path d="M809.155 1030.69H848.706V889.062H809.155V1030.69Z" fill="#BCE692"/>
<path d="M618.613 1050.34H658.318V957.011H618.613V1050.34Z" fill="#D2F98C"/>
<path d="M637.721 1098.76C637.72 1098.76 637.717 1098.76 637.715 1098.76C637.077 1098.76 636.562 1098.24 636.565 1097.6L637.106 989.752C637.109 989.115 637.626 988.602 638.261 988.602C638.262 988.602 638.265 988.602 638.267 988.602C638.905 988.605 639.42 989.125 639.416 989.763L638.876 1097.61C638.874 1098.25 638.357 1098.76 637.721 1098.76Z" fill="#D2F98C"/>
<path d="M638.721 995.825C638.719 995.825 638.716 995.825 638.714 995.825C638.076 995.821 637.562 995.301 637.565 994.663L638.254 872.471C638.258 871.836 638.774 871.322 639.41 871.322C639.412 871.322 639.414 871.322 639.417 871.322C640.055 871.325 640.569 871.845 640.565 872.484L639.877 994.676C639.873 995.311 639.357 995.825 638.721 995.825Z" fill="#BCE692"/>
<path d="M618.46 974.202H658.369V905.026H618.46V974.202Z" fill="#BCE692"/>
<path d="M1149.1 1175.72C1149.1 1175.72 1149.1 1175.72 1149.1 1175.72C1148.46 1175.72 1147.94 1175.2 1147.95 1174.56L1148.63 1050.53C1148.64 1049.89 1149.15 1049.38 1149.79 1049.38C1149.79 1049.38 1149.79 1049.38 1149.8 1049.38C1150.43 1049.38 1150.95 1049.9 1150.95 1050.54L1150.26 1174.57C1150.25 1175.21 1149.74 1175.72 1149.1 1175.72Z" fill="#BCE692"/>
<path d="M744.482 1060.26H784.392V963.182H744.482V1060.26Z" fill="#B9D18B"/>
<path d="M763.515 1086.7C763.514 1086.7 763.512 1086.7 763.51 1086.7C762.872 1086.69 762.357 1086.17 762.359 1085.54L763.047 917.499C763.05 916.862 763.567 916.348 764.203 916.348C764.205 916.348 764.206 916.348 764.208 916.348C764.846 916.35 765.361 916.87 765.359 917.508L764.671 1085.54C764.668 1086.18 764.151 1086.7 763.515 1086.7Z" fill="#B9D18B"/>
<path d="M618 1141.72H657.909V1050.9H618V1141.72Z" fill="#B9D18B"/>
<path d="M637.034 1166.51C637.032 1166.51 637.031 1166.51 637.028 1166.51C636.39 1166.51 635.875 1165.99 635.878 1165.35L636.566 1008.17C636.569 1007.53 637.086 1007.02 637.721 1007.02C637.723 1007.02 637.725 1007.02 637.726 1007.02C638.365 1007.02 638.879 1007.54 638.877 1008.18L638.189 1165.36C638.186 1166 637.67 1166.51 637.034 1166.51Z" fill="#B9D18B"/>
<path d="M680.628 1158.91H720.537V1068.1H680.628V1158.91Z" fill="#B9D18B"/>
<path d="M699.661 1183.71C699.659 1183.71 699.657 1183.71 699.655 1183.71C699.017 1183.7 698.502 1183.18 698.505 1182.55L699.193 1025.36C699.195 1024.73 699.713 1024.21 700.348 1024.21C700.35 1024.21 700.352 1024.21 700.353 1024.21C700.991 1024.22 701.506 1024.74 701.504 1025.37L700.816 1182.55C700.813 1183.19 700.297 1183.71 699.661 1183.71Z" fill="#B9D18B"/>
<path d="M956.718 1191.07C956.717 1191.07 956.715 1191.07 956.713 1191.07C956.075 1191.07 955.56 1190.55 955.563 1189.91L956.251 1032.73C956.254 1032.09 956.771 1031.58 957.407 1031.58C957.408 1031.58 957.41 1031.58 957.412 1031.58C958.05 1031.58 958.565 1032.1 958.563 1032.74L957.874 1189.92C957.871 1190.56 957.354 1191.07 956.718 1191.07Z" fill="#B9D18B"/>
<path d="M1083.2 1204.58C1083.2 1204.58 1083.2 1204.58 1083.19 1204.58C1082.56 1204.58 1082.04 1204.06 1082.04 1203.42L1082.73 1046.24C1082.74 1045.6 1083.25 1045.09 1083.89 1045.09C1083.89 1045.09 1083.89 1045.09 1083.89 1045.09C1084.53 1045.09 1085.05 1045.61 1085.04 1046.25L1084.35 1203.43C1084.35 1204.07 1083.84 1204.58 1083.2 1204.58Z" fill="#B9D18B"/>
<path d="M1128.02 1109.79H1167.93V1018.98H1128.02V1109.79Z" fill="#B9D18B"/>
<path d="M1147.06 1134.59C1147.05 1134.59 1147.05 1134.59 1147.05 1134.59C1146.41 1134.58 1145.9 1134.06 1145.9 1133.43L1146.59 976.245C1146.59 975.606 1147.1 975.077 1147.75 975.094C1148.39 975.096 1148.9 975.616 1148.9 976.254L1148.21 1133.44C1148.21 1134.07 1147.69 1134.59 1147.06 1134.59Z" fill="#B9D18B"/>
<path d="M530.164 1202.07H569.869V1057.17H530.164V1202.07Z" fill="#D2F98C"/>
<path d="M464.672 1211.89H504.377V1066.99H464.672V1211.89Z" fill="#D2F98C"/>
<path d="M402.454 1110.38H442.159V1017.05H402.454V1110.38Z" fill="#D2F98C"/>
<path d="M550.5 1097C550.498 1097 550.496 1097 550.494 1097C549.856 1096.99 549.342 1096.47 549.345 1095.83L549.885 995.761C549.888 995.125 550.405 994.612 551.04 994.612C551.042 994.612 551.044 994.612 551.046 994.612C551.685 994.615 552.199 995.135 552.196 995.774L551.656 1095.85C551.653 1096.48 551.136 1097 550.5 1097Z" fill="#D2F98C"/>
<path d="M18.0953 1097.69H57.8003L57.8003 952.788H18.0953L18.0953 1097.69Z" fill="#D2F98C"/>
<path d="M17.4816 1120.41H57.3911L57.3911 1024.01H17.4816L17.4816 1120.41Z" fill="#BCE692"/>
<path d="M37.7432 1146.74C37.7416 1146.74 37.74 1146.74 37.7379 1146.74C37.0997 1146.73 36.5848 1146.22 36.5874 1145.58L37.2759 991.457C37.2786 990.818 37.7814 990.335 38.4364 990.307C39.0745 990.31 39.5895 990.829 39.5869 991.468L38.8984 1145.59C38.8958 1146.22 38.3787 1146.74 37.7432 1146.74Z" fill="#BCE692"/>
<path d="M38.4312 992.618C38.4291 992.618 38.427 992.618 38.4249 992.618C37.7867 992.615 37.2723 992.095 37.2754 991.456L37.8155 891.382C37.8192 890.747 38.3357 890.233 38.9707 890.233C38.9728 890.233 38.9749 890.233 38.977 890.233C39.6152 890.237 40.1296 890.757 40.1265 891.395L39.5863 991.47C39.5832 992.105 39.0667 992.618 38.4312 992.618Z" fill="#D2F98C"/>
<path d="M421.562 1158.8C421.56 1158.8 421.558 1158.8 421.556 1158.8C420.918 1158.8 420.403 1158.28 420.406 1157.64L420.946 1049.79C420.95 1049.16 421.467 1048.64 422.102 1048.64C422.103 1048.64 422.106 1048.64 422.107 1048.64C422.746 1048.65 423.26 1049.17 423.257 1049.8L422.717 1157.65C422.714 1158.29 422.198 1158.8 421.562 1158.8Z" fill="#D2F98C"/>
<path d="M145.806 1094.62H185.511V1018.49H145.806V1094.62Z" fill="#D2F98C"/>
<path d="M164.914 1147.75C164.912 1147.75 164.91 1147.75 164.908 1147.75C164.27 1147.75 163.755 1147.23 163.758 1146.59L164.298 1038.74C164.301 1038.1 164.818 1037.59 165.453 1037.59C165.455 1037.59 165.457 1037.59 165.459 1037.59C166.097 1037.59 166.612 1038.12 166.609 1038.75L166.069 1146.6C166.066 1147.24 165.549 1147.75 164.914 1147.75Z" fill="#D2F98C"/>
<path d="M295.08 1052.79C295.078 1052.79 295.076 1052.79 295.074 1052.79C294.436 1052.79 293.921 1052.27 293.924 1051.63L294.464 930.679C294.467 930.042 294.984 929.529 295.619 929.529C295.621 929.529 295.622 929.529 295.624 929.529C296.263 929.532 296.778 930.051 296.775 930.69L296.235 1051.64C296.232 1052.28 295.715 1052.79 295.08 1052.79Z" fill="#D2F98C"/>
<path d="M274.744 1115.7H314.449V970.798H274.744V1115.7Z" fill="#D2F98C"/>
<path d="M291.396 1146.12C291.394 1146.12 291.393 1146.12 291.391 1146.12C290.753 1146.11 290.238 1145.59 290.24 1144.95L290.78 1024C290.783 1023.37 291.3 1022.85 291.936 1022.85C291.938 1022.85 291.939 1022.85 291.941 1022.85C292.58 1022.86 293.094 1023.38 293.092 1024.02L292.552 1144.97C292.549 1145.6 292.032 1146.12 291.396 1146.12Z" fill="#D2F98C"/>
<path d="M464.468 1110.38H504.378V1041.2H464.468V1110.38Z" fill="#BCE692"/>
<path d="M483.501 1163.93C483.5 1163.93 483.498 1163.93 483.496 1163.93C482.858 1163.93 482.343 1163.41 482.346 1162.77L483.034 1008.65C483.036 1008.01 483.553 1007.5 484.189 1007.5C484.19 1007.5 484.192 1007.5 484.194 1007.5C484.832 1007.5 485.347 1008.02 485.345 1008.66L484.657 1162.78C484.654 1163.41 484.137 1163.93 483.501 1163.93Z" fill="#BCE692"/>
<path d="M529.551 1062.49H569.461V993.311H529.551V1062.49Z" fill="#B9D18B"/>
<path d="M548.584 1081.65C548.582 1081.65 548.58 1081.65 548.578 1081.65C547.939 1081.65 547.426 1081.13 547.429 1080.49L548.117 960.756C548.121 960.121 548.637 959.607 549.272 959.607C549.274 959.607 549.277 959.607 549.279 959.607C549.917 959.611 550.431 960.131 550.428 960.769L549.74 1080.5C549.736 1081.14 549.22 1081.65 548.584 1081.65Z" fill="#B9D18B"/>
<path d="M294.392 1226.15C294.39 1226.15 294.389 1226.15 294.387 1226.15C293.749 1226.14 293.234 1225.62 293.236 1224.99L293.924 1061.45C293.927 1060.82 294.444 1060.3 295.08 1060.3C295.081 1060.3 295.083 1060.3 295.085 1060.3C295.723 1060.3 296.238 1060.82 296.235 1061.46L295.547 1225C295.545 1225.63 295.028 1226.15 294.392 1226.15Z" fill="#BCE692"/>
<path d="M337.985 1137.6H377.895V1041.2H337.985V1137.6Z" fill="#BCE692"/>
<path d="M358.248 1163.93C358.246 1163.93 358.244 1163.93 358.242 1163.93C357.604 1163.93 357.089 1163.41 357.092 1162.77L357.78 1008.65C357.782 1008.01 358.299 1007.5 358.936 1007.5C358.937 1007.5 358.939 1007.5 358.941 1007.5C359.579 1007.5 360.094 1008.02 360.091 1008.66L359.403 1162.78C359.4 1163.41 358.883 1163.93 358.248 1163.93Z" fill="#BCE692"/>
<path d="M401.841 1061.26H441.75V992.083H401.841V1061.26Z" fill="#BCE692"/>
<path d="M165.064 1053.41C165.062 1053.41 165.061 1053.41 165.059 1053.41C164.421 1053.41 163.906 1052.89 163.908 1052.25L164.583 898.744C164.586 898.109 165.103 897.594 165.738 897.594C165.74 897.594 165.741 897.594 165.744 897.594C166.382 897.597 166.897 898.116 166.894 898.755L166.219 1052.26C166.217 1052.9 165.7 1053.41 165.064 1053.41Z" fill="#BCE692"/>
<path d="M146.011 1026.54H185.562V939.64H146.011V1026.54Z" fill="#BCE692"/>
<path d="M81.9503 977.757H121.655L121.655 884.43H81.9503L81.9503 977.757Z" fill="#D2F98C"/>
<path d="M101.058 1026.18C101.057 1026.18 101.054 1026.18 101.052 1026.18C100.414 1026.18 99.8992 1025.66 99.9024 1025.02L100.442 917.171C100.446 916.534 100.963 916.021 101.598 916.021C101.599 916.021 101.601 916.021 101.603 916.021C102.242 916.024 102.757 916.544 102.753 917.182L102.213 1025.03C102.21 1025.67 101.694 1026.18 101.058 1026.18Z" fill="#D2F98C"/>
<path d="M101.208 961.312C101.207 961.312 101.206 961.312 101.205 961.312C100.567 961.309 100.051 960.791 100.053 960.153L100.728 723.152C100.729 722.515 101.247 722 101.883 722C101.884 722 101.885 722 101.886 722C102.525 722.002 103.04 722.52 103.039 723.159L102.364 960.159C102.362 960.796 101.845 961.312 101.208 961.312Z" fill="#BCE692"/>
<path d="M82.1548 939.689H121.706L121.706 798.062H82.1548L82.1548 939.689Z" fill="#BCE692"/>
<path d="M230.997 1144.28C230.995 1144.28 230.992 1144.28 230.99 1144.28C230.352 1144.28 229.838 1143.76 229.841 1143.12L230.529 1020.93C230.534 1020.29 231.11 1019.77 231.691 1019.78C232.33 1019.78 232.843 1020.3 232.84 1020.94L232.152 1143.13C232.149 1143.77 231.632 1144.28 230.997 1144.28Z" fill="#BCE692"/>
<path d="M210.735 1122.66H250.645V1053.48H210.735V1122.66Z" fill="#BCE692"/>
<path d="M422.102 1084.72C422.1 1084.72 422.098 1084.72 422.096 1084.72C421.458 1084.72 420.943 1084.2 420.946 1083.56L421.635 959.528C421.638 958.893 422.155 958.379 422.79 958.379C422.792 958.379 422.794 958.379 422.796 958.379C423.434 958.382 423.949 958.902 423.946 959.541L423.257 1083.57C423.254 1084.21 422.738 1084.72 422.102 1084.72Z" fill="#BCE692"/>
<path d="M81.3376 1153.11H121.247L121.247 1073.52H81.3376V1153.11Z" fill="#B9D18B"/>
<path d="M100.371 1174.98C100.369 1174.98 100.366 1174.98 100.365 1174.98C99.7266 1174.98 99.2117 1174.46 99.2149 1173.82L99.9034 1036.07C99.9065 1035.44 100.424 1034.92 101.059 1034.92C101.06 1034.92 101.063 1034.92 101.064 1034.92C101.703 1034.93 102.217 1035.45 102.214 1036.08L101.526 1173.83C101.523 1174.47 101.006 1174.98 100.371 1174.98Z" fill="#B9D18B"/>
<path d="M17.4826 969.263H57.3921L57.3921 872.182H17.4826L17.4826 969.263Z" fill="#B9D18B"/>
<path d="M36.5151 995.695C36.5135 995.695 36.5125 995.695 36.5104 995.695C35.8722 995.693 35.3568 995.173 35.3594 994.535L36.0474 826.499C36.05 825.862 36.567 825.348 37.2031 825.348C37.2047 825.348 37.2057 825.348 37.2078 825.348C37.846 825.35 38.3615 825.87 38.3589 826.508L37.6709 994.544C37.6682 995.18 37.1512 995.695 36.5151 995.695Z" fill="#B9D18B"/>
<path d="M210.685 1075.27H250.595V984.463H210.685V1075.27Z" fill="#B9D18B"/>
<path d="M229.718 1100.07C229.717 1100.07 229.715 1100.07 229.713 1100.07C229.075 1100.07 228.56 1099.55 228.563 1098.91L229.251 941.731C229.254 941.094 229.771 940.58 230.407 940.58C230.408 940.58 230.41 940.58 230.412 940.58C231.05 940.582 231.565 941.102 231.563 941.74L230.874 1098.92C230.871 1099.56 230.354 1100.07 229.718 1100.07Z" fill="#B9D18B"/>
<path d="M337.168 1088.78H377.077V997.972H337.168V1088.78Z" fill="#B9D18B"/>
<path d="M356.2 1113.58C356.198 1113.58 356.197 1113.58 356.194 1113.58C355.556 1113.58 355.041 1113.06 355.044 1112.42L355.732 955.24C355.735 954.603 356.252 954.089 356.888 954.089C356.889 954.089 356.891 954.089 356.893 954.089C357.531 954.091 358.046 954.611 358.043 955.249L357.355 1112.43C357.352 1113.07 356.836 1113.58 356.2 1113.58Z" fill="#B9D18B"/>
<path d="M401.022 1018.79H440.932V927.977H401.022V1018.79Z" fill="#B9D18B"/>
<path d="M420.056 1043.59C420.055 1043.59 420.053 1043.59 420.051 1043.59C419.413 1043.58 418.898 1043.06 418.9 1042.43L419.588 885.245C419.59 884.606 420.101 884.077 420.749 884.094C421.387 884.096 421.902 884.616 421.899 885.254L421.211 1042.44C421.209 1043.07 420.692 1043.59 420.056 1043.59Z" fill="#B9D18B"/>
<path d="M483.911 1192.17C483.909 1192.17 483.907 1192.17 483.905 1192.17C483.267 1192.17 482.752 1191.65 482.755 1191.01L483.443 1046.52C483.446 1045.88 483.963 1045.37 484.599 1045.37C484.6 1045.37 484.602 1045.37 484.604 1045.37C485.243 1045.37 485.757 1045.89 485.754 1046.53L485.066 1191.02C485.063 1191.66 484.546 1192.17 483.911 1192.17Z" fill="#B9D18B"/>
<path d="M1506.03 1096.28H1466.37V951.537H1506.03V1096.28Z" fill="#D2F98C"/>
<path d="M1506.64 1118.97H1466.78V1022.68H1506.64V1118.97Z" fill="#BCE692"/>
<path d="M1486.41 1145.28C1486.41 1145.28 1486.41 1145.28 1486.41 1145.28C1487.05 1145.27 1487.56 1144.75 1487.56 1144.12L1486.87 990.164C1486.87 989.526 1486.37 989.043 1485.71 989.015C1485.08 989.018 1484.56 989.537 1484.56 990.175L1485.25 1144.13C1485.25 1144.76 1485.77 1145.28 1486.41 1145.28Z" fill="#BCE692"/>
<path d="M1485.72 991.323C1485.72 991.323 1485.72 991.323 1485.72 991.323C1486.36 991.32 1486.88 990.801 1486.87 990.163L1486.33 890.197C1486.33 889.563 1485.81 889.05 1485.18 889.05C1485.18 889.05 1485.17 889.05 1485.17 889.05C1484.53 889.053 1484.02 889.573 1484.02 890.211L1484.56 990.176C1484.57 990.811 1485.08 991.323 1485.72 991.323Z" fill="#D2F98C"/>
<path d="M1378.46 1093.21H1338.8V1017.16H1378.46V1093.21Z" fill="#D2F98C"/>
<path d="M1359.37 1146.29C1359.37 1146.29 1359.38 1146.29 1359.38 1146.29C1360.02 1146.29 1360.53 1145.77 1360.53 1145.13L1359.99 1037.4C1359.98 1036.76 1359.47 1036.25 1358.83 1036.25C1358.83 1036.25 1358.83 1036.25 1358.83 1036.25C1358.19 1036.25 1357.68 1036.77 1357.68 1037.41L1358.22 1145.14C1358.22 1145.78 1358.74 1146.29 1359.37 1146.29Z" fill="#D2F98C"/>
<path d="M1229.35 1051.43C1229.35 1051.43 1229.35 1051.43 1229.35 1051.43C1229.99 1051.43 1230.51 1050.91 1230.5 1050.27L1229.96 929.451C1229.96 928.816 1229.44 928.303 1228.81 928.303C1228.81 928.303 1228.81 928.303 1228.8 928.303C1228.17 928.306 1227.65 928.824 1227.65 929.462L1228.19 1050.28C1228.2 1050.92 1228.71 1051.43 1229.35 1051.43Z" fill="#D2F98C"/>
<path d="M1249.66 1114.27H1210V969.527H1249.66V1114.27Z" fill="#D2F98C"/>
<path d="M1233.03 1144.65C1233.03 1144.65 1233.03 1144.65 1233.03 1144.65C1233.67 1144.65 1234.19 1144.13 1234.18 1143.49L1233.64 1022.68C1233.64 1022.04 1233.12 1021.53 1232.49 1021.53C1232.49 1021.53 1232.49 1021.53 1232.48 1021.53C1231.85 1021.53 1231.33 1022.05 1231.33 1022.69L1231.87 1143.51C1231.88 1144.14 1232.39 1144.65 1233.03 1144.65Z" fill="#D2F98C"/>
<path d="M1230.03 1224.6C1230.04 1224.6 1230.04 1224.6 1230.04 1224.6C1230.68 1224.6 1231.19 1224.08 1231.19 1223.44L1230.5 1060.08C1230.5 1059.45 1229.98 1058.93 1229.35 1058.93C1229.35 1058.93 1229.35 1058.93 1229.34 1058.93C1228.71 1058.94 1228.19 1059.46 1228.19 1060.09L1228.88 1223.45C1228.88 1224.08 1229.4 1224.6 1230.03 1224.6Z" fill="#BCE692"/>
<path d="M1549.5 1083.32C1549.5 1083.32 1549.51 1083.32 1549.51 1083.32C1550.15 1083.32 1550.66 1082.8 1550.66 1082.16L1550.12 983.014C1550.11 982.377 1549.58 981.829 1548.96 981.867C1548.32 981.87 1547.81 982.389 1547.81 983.027L1548.35 1082.17C1548.35 1082.81 1548.87 1083.32 1549.5 1083.32Z" fill="#D2F98C"/>
<path d="M1569.82 1146.17H1530.16V1033.72H1569.82V1146.17Z" fill="#D2F98C"/>
<path d="M1359.22 1052.05C1359.22 1052.05 1359.23 1052.05 1359.23 1052.05C1359.87 1052.05 1360.38 1051.53 1360.38 1050.89L1359.7 897.551C1359.7 896.917 1359.18 896.402 1358.55 896.402C1358.55 896.402 1358.55 896.402 1358.54 896.402C1357.91 896.406 1357.39 896.924 1357.39 897.562L1358.07 1050.9C1358.07 1051.54 1358.59 1052.05 1359.22 1052.05Z" fill="#BCE692"/>
<path d="M1378.26 1025.21H1338.75V938.403H1378.26V1025.21Z" fill="#BCE692"/>
<path d="M1442.25 976.479H1402.58V883.254H1442.25V976.479Z" fill="#D2F98C"/>
<path d="M1423.16 1024.85C1423.16 1024.85 1423.16 1024.85 1423.16 1024.85C1423.8 1024.85 1424.32 1024.33 1424.31 1023.69L1423.77 915.958C1423.77 915.322 1423.25 914.81 1422.62 914.81C1422.62 914.81 1422.62 914.81 1422.61 914.81C1421.98 914.813 1421.46 915.332 1421.46 915.969L1422 1023.7C1422.01 1024.34 1422.52 1024.85 1423.16 1024.85Z" fill="#D2F98C"/>
<path d="M1423.01 960.051C1423.01 960.051 1423.01 960.051 1423.01 960.051C1423.65 960.049 1424.16 959.532 1424.16 958.894L1423.49 722.151C1423.49 721.515 1422.97 721 1422.33 721C1422.33 721 1422.33 721 1422.33 721C1421.69 721.002 1421.18 721.52 1421.18 722.158L1421.85 958.9C1421.86 959.536 1422.37 960.051 1423.01 960.051Z" fill="#BCE692"/>
<path d="M1442.04 938.453H1402.53V796.979H1442.04V938.453Z" fill="#BCE692"/>
<path d="M1293.36 1142.82C1293.36 1142.82 1293.37 1142.82 1293.37 1142.82C1294.01 1142.82 1294.52 1142.3 1294.52 1141.66L1293.83 1019.6C1293.82 1018.96 1293.25 1018.45 1292.67 1018.45C1292.03 1018.46 1291.52 1018.98 1291.52 1019.61L1292.21 1141.67C1292.21 1142.31 1292.73 1142.82 1293.36 1142.82Z" fill="#BCE692"/>
<path d="M1313.6 1121.22H1273.74V1052.12H1313.6V1121.22Z" fill="#BCE692"/>
<path d="M1632.38 958.079H1592.71V864.854H1632.38V958.079Z" fill="#D2F98C"/>
<path d="M1613.29 1006.45C1613.29 1006.45 1613.29 1006.45 1613.29 1006.45C1613.93 1006.45 1614.45 1005.93 1614.44 1005.29L1613.9 897.56C1613.9 896.924 1613.38 896.411 1612.75 896.411C1612.75 896.411 1612.75 896.411 1612.74 896.411C1612.11 896.414 1611.59 896.934 1611.6 897.571L1612.13 1005.3C1612.14 1005.94 1612.65 1006.45 1613.29 1006.45Z" fill="#D2F98C"/>
<path d="M1612.29 903.626C1612.29 903.626 1612.29 903.626 1612.3 903.626C1612.93 903.623 1613.45 903.103 1613.44 902.465L1612.76 780.406C1612.75 779.772 1612.24 779.258 1611.6 779.258C1611.6 779.258 1611.6 779.258 1611.6 779.258C1610.96 779.261 1610.44 779.781 1610.45 780.419L1611.14 902.478C1611.14 903.113 1611.65 903.626 1612.29 903.626Z" fill="#BCE692"/>
<path d="M1632.53 882.027H1592.66V812.926H1632.53V882.027Z" fill="#BCE692"/>
<path d="M1442.86 1151.64H1402.99V1072.14H1442.86V1151.64Z" fill="#B9D18B"/>
<path d="M1423.85 1173.49C1423.85 1173.49 1423.85 1173.49 1423.85 1173.49C1424.49 1173.48 1425 1172.96 1425 1172.33L1424.31 1034.73C1424.31 1034.1 1423.79 1033.58 1423.16 1033.58C1423.16 1033.58 1423.15 1033.58 1423.15 1033.58C1422.52 1033.59 1422 1034.11 1422 1034.74L1422.69 1172.34C1422.69 1172.97 1423.21 1173.49 1423.85 1173.49Z" fill="#B9D18B"/>
<path d="M1506.64 967.994H1466.78V871.018H1506.64V967.994Z" fill="#B9D18B"/>
<path d="M1487.63 994.398C1487.63 994.398 1487.63 994.398 1487.64 994.398C1488.27 994.396 1488.79 993.876 1488.79 993.239L1488.1 825.385C1488.1 824.749 1487.58 824.235 1486.94 824.235C1486.94 824.235 1486.94 824.235 1486.94 824.235C1486.3 824.237 1485.79 824.757 1485.79 825.394L1486.48 993.248C1486.48 993.883 1487 994.398 1487.63 994.398Z" fill="#B9D18B"/>
<path d="M1632.99 1049.36H1593.12V958.646H1632.99V1049.36Z" fill="#B9D18B"/>
<path d="M1613.98 1074.13C1613.98 1074.13 1613.98 1074.13 1613.98 1074.13C1614.62 1074.13 1615.13 1073.61 1615.13 1072.97L1614.44 915.959C1614.44 915.323 1613.92 914.809 1613.29 914.809C1613.29 914.809 1613.29 914.809 1613.28 914.809C1612.65 914.811 1612.13 915.331 1612.14 915.968L1612.82 1072.98C1612.83 1073.61 1613.34 1074.13 1613.98 1074.13Z" fill="#B9D18B"/>
<path d="M1570.43 1066.53H1530.56V975.819H1570.43V1066.53Z" fill="#B9D18B"/>
<path d="M1551.42 1091.3C1551.42 1091.3 1551.42 1091.3 1551.42 1091.3C1552.06 1091.3 1552.57 1090.78 1552.57 1090.14L1551.88 933.133C1551.88 932.497 1551.36 931.983 1550.73 931.983C1550.73 931.983 1550.73 931.983 1550.72 931.983C1550.09 931.985 1549.57 932.505 1549.58 933.142L1550.26 1090.15C1550.27 1090.79 1550.78 1091.3 1551.42 1091.3Z" fill="#B9D18B"/>
<path d="M1313.65 1073.89H1273.79V983.178H1313.65V1073.89Z" fill="#B9D18B"/>
<path d="M1294.64 1098.66C1294.64 1098.66 1294.64 1098.66 1294.64 1098.66C1295.28 1098.66 1295.8 1098.14 1295.79 1097.5L1295.11 940.492C1295.1 939.856 1294.59 939.342 1293.95 939.342C1293.95 939.342 1293.95 939.342 1293.95 939.342C1293.31 939.344 1292.79 939.864 1292.8 940.501L1293.48 1097.51C1293.49 1098.15 1294 1098.66 1294.64 1098.66Z" fill="#B9D18B"/>
</g>
<defs>
<filter id="filter0_f_219_1090" x="-431.35" y="55.9633" width="2379.75" height="1339.51" filterUnits="userSpaceOnUse" color-interpolation-filters="sRGB">
<feFlood flood-opacity="0" result="BackgroundImageFix"/>
<feBlend mode="normal" in="SourceGraphic" in2="BackgroundImageFix" result="shape"/>
<feGaussianBlur stdDeviation="125.386" result="effect1_foregroundBlur_219_1090"/>
</filter>
<filter id="filter1_f_219_1090" x="-411" y="207" width="1037.02" height="909.858" filterUnits="userSpaceOnUse" color-interpolation-filters="sRGB">
<feFlood flood-opacity="0" result="BackgroundImageFix"/>
<feBlend mode="normal" in="SourceGraphic" in2="BackgroundImageFix" result="shape"/>
<feGaussianBlur stdDeviation="150" result="effect1_foregroundBlur_219_1090"/>
</filter>
<filter id="filter2_f_219_1090" x="309.335" y="-357.077" width="1051.99" height="847.693" filterUnits="userSpaceOnUse" color-interpolation-filters="sRGB">
<feFlood flood-opacity="0" result="BackgroundImageFix"/>
<feBlend mode="normal" in="SourceGraphic" in2="BackgroundImageFix" result="shape"/>
<feGaussianBlur stdDeviation="150" result="effect1_foregroundBlur_219_1090"/>
</filter>
<filter id="filter3_f_219_1090" x="-371.939" y="502.95" width="791.796" height="950.568" filterUnits="userSpaceOnUse" color-interpolation-filters="sRGB">
<feFlood flood-opacity="0" result="BackgroundImageFix"/>
<feBlend mode="normal" in="SourceGraphic" in2="BackgroundImageFix" result="shape"/>
<feGaussianBlur stdDeviation="150" result="effect1_foregroundBlur_219_1090"/>
</filter>
<filter id="filter4_f_219_1090" x="99.4766" y="45.8486" width="1341.79" height="1023.76" filterUnits="userSpaceOnUse" color-interpolation-filters="sRGB">
<feFlood flood-opacity="0" result="BackgroundImageFix"/>
<feBlend mode="normal" in="SourceGraphic" in2="BackgroundImageFix" result="shape"/>
<feGaussianBlur stdDeviation="150" result="effect1_foregroundBlur_219_1090"/>
</filter>
<filter id="filter5_b_219_1090" x="-150" y="-150" width="1980" height="1374" filterUnits="userSpaceOnUse" color-interpolation-filters="sRGB">
<feFlood flood-opacity="0" result="BackgroundImageFix"/>
<feGaussianBlur in="BackgroundImageFix" stdDeviation="75"/>
<feComposite in2="SourceAlpha" operator="in" result="effect1_backgroundBlur_219_1090"/>
<feBlend mode="normal" in="SourceGraphic" in2="effect1_backgroundBlur_219_1090" result="shape"/>
</filter>
<linearGradient id="paint0_linear_219_1090" x1="1451.25" y1="735.772" x2="344.949" y2="-91.5903" gradientUnits="userSpaceOnUse">
<stop stop-color="#BBFF40"/>
<stop offset="1" stop-color="#CCFF72"/>
</linearGradient>
<linearGradient id="paint1_linear_219_1090" x1="287.999" y1="725.317" x2="-76.0011" y2="616.317" gradientUnits="userSpaceOnUse">
<stop stop-color="#17FFE6"/>
<stop offset="1" stop-color="#00FFDF"/>
</linearGradient>
<linearGradient id="paint2_linear_219_1090" x1="986.096" y1="164.146" x2="662.711" y2="-35.3499" gradientUnits="userSpaceOnUse">
<stop stop-color="#17FFE6"/>
<stop offset="1" stop-color="#00FFDF"/>
</linearGradient>
<linearGradient id="paint3_linear_219_1090" x1="99.426" y1="861.252" x2="-55.4098" y2="1112.01" gradientUnits="userSpaceOnUse">
<stop stop-color="#17FFE6"/>
<stop offset="1" stop-color="#00FFDF"/>
</linearGradient>
<linearGradient id="paint4_linear_219_1090" x1="935.914" y1="444.77" x2="918.191" y2="691.737" gradientUnits="userSpaceOnUse">
<stop stop-color="#038FDE"/>
<stop offset="1" stop-color="#0037A0"/>
</linearGradient>
<clipPath id="clip0_219_1090">
<rect width="1680" height="1074" fill="white"/>
</clipPath>
<clipPath id="clip1_219_1090">
<rect width="1680" height="1074" fill="white"/>
</clipPath>
</defs>
</svg>
