<svg width="1680" height="1074" viewBox="0 0 1680 1074" fill="none" xmlns="http://www.w3.org/2000/svg">
<g clip-path="url(#clip0_2_62)">
<rect width="1680" height="1074" fill="#A1B0BF"/>
<g clip-path="url(#clip1_2_62)">
<g filter="url(#filter0_f_2_62)">
<path d="M1325.94 714.337C1721.71 698.716 1746.66 852.65 1650.56 1126.37C1581.36 1243.41 1317.02 761.383 1004.75 765.99C692.478 770.597 632.336 825.62 470.45 835.31C308.563 844.999 -265.207 630.812 -169.984 498.189C-74.7608 365.566 98.6365 158.473 573.902 469.043C1213.1 886.735 930.168 729.959 1325.94 714.337Z" fill="url(#paint0_linear_2_62)"/>
</g>
<g filter="url(#filter1_f_2_62)">
<path d="M231.999 511.317C327.499 487.317 336.499 564.817 318.499 708.317C303.999 770.817 255.999 743.817 180.499 758.817C104.999 773.817 91.4993 804.317 52.4993 815.817C13.4993 827.317 -129.501 741.317 -109.001 669.817C-88.5006 598.317 -67.0006 645.817 70.4994 624.817C207.999 603.817 136.499 535.317 231.999 511.317Z" fill="url(#paint1_linear_2_62)"/>
</g>
<g filter="url(#filter2_f_2_62)">
<path d="M987.392 -57.0556C1085.85 -55.5206 1074.48 21.668 1019.96 155.62C989.775 212.237 950.399 173.734 873.589 168.682C796.779 163.63 775.845 189.597 735.198 190.611C694.55 191.625 578.681 71.5442 616.988 7.78626C655.296 -55.9716 663.769 -4.52556 802.019 10.7776C940.269 26.0808 888.934 -58.5906 987.392 -57.0556Z" fill="url(#paint2_linear_2_62)"/>
</g>
<g filter="url(#filter3_f_2_62)">
<path d="M-71.9225 860.312C-70.7048 783.944 -10.9158 792.737 92.8308 834.991C136.679 858.385 106.842 888.938 102.906 948.515C98.9707 1008.09 119.079 1024.32 119.853 1055.85C120.627 1087.38 27.5753 1177.28 -21.802 1147.59C-71.1794 1117.9 -31.3255 1111.31 -19.431 1004.07C-7.53655 896.838 -73.1402 936.679 -71.9225 860.312Z" fill="url(#paint3_linear_2_62)"/>
</g>
<g filter="url(#filter4_f_2_62)">
<ellipse cx="770.373" cy="557.73" rx="404.609" ry="136.755" transform="rotate(25.1473 770.373 557.73)" fill="url(#paint4_linear_2_62)" fill-opacity="0.75"/>
</g>
<g filter="url(#filter5_b_2_62)">
<rect x="-0.000610352" width="1680" height="1074" fill="white" fill-opacity="0.4"/>
</g>
</g>
</g>
<defs>
<filter id="filter0_f_2_62" x="-431.349" y="55.9632" width="2379.75" height="1339.51" filterUnits="userSpaceOnUse" color-interpolation-filters="sRGB">
<feFlood flood-opacity="0" result="BackgroundImageFix"/>
<feBlend mode="normal" in="SourceGraphic" in2="BackgroundImageFix" result="shape"/>
<feGaussianBlur stdDeviation="125.386" result="effect1_foregroundBlur_2_62"/>
</filter>
<filter id="filter1_f_2_62" x="-411" y="207" width="1037.02" height="909.858" filterUnits="userSpaceOnUse" color-interpolation-filters="sRGB">
<feFlood flood-opacity="0" result="BackgroundImageFix"/>
<feBlend mode="normal" in="SourceGraphic" in2="BackgroundImageFix" result="shape"/>
<feGaussianBlur stdDeviation="150" result="effect1_foregroundBlur_2_62"/>
</filter>
<filter id="filter2_f_2_62" x="309.335" y="-357.076" width="1051.99" height="847.693" filterUnits="userSpaceOnUse" color-interpolation-filters="sRGB">
<feFlood flood-opacity="0" result="BackgroundImageFix"/>
<feBlend mode="normal" in="SourceGraphic" in2="BackgroundImageFix" result="shape"/>
<feGaussianBlur stdDeviation="150" result="effect1_foregroundBlur_2_62"/>
</filter>
<filter id="filter3_f_2_62" x="-371.939" y="502.95" width="791.797" height="950.568" filterUnits="userSpaceOnUse" color-interpolation-filters="sRGB">
<feFlood flood-opacity="0" result="BackgroundImageFix"/>
<feBlend mode="normal" in="SourceGraphic" in2="BackgroundImageFix" result="shape"/>
<feGaussianBlur stdDeviation="150" result="effect1_foregroundBlur_2_62"/>
</filter>
<filter id="filter4_f_2_62" x="99.4774" y="45.8486" width="1341.79" height="1023.76" filterUnits="userSpaceOnUse" color-interpolation-filters="sRGB">
<feFlood flood-opacity="0" result="BackgroundImageFix"/>
<feBlend mode="normal" in="SourceGraphic" in2="BackgroundImageFix" result="shape"/>
<feGaussianBlur stdDeviation="150" result="effect1_foregroundBlur_2_62"/>
</filter>
<filter id="filter5_b_2_62" x="-150.001" y="-150" width="1980" height="1374" filterUnits="userSpaceOnUse" color-interpolation-filters="sRGB">
<feFlood flood-opacity="0" result="BackgroundImageFix"/>
<feGaussianBlur in="BackgroundImageFix" stdDeviation="75"/>
<feComposite in2="SourceAlpha" operator="in" result="effect1_backgroundBlur_2_62"/>
<feBlend mode="normal" in="SourceGraphic" in2="effect1_backgroundBlur_2_62" result="shape"/>
</filter>
<linearGradient id="paint0_linear_2_62" x1="1451.25" y1="735.772" x2="344.949" y2="-91.5903" gradientUnits="userSpaceOnUse">
<stop stop-color="#BBFF40"/>
<stop offset="1" stop-color="#CCFF72"/>
</linearGradient>
<linearGradient id="paint1_linear_2_62" x1="287.999" y1="725.317" x2="-76.0006" y2="616.317" gradientUnits="userSpaceOnUse">
<stop stop-color="#17FFE6"/>
<stop offset="1" stop-color="#00FFDF"/>
</linearGradient>
<linearGradient id="paint2_linear_2_62" x1="986.097" y1="164.146" x2="662.711" y2="-35.3497" gradientUnits="userSpaceOnUse">
<stop stop-color="#17FFE6"/>
<stop offset="1" stop-color="#00FFDF"/>
</linearGradient>
<linearGradient id="paint3_linear_2_62" x1="99.4259" y1="861.252" x2="-55.4099" y2="1112.01" gradientUnits="userSpaceOnUse">
<stop stop-color="#17FFE6"/>
<stop offset="1" stop-color="#00FFDF"/>
</linearGradient>
<linearGradient id="paint4_linear_2_62" x1="935.914" y1="444.77" x2="918.191" y2="691.737" gradientUnits="userSpaceOnUse">
<stop stop-color="#038FDE"/>
<stop offset="1" stop-color="#0037A0"/>
</linearGradient>
<clipPath id="clip0_2_62">
<rect width="1680" height="1074" fill="white"/>
</clipPath>
<clipPath id="clip1_2_62">
<rect width="1680" height="1074" fill="white"/>
</clipPath>
</defs>
</svg>
