<svg width="263" height="176" viewBox="0 0 263 176" fill="none" xmlns="http://www.w3.org/2000/svg">
<path d="M233.877 52.8952L230.521 69.2104L228.361 67.0948L224.686 69.7278L221.877 66.2254L215.579 70.8225L210.197 61.7867L204.193 65.3172L201.812 62.0225L194.189 66.3345L191.895 61.403L197.239 35.4219L225.889 41.3601L233.877 52.8952Z" fill="#1F1F1F"/>
<path d="M225.889 41.3604L233.877 52.8954L223.939 50.8362L225.889 41.3604Z" fill="#292B29"/>
<path d="M229.806 72.4699L224.886 96.4059L186.295 88.4084L191.18 64.666L193.473 69.594L201.1 65.282L203.478 68.5767L209.485 65.0497L214.864 74.0855L221.165 69.4884L223.971 72.9873L227.649 70.3579L229.806 72.4699Z" fill="#1F1F1F"/>
<path d="M174.572 69.6646L135.245 72.1074L132.121 21.4335L161.324 19.6172L172.044 28.646L174.572 69.6646Z" fill="#20201F"/>
<path d="M161.324 19.6172L172.044 28.646L161.917 29.2761L161.324 19.6172Z" fill="#313131"/>
<path d="M150.436 53.7156L150.282 52.5716C149.886 50.2027 150.531 47.5521 152.582 44.7818C154.434 42.3178 155.437 40.5578 155.324 38.5585C155.198 36.3057 153.708 34.8836 150.934 34.9962C149.349 35.0789 147.826 35.6436 146.568 36.6154L145.358 33.8945C146.761 32.7505 149.216 31.9057 151.548 31.7825C156.608 31.5009 159.069 34.507 159.262 37.8615C159.431 40.8641 157.881 43.1204 155.91 45.7569C154.101 48.161 153.508 50.1428 153.764 52.385L153.873 53.5326L150.436 53.7156ZM149.812 59.9495C149.721 58.3162 150.755 57.1054 152.295 57.0209C153.834 56.9364 154.956 58.0206 155.047 59.6574C155.131 61.2026 154.188 62.4487 152.561 62.5402C151.008 62.6282 149.886 61.4948 149.798 59.9495H149.812Z" fill="#292B29"/>
<path d="M52.067 45.0951L48.1115 43.2964L47.561 44.5108C47.4797 44.6843 47.3528 44.8324 47.194 44.9391C47.0353 45.0457 46.8506 45.107 46.6597 45.1162C46.4424 45.1234 46.2257 45.1445 46.011 45.1796C45.8226 45.2077 45.6301 45.1839 45.454 45.1107C45.278 45.0376 45.1251 44.9178 45.0116 44.7642L44.2366 43.6765L40.7054 46.218L41.4804 47.3057C41.5882 47.4627 41.6516 47.646 41.664 47.8363C41.6763 48.0265 41.6371 48.2166 41.5505 48.3863C41.4505 48.5799 41.3604 48.7784 41.2805 48.9812C41.211 49.16 41.0944 49.3164 40.943 49.4336C40.7916 49.5508 40.6113 49.6244 40.4214 49.6465L39.0994 49.7767L39.5237 54.1169L40.8527 53.9831C41.0433 53.9678 41.2344 54.005 41.4056 54.0906C41.5767 54.1761 41.7214 54.3069 41.824 54.4689C41.8802 54.5604 41.9398 54.6484 42.0029 54.7364C42.066 54.8244 42.1291 54.9089 42.1958 54.9933C42.3168 55.1411 42.3946 55.3197 42.4206 55.5092C42.4466 55.6988 42.4197 55.8918 42.343 56.0669L41.789 57.2919L45.748 59.0941L46.2986 57.8727C46.3806 57.6993 46.5082 57.5516 46.6676 57.4456C46.827 57.3395 47.0122 57.2791 47.2033 57.2708C47.4182 57.2619 47.6325 57.2407 47.845 57.2074C48.0334 57.1793 48.2259 57.2031 48.4019 57.2763C48.578 57.3495 48.7309 57.4692 48.8444 57.6228L49.6194 58.7105L53.1541 56.169L52.3791 55.0813C52.268 54.9258 52.2025 54.7421 52.1901 54.5511C52.1778 54.3601 52.2189 54.1694 52.309 54.0007C52.4067 53.8082 52.4944 53.6109 52.572 53.4093C52.6394 53.2292 52.7555 53.0716 52.9073 52.9541C53.0591 52.8366 53.2405 52.7638 53.4311 52.7441L54.7601 52.6103L54.3323 48.2701L53.0033 48.4004C52.8139 48.4171 52.6236 48.3809 52.4534 48.2958C52.2832 48.2107 52.1398 48.08 52.039 47.9181C51.9794 47.8266 51.9197 47.7386 51.8566 47.6506C51.7935 47.5626 51.7304 47.4746 51.6638 47.3937C51.5436 47.2441 51.4663 47.0643 51.4404 46.8739C51.4144 46.6835 51.4407 46.4896 51.5165 46.313L52.067 45.0951ZM49.8228 49.1114C50.2328 49.6858 50.464 50.3694 50.487 51.0757C50.51 51.782 50.3238 52.4793 49.952 53.0794C49.5802 53.6795 49.0395 54.1554 48.3982 54.447C47.7569 54.7386 47.0439 54.8327 46.3493 54.7175C45.6547 54.6023 45.0098 54.2829 44.496 53.7997C43.9823 53.3165 43.6229 52.6913 43.4632 52.003C43.3034 51.3148 43.3507 50.5944 43.5988 49.9331C43.847 49.2718 44.2849 48.6992 44.8573 48.2877C45.6246 47.7362 46.5788 47.5131 47.5099 47.6675C48.4411 47.822 49.273 48.3414 49.8228 49.1114Z" fill="#1F1F1F"/>
<path d="M230.872 102.682L228.235 104.21L228.701 105.019C228.771 105.136 228.806 105.269 228.801 105.405C228.797 105.54 228.754 105.672 228.677 105.783C228.596 105.91 228.519 106.04 228.449 106.177C228.391 106.299 228.3 106.401 228.186 106.472C228.073 106.543 227.941 106.58 227.807 106.579H226.881V109.638H227.814C227.948 109.636 228.08 109.673 228.193 109.744C228.307 109.815 228.398 109.917 228.456 110.039C228.526 110.176 228.603 110.306 228.684 110.433C228.761 110.545 228.804 110.676 228.808 110.811C228.813 110.947 228.778 111.081 228.708 111.197L228.242 112.007L230.879 113.534L231.349 112.721C231.417 112.606 231.516 112.512 231.634 112.45C231.752 112.387 231.885 112.36 232.019 112.369H232.467C232.601 112.36 232.734 112.388 232.852 112.45C232.97 112.512 233.069 112.606 233.137 112.721L233.607 113.538L236.241 112.01L235.774 111.197C235.708 111.08 235.675 110.947 235.68 110.813C235.685 110.678 235.728 110.548 235.802 110.437C235.883 110.31 235.96 110.176 236.03 110.042C236.088 109.921 236.179 109.819 236.293 109.748C236.406 109.676 236.538 109.64 236.672 109.641H237.605V106.582H236.665C236.531 106.584 236.399 106.547 236.286 106.476C236.172 106.405 236.081 106.302 236.023 106.181C235.953 106.047 235.876 105.913 235.795 105.787C235.721 105.675 235.678 105.545 235.673 105.411C235.668 105.276 235.701 105.143 235.767 105.026L236.234 104.213L233.6 102.686L233.13 103.488C233.062 103.604 232.963 103.698 232.845 103.76C232.727 103.822 232.594 103.85 232.46 103.84H232.236H232.012C231.878 103.849 231.745 103.821 231.626 103.759C231.507 103.697 231.408 103.603 231.338 103.488L230.872 102.682ZM232.236 105.604C232.73 105.603 233.213 105.75 233.624 106.025C234.036 106.3 234.356 106.691 234.546 107.149C234.735 107.607 234.785 108.112 234.688 108.598C234.592 109.085 234.354 109.531 234.005 109.882C233.656 110.233 233.21 110.472 232.726 110.568C232.241 110.665 231.739 110.615 231.282 110.425C230.826 110.235 230.436 109.913 230.162 109.5C229.888 109.087 229.742 108.602 229.743 108.106C229.742 107.777 229.806 107.452 229.932 107.148C230.057 106.844 230.24 106.567 230.472 106.334C230.703 106.102 230.978 105.917 231.281 105.791C231.584 105.665 231.908 105.6 232.236 105.6V105.604Z" fill="#1F1F1F"/>
<path d="M60.0691 32.0883L57.653 33.9469L58.2106 34.6896C58.2938 34.7954 58.3449 34.923 58.358 35.0571C58.371 35.1913 58.3454 35.3264 58.2842 35.4464C58.2171 35.5834 58.1586 35.7245 58.1089 35.8688C58.0657 35.9959 57.988 36.1084 57.8845 36.1936C57.7811 36.2788 57.6559 36.3333 57.5233 36.351L56.5975 36.4707L56.9903 39.5014L57.916 39.3817C58.0508 39.3629 58.1881 39.3826 58.3122 39.4387C58.4363 39.4947 58.5421 39.5848 58.6174 39.6985C58.7018 39.821 58.7931 39.9385 58.8909 40.0505C58.9812 40.1503 59.0412 40.2739 59.0635 40.4068C59.0859 40.5398 59.0698 40.6763 59.0171 40.8003L58.6665 41.6662L61.4718 42.8384L61.8225 41.9725C61.8747 41.8482 61.9605 41.7412 62.0702 41.6634C62.1799 41.5856 62.3091 41.5403 62.4432 41.5325L62.6676 41.5078L62.8885 41.4726C63.0183 41.4481 63.1523 41.4597 63.2759 41.5063C63.3996 41.5528 63.5081 41.6325 63.5898 41.7366L64.1614 42.4864L66.5775 40.6278L66.0129 39.8851C65.9314 39.7778 65.8813 39.6498 65.8683 39.5155C65.8553 39.3811 65.8799 39.2458 65.9393 39.1248C66.0058 38.9887 66.0643 38.8488 66.1146 38.7059C66.1578 38.5788 66.2356 38.4663 66.339 38.3811C66.4425 38.2959 66.5676 38.2414 66.7002 38.2237L67.626 38.104L67.2333 35.0733L66.3075 35.1929C66.1731 35.2122 66.036 35.193 65.9119 35.1376C65.7879 35.0821 65.6819 34.9928 65.6062 34.8797C65.5185 34.7529 65.4273 34.6333 65.3291 34.5277C65.2474 34.4258 65.1946 34.3037 65.1761 34.1743C65.1576 34.0449 65.1741 33.9128 65.2239 33.792L65.5746 32.9261L62.7693 31.7539L62.4186 32.6198C62.3657 32.7436 62.2798 32.8502 62.1702 32.9279C62.0606 33.0055 61.9318 33.0512 61.7979 33.0598L61.5735 33.0809L61.3666 33.088C61.2368 33.1125 61.1028 33.1009 60.9792 33.0544C60.8555 33.0078 60.747 32.9281 60.6653 32.824L60.0691 32.0883ZM61.7979 34.8093C62.2864 34.7462 62.7825 34.8298 63.2237 35.0495C63.6649 35.2692 64.0314 35.6151 64.277 36.0436C64.5226 36.4722 64.6362 36.9641 64.6036 37.4574C64.5709 37.9506 64.3935 38.4232 64.0937 38.8153C63.7938 39.2075 63.385 39.5018 62.9187 39.661C62.4525 39.8202 61.9497 39.8372 61.4738 39.7099C60.9979 39.5826 60.5702 39.3167 60.2447 38.9457C59.9192 38.5747 59.7105 38.1152 59.6448 37.6253C59.601 37.2983 59.622 36.9659 59.7066 36.6471C59.7913 36.3283 59.9379 36.0295 60.138 35.7678C60.3381 35.5061 60.5877 35.2867 60.8726 35.1222C61.1575 34.9577 61.472 34.8513 61.7979 34.8093Z" fill="#1F1F1F"/>
<path d="M42.0169 111.507C42.1486 108.104 42.1018 104.697 41.8766 101.299C41.3749 94.2825 40.3089 87.3184 38.689 80.4745C37.7983 76.6236 36.7043 72.8361 35.5611 69.0521C35.526 68.9359 35.3437 68.9676 35.3752 69.0873C38.9064 82.4281 41.803 96.1913 41.6031 110.06C41.547 113.932 41.0981 117.751 40.7334 121.609C40.7334 121.711 40.8912 121.754 40.9158 121.648C41.6416 118.336 41.8801 114.879 42.0169 111.507Z" fill="#1F1F1F"/>
<path d="M35.3753 69.0767C35.3753 69.0767 30.0311 82.6991 31.2269 85.8882C32.4227 89.0773 34.8914 89.7602 34.8914 89.7602C34.8914 89.7602 31.6197 94.4488 33.906 98.8453C36.1924 103.242 41.27 103.034 41.6207 108.018C41.6102 108.043 41.8907 87.2011 35.3753 69.0767Z" fill="#1F1F1F"/>
<path d="M41.0281 99.4368C41.0367 99.4141 41.0367 99.3891 41.0281 99.3664C40.3266 90.0662 38.5882 80.8743 35.8452 71.9632C35.8452 71.9386 35.7926 71.9456 35.7996 71.9632C36.8586 75.9525 37.7937 79.9583 38.6049 83.9805C37.8865 83.2973 37.0087 82.8059 36.0521 82.5514C36.0521 82.5514 36.024 82.5725 36.0521 82.5795C37.0571 82.9492 37.9607 83.5523 38.6891 84.3395C38.8434 85.1315 38.9977 85.92 39.1415 86.712C37.9457 85.3709 36.2905 84.7056 34.6319 84.072C34.6281 84.0737 34.6249 84.0764 34.6227 84.0798C34.6205 84.0832 34.6193 84.0873 34.6193 84.0914C34.6193 84.0955 34.6205 84.0995 34.6227 84.1029C34.6249 84.1064 34.6281 84.1091 34.6319 84.1107C36.3607 84.8147 38.0789 85.7229 39.2502 87.2189C39.6569 89.4787 40.0146 91.7468 40.3232 94.023C39.4598 93.1151 38.3525 92.478 37.1357 92.1891C37.0971 92.1891 37.076 92.2349 37.1146 92.2455C38.3647 92.615 39.4807 93.3414 40.3267 94.3363H40.3478C40.453 95.1342 40.5535 95.9356 40.6493 96.7405C39.9814 96.1731 39.2273 95.7168 38.4156 95.3888C38.3945 95.3888 38.3805 95.4135 38.4156 95.4205C39.2439 95.7807 40.0025 96.2847 40.6563 96.9095C40.6563 96.9095 40.6739 96.9095 40.6844 96.9095C40.7721 97.6733 40.8597 98.4371 40.9369 99.201C39.7327 97.7398 38.17 96.6187 36.4028 95.9485C36.3953 95.9485 36.3882 95.9515 36.3829 95.9567C36.3777 95.962 36.3747 95.9692 36.3747 95.9767C36.3747 95.9841 36.3777 95.9913 36.3829 95.9966C36.3882 96.0019 36.3953 96.0048 36.4028 96.0048C38.1478 96.7769 39.6807 97.9617 40.8703 99.4579C40.8833 99.4743 40.901 99.4865 40.921 99.4927C40.941 99.499 40.9624 99.4991 40.9825 99.4931C41.0982 100.665 41.2034 101.837 41.2875 103.013C41.2875 103.031 41.3156 103.031 41.3156 103.013C41.2244 101.833 41.1286 100.641 41.0281 99.4368Z" fill="#1F211E"/>
<path d="M36.7323 81.2103C35.7644 80.6057 34.6588 80.2592 33.5202 80.2036C33.5146 80.2036 33.5093 80.2058 33.5053 80.2098C33.5014 80.2138 33.4991 80.2191 33.4991 80.2247C33.4991 80.2303 33.5014 80.2357 33.5053 80.2397C33.5093 80.2436 33.5146 80.2459 33.5202 80.2459C34.621 80.4554 35.6893 80.8105 36.6972 81.3019C36.7393 81.3124 36.7709 81.2385 36.7323 81.2103Z" fill="#1F211E"/>
<path d="M37.381 95.6314C36.6371 95.2028 35.818 94.922 34.9684 94.8042C34.9404 94.8042 34.9369 94.8429 34.9684 94.85C35.7981 95.017 36.6006 95.299 37.353 95.6877C37.3845 95.7053 37.4126 95.649 37.381 95.6314Z" fill="#1F211E"/>
<path d="M56.0716 86.124C53.8108 87.6927 51.7345 89.5136 49.8824 91.5518C47.9723 93.7099 46.499 96.2206 45.5446 98.9438C43.5135 104.617 42.4214 110.586 42.3115 116.614C42.2434 119.952 42.5623 123.287 43.2618 126.551C43.2675 126.575 43.282 126.596 43.3024 126.609C43.3228 126.622 43.3475 126.627 43.3714 126.622C43.3953 126.618 43.4165 126.604 43.4307 126.584C43.4449 126.565 43.451 126.54 43.4476 126.516C42.5772 120.756 42.6103 114.895 43.5458 109.145C44.4646 103.513 45.9058 97.3809 49.4756 92.8014C51.4183 90.3057 53.8414 88.3451 56.2365 86.3176C56.3627 86.2049 56.2014 86.0325 56.0716 86.124Z" fill="#1F1F1F"/>
<path d="M43.0969 112.552C44.3838 110.463 45.8961 108.522 47.6065 106.765C50.2821 104.08 52.5334 102.172 52.884 100.398C53.2347 98.6237 50.2049 97.3143 50.2049 97.3143C50.2049 97.3143 53.9045 97.9831 54.9179 96.4237C55.9313 94.8644 56.4187 85.832 56.4187 85.832C56.4187 85.832 49.686 90.6579 46.5475 97.4234C43.409 104.189 43.0969 112.552 43.0969 112.552Z" fill="#1F1F1F"/>
<path d="M54.0027 94.3043C53.5594 94.2381 53.1099 94.2227 52.6631 94.2586C52.6105 94.2586 52.6141 94.3501 52.6631 94.3536C53.105 94.3536 53.5503 94.3325 53.9922 94.3536C53.9972 94.3523 54.0018 94.3496 54.0054 94.3458C54.009 94.3421 54.0115 94.3374 54.0126 94.3322C54.0137 94.3271 54.0134 94.3218 54.0116 94.3169C54.0099 94.3119 54.0068 94.3076 54.0027 94.3043Z" fill="#1F211E"/>
<path d="M49.167 103.066C48.4561 103.08 47.7532 103.221 47.0911 103.481C47.0911 103.481 47.0911 103.516 47.0911 103.513C47.7924 103.348 48.4692 103.281 49.1635 103.161C49.1726 103.157 49.1803 103.151 49.1859 103.142C49.1915 103.134 49.1946 103.124 49.195 103.115C49.1953 103.105 49.1929 103.095 49.188 103.086C49.183 103.078 49.1758 103.071 49.167 103.066Z" fill="#1F211E"/>
<path d="M47.7152 100.039C47.4201 100.036 47.1253 100.062 46.8351 100.116C46.8297 100.118 46.8251 100.122 46.8218 100.126C46.8185 100.131 46.8168 100.137 46.8168 100.143C46.8168 100.148 46.8185 100.154 46.8218 100.159C46.8251 100.163 46.8297 100.167 46.8351 100.169C47.129 100.186 47.4239 100.173 47.7152 100.13C47.7273 100.13 47.7389 100.125 47.7475 100.117C47.756 100.108 47.7608 100.097 47.7608 100.084C47.7608 100.072 47.756 100.061 47.7475 100.052C47.7389 100.044 47.7273 100.039 47.7152 100.039Z" fill="#1F211E"/>
<path d="M23.3579 95.7056C25.5493 96.4513 27.6492 97.4445 29.6173 98.6659C31.6594 99.9685 33.4302 101.656 34.8317 103.636C37.7804 107.756 40.0381 112.333 41.5154 117.185C42.3393 119.871 42.8477 122.645 43.0303 125.45C43.0265 125.468 43.0165 125.484 43.0022 125.496C42.9878 125.507 42.9699 125.514 42.9514 125.514C42.9329 125.514 42.915 125.507 42.9006 125.496C42.8862 125.484 42.8763 125.468 42.8725 125.45C42.2535 120.586 40.8785 115.851 38.7977 111.415C36.7534 107.068 34.176 102.443 30.2345 99.5635C28.0884 97.9971 25.6758 96.9693 23.2702 95.8851C23.144 95.8429 23.2316 95.6634 23.3579 95.7056Z" fill="#1F1F1F"/>
<path d="M39.9444 114.083C38.421 112.692 36.75 111.473 34.9615 110.447C32.1772 108.895 29.9154 107.874 29.2246 106.519C28.5337 105.164 30.6833 103.404 30.6833 103.404C30.6833 103.404 27.8429 104.812 26.6647 103.773C25.4864 102.735 23.0107 95.5542 23.0107 95.5542C23.0107 95.5542 29.5717 97.895 33.664 102.643C37.7563 107.392 39.9444 114.083 39.9444 114.083Z" fill="#1F1F1F"/>
<path d="M34.4986 107.473C33.8535 107.428 33.2058 107.508 32.5909 107.709C32.5909 107.709 32.5909 107.74 32.5909 107.737C33.2182 107.629 33.852 107.563 34.488 107.54C34.5336 107.54 34.5442 107.476 34.4986 107.473Z" fill="#1F211E"/>
<path d="M28.7757 99.9399C28.4814 99.9158 28.1853 99.9324 27.8955 99.9892C27.864 99.9892 27.8745 100.046 27.8955 100.042C28.1866 100.01 28.4706 100.021 28.7582 100.014C28.7671 100.014 28.7759 100.011 28.783 100.006C28.7901 100.001 28.7952 99.9929 28.7972 99.9841C28.7993 99.9754 28.7983 99.9662 28.7944 99.9582C28.7904 99.9501 28.7838 99.9437 28.7757 99.9399Z" fill="#1F211E"/>
<path d="M48.4061 134.527H33.5974L35.7084 119.001L36.2485 115.02H45.755L46.2951 119.001L48.4061 134.527Z" fill="#292B29"/>
<path d="M46.295 119.001H35.7084L36.2484 115.02H45.755L46.295 119.001Z" fill="#1F211E"/>
<path d="M47.1121 113.64H34.8878V117.012H47.1121V113.64Z" fill="#292B29"/>
<path d="M24.182 134.528L50.8362 134.443L77.4903 134.411L130.799 134.352L184.107 134.411L210.761 134.443L237.415 134.528L210.761 134.616L184.107 134.644L130.799 134.704L77.4903 134.644L50.8362 134.612L24.182 134.528Z" fill="#263238"/>
<path d="M131.5 160.762C187.032 160.762 232.05 155.81 232.05 149.702C232.05 143.594 187.032 138.642 131.5 138.642C75.9677 138.642 30.9498 143.594 30.9498 149.702C30.9498 155.81 75.9677 160.762 131.5 160.762Z" fill="#1F211E"/>
<path d="M202.096 152.081H95.2551L110.702 64.1343H217.543L202.096 152.081Z" fill="url(#paint0_linear_527_2009)"/>
<path d="M147.269 55.0244H112.304L110.702 64.1342H148.122L147.269 55.0244Z" fill="url(#paint1_linear_527_2009)"/>
<g opacity="0.1">
<path d="M202.096 152.081H95.2551L110.702 64.1343H217.543L202.096 152.081Z" fill="black"/>
<path d="M147.27 55.0244H112.305L110.702 64.1342H148.122L147.27 55.0244Z" fill="black"/>
</g>
<path d="M108.531 58.7416C108.298 57.7343 108.298 56.6865 108.531 55.6792C108.765 56.6865 108.765 57.7343 108.531 58.7416Z" fill="#263238"/>
<path d="M105.424 59.6426C105.067 59.271 104.76 58.8545 104.509 58.4036C104.246 57.9621 104.04 57.489 103.896 56.9956C104.254 57.3651 104.561 57.7805 104.811 58.2311C105.073 58.6742 105.279 59.1484 105.424 59.6426Z" fill="#263238"/>
<path d="M103.18 61.9833C102.195 61.6826 101.291 61.1588 100.54 60.4521C101.031 60.5956 101.503 60.8014 101.942 61.0646C102.392 61.3177 102.807 61.6264 103.18 61.9833Z" fill="#263238"/>
<path d="M102.395 65.1374C101.391 65.3721 100.347 65.3721 99.3439 65.1374C100.347 64.9028 101.391 64.9028 102.395 65.1374Z" fill="#263238"/>
<path d="M103.306 68.2559C102.935 68.6124 102.52 68.921 102.072 69.1746C101.632 69.4378 101.161 69.6436 100.669 69.7871C101.04 69.4286 101.454 69.1198 101.904 68.8683C102.343 68.6039 102.814 68.398 103.306 68.2559Z" fill="#263238"/>
<path d="M105.635 70.5054C105.336 71.496 104.814 72.4042 104.109 73.1594C104.252 72.6654 104.458 72.192 104.723 71.7514C104.973 71.2989 105.279 70.8802 105.635 70.5054Z" fill="#263238"/>
<path d="M108.777 71.2832C108.899 71.7842 108.958 72.2986 108.952 72.8144C108.96 73.3303 108.901 73.8449 108.777 74.3456C108.651 73.8452 108.592 73.3303 108.601 72.8144C108.596 72.2986 108.654 71.7842 108.777 71.2832Z" fill="#263238"/>
<path d="M111.884 70.3996C112.241 70.7713 112.548 71.1877 112.799 71.6387C113.062 72.0794 113.268 72.5527 113.409 73.0467C112.704 72.2914 112.182 71.3832 111.884 70.3926V70.3996Z" fill="#263238"/>
<path d="M114.124 68.0415C114.616 68.1836 115.088 68.3895 115.527 68.654C115.976 68.9055 116.391 69.2143 116.761 69.5727C116.269 69.4306 115.798 69.2247 115.359 68.9602C114.91 68.7087 114.495 68.3999 114.124 68.0415Z" fill="#263238"/>
<path d="M114.899 64.8874C115.904 64.6528 116.949 64.6528 117.954 64.8874C116.949 65.122 115.904 65.122 114.899 64.8874Z" fill="#263238"/>
<path d="M114.002 61.7685C114.373 61.4122 114.788 61.1047 115.236 60.8533C115.674 60.5863 116.146 60.3791 116.639 60.2373C115.886 60.9449 114.982 61.4688 113.995 61.7685H114.002Z" fill="#263238"/>
<path d="M111.67 59.5196C111.814 59.0267 112.019 58.5537 112.28 58.1116C112.531 57.6607 112.838 57.2442 113.195 56.8726C113.054 57.3665 112.849 57.8398 112.585 58.2806C112.334 58.7315 112.027 59.1479 111.67 59.5196Z" fill="#263238"/>
<path d="M201.938 152.081H94.8693L79.6644 67.3267H186.737L201.938 152.081Z" fill="url(#paint2_linear_527_2009)"/>
<path d="M116.768 119.138C119.226 119.138 121.218 117.138 121.218 114.671C121.218 112.204 119.226 110.204 116.768 110.204C114.311 110.204 112.318 112.204 112.318 114.671C112.318 117.138 114.311 119.138 116.768 119.138Z" fill="#263238"/>
<path d="M151.947 119.138C154.405 119.138 156.397 117.138 156.397 114.671C156.397 112.204 154.405 110.204 151.947 110.204C149.49 110.204 147.497 112.204 147.497 114.671C147.497 117.138 149.49 119.138 151.947 119.138Z" fill="#263238"/>
<path d="M140.751 119.852L140.505 119.384C140.484 119.342 138.184 115.076 133.558 115.076C129.35 115.076 128.298 119.092 128.27 119.264L128.144 119.775L127.124 119.528L127.246 119.014C127.246 118.965 128.502 114.02 133.558 114.02C138.818 114.02 141.333 118.694 141.438 118.895L141.683 119.359L140.751 119.852Z" fill="#263238"/>
<path d="M194.869 114.33L194.795 113.978C195.023 113.929 195.248 113.876 195.472 113.816L195.56 114.168C195.321 114.228 195.1 114.281 194.869 114.33Z" fill="#BEF856" fill-opacity="0.15"/>
<path d="M196.917 113.763L196.805 113.432C197.243 113.281 197.681 113.116 198.106 112.936L198.242 113.26C197.811 113.443 197.366 113.612 196.917 113.763ZM199.529 112.64L199.371 112.331C199.782 112.116 200.192 111.884 200.581 111.627L200.764 111.926C200.364 112.204 199.947 112.44 199.529 112.64ZM201.942 111.151L201.735 110.866C202.114 110.588 202.478 110.296 202.822 109.997L203.053 110.261C202.685 110.581 202.335 110.88 201.938 111.165L201.942 111.151ZM204.081 109.279L203.825 109.036C204.148 108.684 204.453 108.332 204.733 107.98L205.01 108.195C204.719 108.582 204.407 108.944 204.088 109.293L204.081 109.279ZM205.817 107.026L205.519 106.839C205.761 106.446 205.977 106.037 206.164 105.614L206.487 105.759C206.288 106.199 206.063 106.627 205.813 107.04L205.817 107.026ZM206.977 104.414L206.627 104.316C206.755 103.874 206.85 103.423 206.911 102.967L207.261 103.013C207.203 103.492 207.107 103.965 206.974 104.428L206.977 104.414ZM207.367 101.598H207.016V101.496C207.016 101.07 206.991 100.637 206.949 100.211L207.3 100.176C207.346 100.614 207.37 101.055 207.37 101.496L207.367 101.598ZM206.735 98.8419C206.641 98.3881 206.524 97.9393 206.385 97.4973L206.735 97.3917C206.879 97.8493 207.002 98.3139 207.086 98.768L206.735 98.8419ZM205.904 96.1913C205.736 95.776 205.554 95.3501 205.329 94.9206L205.645 94.7622C205.859 95.1987 206.055 95.6352 206.227 96.0576L205.904 96.1913ZM204.677 93.6816C204.46 93.2979 204.221 92.8931 203.976 92.4778L204.274 92.2912C204.53 92.7101 204.772 93.1184 204.975 93.5091L204.677 93.6816ZM203.211 91.2915C202.955 90.9043 202.696 90.5136 202.429 90.1229L202.72 89.9258C202.987 90.3165 203.246 90.7072 203.502 91.1014L203.211 91.2915ZM201.633 88.9613C201.37 88.5741 201.104 88.1834 200.844 87.7962L201.135 87.599C201.395 87.9862 201.658 88.377 201.921 88.7606L201.633 88.9613ZM200.066 86.617C199.81 86.2227 199.561 85.8214 199.315 85.4202L199.613 85.2371C199.859 85.6384 200.108 86.0326 200.36 86.4269L200.066 86.617ZM198.604 84.1987C198.365 83.7728 198.144 83.3504 197.944 82.9456L198.26 82.7872C198.456 83.1885 198.677 83.6038 198.909 84.0262L198.604 84.1987ZM197.359 81.6643C197.173 81.2243 197.008 80.7773 196.854 80.3408L197.204 80.2282C197.352 80.6541 197.516 81.0941 197.699 81.527L197.359 81.6643ZM196.447 78.9785C196.331 78.521 196.23 78.0528 196.152 77.5706L196.503 77.5142C196.58 77.9648 196.675 78.4224 196.791 78.873L196.447 78.9785ZM195.977 76.1626C195.942 75.7296 195.924 75.2931 195.924 74.8566V74.7405H196.275V74.8531C196.275 75.279 196.275 75.7085 196.328 76.1309L195.977 76.1626ZM196.328 73.3465L195.977 73.3114C195.977 73.2163 195.995 73.1178 196.005 73.0157C196.047 72.639 196.1 72.2624 196.163 71.9034L196.514 71.9632C196.454 72.3152 196.401 72.6848 196.359 73.0544C196.373 73.1635 196.373 73.2586 196.345 73.3571L196.328 73.3465ZM196.815 70.608L196.464 70.513C196.594 70.0483 196.745 69.5942 196.913 69.1613L197.239 69.288C197.08 69.7238 196.944 70.168 196.833 70.6186L196.815 70.608ZM214.289 68.5558C214.092 68.5558 213.889 68.5277 213.689 68.4995C213.416 68.4608 213.142 68.415 212.872 68.3622L212.942 68.0102C213.202 68.0595 213.472 68.1053 213.738 68.144C213.928 68.1686 214.121 68.1862 214.306 68.1968L214.289 68.5558ZM215.73 68.4467L215.656 68.0947C216.097 68.0035 216.518 67.8393 216.905 67.609L217.087 67.9082C216.674 68.1647 216.221 68.3503 215.748 68.4573L215.73 68.4467ZM197.825 68.0278L197.513 67.8624C197.736 67.4426 197.983 67.036 198.253 66.6445L198.54 66.8451C198.284 67.2284 198.051 67.6269 197.843 68.0384L197.825 68.0278ZM211.501 68.0067C211.048 67.8626 210.604 67.6945 210.169 67.5034L210.312 67.1795C210.734 67.3675 211.166 67.5309 211.606 67.6688L211.501 68.0067ZM218.164 66.9085L217.873 66.7114C218.122 66.3477 218.27 65.9235 218.3 65.4829L218.651 65.5075C218.621 66.0125 218.457 66.5001 218.174 66.919L218.164 66.9085ZM208.906 66.8557C208.496 66.6162 208.099 66.3542 207.717 66.0707L207.924 65.7891C208.296 66.064 208.682 66.3179 209.081 66.5494L208.906 66.8557ZM199.403 65.7574L199.144 65.5216C199.461 65.1671 199.799 64.8321 200.157 64.5184L200.388 64.7824C200.044 65.0914 199.719 65.4205 199.414 65.768L199.403 65.7574ZM206.623 65.1626C206.274 64.8396 205.943 64.4976 205.631 64.1382L205.894 63.9059C206.197 64.255 206.519 64.5876 206.858 64.9021L206.623 65.1626ZM218.037 64.2086C217.837 63.8064 217.559 63.4476 217.22 63.1526L217.452 62.8886C217.824 63.2122 218.131 63.6055 218.353 64.0467L218.037 64.2086ZM201.479 63.9306L201.279 63.6419C201.671 63.3731 202.078 63.1252 202.496 62.8992L202.661 63.209C202.258 63.4324 201.867 63.6768 201.49 63.9411L201.479 63.9306ZM204.754 63.0154C204.621 62.8253 204.491 62.6317 204.368 62.431L203.913 62.6106L203.779 62.2867L204.183 62.1248C204.12 62.0192 204.056 61.9136 203.997 61.808L204.302 61.6355C204.372 61.7587 204.442 61.8819 204.516 61.9875C204.712 61.9171 204.912 61.8502 205.115 61.7869L205.217 62.1389C205.045 62.1917 204.866 62.248 204.705 62.3078C204.814 62.4803 204.926 62.6598 205.056 62.8112L204.754 63.0154ZM216.091 62.4099C215.752 62.2402 215.4 62.0966 215.039 61.9805L214.808 61.9066L214.91 61.5546L215.148 61.632C215.524 61.7522 215.89 61.9017 216.242 62.079L216.091 62.4099ZM206.56 61.7798L206.487 61.4278C206.939 61.3258 207.409 61.2413 207.889 61.1744L207.942 61.5264C207.479 61.6003 207.02 61.6883 206.571 61.7904L206.56 61.7798ZM213.468 61.5898C213.03 61.5123 212.567 61.4525 212.094 61.4102L212.122 61.0582C212.609 61.1005 213.083 61.1603 213.524 61.2413L213.468 61.5898ZM209.313 61.3856L209.288 61.0336C209.706 61.009 210.123 60.9949 210.537 60.9949H210.709V61.3469H210.54C210.144 61.3574 209.73 61.368 209.323 61.3962L209.313 61.3856ZM203.387 60.5443C203.197 60.1149 203.036 59.6678 202.878 59.2138L203.229 59.1046C203.376 59.5482 203.541 59.9846 203.723 60.4035L203.387 60.5443ZM202.499 57.841C202.394 57.3869 202.307 56.9152 202.24 56.433L202.591 56.3837C202.657 56.8483 202.741 57.3094 202.843 57.7565L202.499 57.841ZM202.107 55.025C202.089 54.7082 202.079 54.3843 202.079 54.0605C202.079 53.9091 202.079 53.7542 202.079 53.6029H202.429C202.429 53.7542 202.429 53.9021 202.429 54.0534C202.429 54.3702 202.429 54.6906 202.454 54.9968L202.107 55.025ZM202.524 52.209L202.173 52.1738C202.222 51.7091 202.289 51.2339 202.37 50.7658L202.72 50.8256C202.626 51.2938 202.559 51.7443 202.513 52.216L202.524 52.209ZM203.004 49.4598L202.654 49.3754C202.766 48.9213 202.896 48.4637 203.039 48.0061L203.39 48.1152C203.232 48.5763 203.103 49.0234 202.994 49.4669L203.004 49.4598ZM203.846 46.7952L203.52 46.6685C203.692 46.2285 203.871 45.7885 204.084 45.3626L204.4 45.5174C204.19 45.9398 204.004 46.3693 203.835 46.8163L203.846 46.7952ZM205.052 44.2854L204.747 44.1059C204.986 43.7011 205.242 43.2963 205.508 42.9091L205.796 43.1098C205.522 43.497 205.273 43.8912 205.042 44.2925L205.052 44.2854ZM206.634 41.9939L206.36 41.7722C206.655 41.4202 206.97 41.047 207.297 40.7162L207.549 40.959C207.219 41.2899 206.911 41.6419 206.623 42.001L206.634 41.9939ZM208.541 39.9664L208.306 39.7059C208.657 39.3926 209.008 39.0829 209.383 38.7837L209.6 39.0618C209.225 39.361 208.868 39.6672 208.531 39.9734L208.541 39.9664ZM210.719 38.2275L210.519 37.9354C210.901 37.6714 211.301 37.4109 211.708 37.1645L211.887 37.4637C211.48 37.7136 211.101 37.9706 210.709 38.2346L210.719 38.2275ZM213.1 36.7738L212.935 36.464C213.349 36.2422 213.777 36.031 214.205 35.8339L214.352 36.1542C213.907 36.3549 213.496 36.5661 213.09 36.7808L213.1 36.7738ZM215.635 35.6051L215.506 35.2742C215.948 35.1018 216.393 34.9222 216.835 34.792L216.947 35.144C216.502 35.2778 216.06 35.4397 215.625 35.6122L215.635 35.6051Z" fill="#BEF856" fill-opacity="0.15"/>
<path d="M218.339 34.7146L218.251 34.3626C218.686 34.25 218.953 34.2007 218.953 34.2007L219.016 34.5527C219.016 34.5527 218.763 34.6055 218.339 34.7146Z" fill="#BEF856" fill-opacity="0.15"/>
<path d="M224.539 32.4406C223.645 29.6598 217.655 30.6595 218.823 34.2956C219.991 37.9318 225.433 35.2249 224.539 32.4406Z" fill="#BEF856" fill-opacity="0.15"/>
<path d="M215.565 31.3281C215.611 30.1067 217.301 29.1669 219.693 29.5998C222.084 30.0328 224.332 31.652 224.332 31.652C224.332 31.652 221.972 33.0881 219.556 33.3521C217.14 33.6161 215.52 32.5461 215.565 31.3281Z" fill="#1F1F1F"/>
<path d="M224.332 31.6452C223.091 31.6452 221.853 31.61 220.615 31.5712C219.377 31.5325 218.136 31.4692 216.898 31.3706C218.139 31.3706 219.381 31.4023 220.618 31.441C221.856 31.4797 223.098 31.5431 224.332 31.6452Z" fill="#BEF856" fill-opacity="0.15"/>
<path d="M217.967 30.2402C218.672 30.5787 219.337 30.9955 219.949 31.4828C219.596 31.3167 219.254 31.1286 218.925 30.9196C218.593 30.7121 218.273 30.4852 217.967 30.2402Z" fill="#BEF856" fill-opacity="0.15"/>
<path d="M221.218 31.5288C220.584 32.0449 219.896 32.491 219.167 32.8594C219.804 32.3427 220.496 31.8966 221.229 31.5288H221.218Z" fill="#BEF856" fill-opacity="0.15"/>
<path d="M221.579 30.8423C221.933 31.0128 222.243 31.2635 222.484 31.5744C222.307 31.4906 222.141 31.3854 221.989 31.2612C221.837 31.1377 221.7 30.9972 221.579 30.8423Z" fill="#BEF856" fill-opacity="0.15"/>
<path d="M217.845 38.5616C218.592 39.5261 220.51 39.2938 222.196 37.5408C223.883 35.7878 224.777 33.1514 224.777 33.1514C224.777 33.1514 222.014 33.3626 219.907 34.5594C217.799 35.7562 217.094 37.5936 217.845 38.5616Z" fill="#1F1F1F"/>
<path d="M224.777 33.1514C223.767 33.8554 222.785 34.6368 221.8 35.3936C220.815 36.1504 219.85 36.9318 218.907 37.7379C219.917 37.0339 220.899 36.256 221.881 35.4992C222.863 34.7424 223.82 33.961 224.777 33.1514Z" fill="#BEF856" fill-opacity="0.15"/>
<path d="M220.422 38.016C220.609 37.6741 220.777 37.3215 220.923 36.96C221.073 36.5975 221.199 36.226 221.302 35.8477C221.114 36.1893 220.947 36.5419 220.801 36.9037C220.653 37.2667 220.526 37.6381 220.422 38.016Z" fill="#BEF856" fill-opacity="0.15"/>
<path d="M222.323 35.0732C221.502 35.0292 220.679 35.0729 219.868 35.2035C220.277 35.2281 220.687 35.2281 221.095 35.2035C221.506 35.1833 221.916 35.1399 222.323 35.0732Z" fill="#BEF856" fill-opacity="0.15"/>
<path d="M222.999 35.4219C223.093 35.2481 223.166 35.0638 223.217 34.8728C223.269 34.6832 223.299 34.4884 223.308 34.292C223.122 34.6405 223.016 35.0267 222.999 35.4219Z" fill="#BEF856" fill-opacity="0.15"/>
<path d="M224.539 32.4403C224.341 32.5048 224.128 32.5089 223.928 32.4521C223.727 32.3952 223.548 32.2799 223.413 32.1209C223.278 31.9618 223.193 31.766 223.169 31.5584C223.145 31.3509 223.183 31.1407 223.278 30.9547C223.372 30.7686 223.52 30.615 223.702 30.5133C223.884 30.4116 224.092 30.3664 224.299 30.3834C224.507 30.4004 224.705 30.4788 224.868 30.6087C225.031 30.7386 225.152 30.9142 225.216 31.1132C225.301 31.3793 225.277 31.6684 225.15 31.9171C225.024 32.1658 224.804 32.354 224.539 32.4403Z" fill="#B9F65B"/>
<path d="M225.184 34.4504C224.986 34.5146 224.774 34.5186 224.574 34.4617C224.373 34.4048 224.195 34.2896 224.06 34.1306C223.925 33.9717 223.84 33.7762 223.815 33.5688C223.791 33.3614 223.829 33.1514 223.923 32.9654C224.018 32.7795 224.165 32.6258 224.347 32.5239C224.528 32.422 224.736 32.3764 224.943 32.393C225.151 32.4095 225.349 32.4873 225.512 32.6167C225.675 32.7461 225.797 32.9212 225.861 33.1198C225.904 33.2518 225.92 33.3909 225.909 33.5292C225.898 33.6675 225.86 33.8023 225.797 33.9259C225.734 34.0494 225.648 34.1593 225.543 34.2493C225.437 34.3393 225.316 34.4076 225.184 34.4504Z" fill="#B9F65B"/>
<path d="M110.218 33.5527C110.05 35.1695 109.438 36.7076 108.449 37.9954C107.461 39.2832 106.136 40.27 104.622 40.8458C103.107 41.4215 101.463 41.5635 99.8729 41.2559C98.2828 40.9483 96.8091 40.2032 95.6162 39.1037L91.2434 39.7479L93.4316 35.9533C92.9312 34.7186 92.7177 33.3857 92.8073 32.0558C92.8969 30.7259 93.2873 29.434 93.9488 28.2782C94.6102 27.1224 95.5254 26.1331 96.6248 25.3855C97.7242 24.6379 98.9788 24.1517 100.293 23.9637C101.608 23.7757 102.948 23.8909 104.212 24.3005C105.475 24.7102 106.629 25.4036 107.586 26.3279C108.543 27.2523 109.277 28.3834 109.733 29.6352C110.189 30.8871 110.355 32.2269 110.218 33.5527Z" fill="#1F211E"/>
<path d="M110.218 33.5526C110.054 35.1685 109.447 36.7072 108.465 37.9983C107.985 38.6513 107.406 39.225 106.75 39.6985C106.108 40.1898 105.399 40.5868 104.646 40.8777C103.892 41.1757 103.1 41.3653 102.293 41.4409C101.89 41.4772 101.484 41.4855 101.08 41.4655C100.674 41.4551 100.269 41.4127 99.8698 41.3388C98.2582 41.0412 96.7611 40.2989 95.5461 39.1951L95.6478 39.2268L91.282 39.8991L90.9629 39.9484L91.1242 39.6668L93.2983 35.8652V36.0166C92.7853 34.7591 92.5672 33.4 92.6608 32.0444C92.7545 30.6888 93.1574 29.373 93.8384 28.1986C94.5185 27.028 95.4536 26.0268 96.5736 25.27C97.6917 24.5233 98.9638 24.0403 100.294 23.8575C101.625 23.6746 102.98 23.7965 104.257 24.214C105.52 24.6455 106.672 25.3551 107.627 26.2908C108.58 27.2242 109.308 28.3633 109.757 29.6215C110.206 30.8797 110.364 32.2241 110.218 33.5526ZM110.218 33.5526C110.36 32.2306 110.197 30.8937 109.742 29.6449C109.287 28.3962 108.553 27.2691 107.595 26.3506C106.637 25.4321 105.482 24.7469 104.219 24.3477C102.955 23.9486 101.617 23.8462 100.308 24.0486C99.0122 24.2411 97.7776 24.7301 96.6998 25.4777C95.6312 26.2312 94.7386 27.2088 94.0838 28.343C93.4391 29.4796 93.0591 30.748 92.9722 32.053C92.8868 33.3669 93.0978 34.6832 93.5894 35.9039L93.6209 35.9814L93.5789 36.0553L91.3767 39.8428L91.2224 39.6105L95.5987 38.9945H95.6583L95.7004 39.0332C96.8702 40.1262 98.3199 40.8709 99.8874 41.1839C100.278 41.2638 100.674 41.3121 101.073 41.3282C101.471 41.3564 101.87 41.3564 102.268 41.3282C103.067 41.2637 103.853 41.0896 104.604 40.8108C105.357 40.5356 106.066 40.1514 106.708 39.6703C107.361 39.2006 107.941 38.6346 108.426 37.9913C109.421 36.7065 110.041 35.17 110.218 33.5526Z" fill="#263238"/>
<path d="M97.2539 36.731C97.2471 36.6145 97.2643 36.4978 97.3044 36.3882C97.3445 36.2786 97.4065 36.1785 97.4868 36.094C97.567 36.0095 97.6637 35.9424 97.7708 35.897C97.8779 35.8516 97.9932 35.8287 98.1095 35.8299C98.3476 35.8299 98.5759 35.9248 98.7443 36.0938C98.9126 36.2628 99.0072 36.492 99.0072 36.731C99.0072 36.97 98.9126 37.1992 98.7443 37.3682C98.5759 37.5372 98.3476 37.6321 98.1095 37.6321C97.9932 37.6333 97.8779 37.6104 97.7708 37.565C97.6637 37.5196 97.567 37.4525 97.4868 37.368C97.4065 37.2835 97.3445 37.1834 97.3044 37.0738C97.2643 36.9642 97.2471 36.8475 97.2539 36.731ZM97.6045 34.6507L97.4011 27.667H98.8038L98.6004 34.6507H97.6045Z" fill="#B9F65B"/>
<path d="M100.589 36.731C100.582 36.6148 100.599 36.4984 100.639 36.389C100.679 36.2797 100.741 36.1797 100.82 36.0952C100.9 36.0108 100.997 35.9437 101.103 35.898C101.21 35.8524 101.325 35.8292 101.441 35.8299C101.679 35.8299 101.907 35.9248 102.076 36.0938C102.244 36.2628 102.339 36.492 102.339 36.731C102.339 36.97 102.244 37.1992 102.076 37.3682C101.907 37.5372 101.679 37.6321 101.441 37.6321C101.325 37.6328 101.21 37.6096 101.103 37.5639C100.997 37.5183 100.9 37.4512 100.82 37.3667C100.741 37.2823 100.679 37.1823 100.639 37.073C100.599 36.9636 100.582 36.8472 100.589 36.731ZM100.939 34.6507L100.746 27.667H102.149L101.946 34.6507H100.939Z" fill="#B9F65B"/>
<path d="M103.92 36.731C103.913 36.6145 103.93 36.4978 103.971 36.3882C104.011 36.2786 104.073 36.1785 104.153 36.094C104.233 36.0095 104.33 35.9424 104.437 35.897C104.544 35.8516 104.659 35.8287 104.776 35.8299C105.014 35.8299 105.242 35.9248 105.41 36.0938C105.579 36.2628 105.673 36.492 105.673 36.731C105.673 36.97 105.579 37.1992 105.41 37.3682C105.242 37.5372 105.014 37.6321 104.776 37.6321C104.659 37.6333 104.544 37.6104 104.437 37.565C104.33 37.5196 104.233 37.4525 104.153 37.368C104.073 37.2835 104.011 37.1834 103.971 37.0738C103.93 36.9642 103.913 36.8475 103.92 36.731ZM104.271 34.6507L104.067 27.667H105.47L105.27 34.6507H104.271Z" fill="#B9F65B"/>
<defs>
<linearGradient id="paint0_linear_527_2009" x1="97.6407" y1="75.9551" x2="138.277" y2="76.6727" gradientUnits="userSpaceOnUse">
<stop stop-color="#86E591"/>
<stop offset="1" stop-color="#B9F65B"/>
</linearGradient>
<linearGradient id="paint1_linear_527_2009" x1="111.432" y1="56.2488" x2="123.836" y2="56.8959" gradientUnits="userSpaceOnUse">
<stop stop-color="#86E591"/>
<stop offset="1" stop-color="#B9F65B"/>
</linearGradient>
<linearGradient id="paint2_linear_527_2009" x1="82.0498" y1="78.7184" x2="122.68" y2="79.4628" gradientUnits="userSpaceOnUse">
<stop stop-color="#86E591"/>
<stop offset="1" stop-color="#B9F65B"/>
</linearGradient>
</defs>
</svg>
