<svg width="52" height="52" viewBox="0 0 52 52" fill="none" xmlns="http://www.w3.org/2000/svg">
<rect x="0.75" y="0.75" width="50.5" height="50.5" rx="7.25" fill="#191D13"/>
<rect x="0.75" y="0.75" width="50.5" height="50.5" rx="7.25" stroke="#191D13" stroke-width="1.5"/>
<path d="M21.9999 25.6434L24.6666 28.31L30.6666 22.31M36.6666 26.31C36.6666 32.8546 29.528 37.6146 26.9306 39.1299C26.6354 39.3021 26.4878 39.3882 26.2795 39.4329C26.1178 39.4675 25.882 39.4675 25.7203 39.4329C25.512 39.3882 25.3645 39.3021 25.0693 39.1299C22.4719 37.6146 15.3333 32.8546 15.3333 26.31V19.9335C15.3333 18.8675 15.3333 18.3345 15.5076 17.8763C15.6616 17.4716 15.9119 17.1104 16.2368 16.8241C16.6046 16.5 17.1036 16.3128 18.1018 15.9385L25.2509 13.2576C25.528 13.1537 25.6666 13.1017 25.8092 13.0811C25.9357 13.0628 26.0641 13.0628 26.1906 13.0811C26.3332 13.1017 26.4718 13.1537 26.749 13.2576L33.898 15.9385C34.8962 16.3128 35.3953 16.5 35.763 16.8241C36.0879 17.1104 36.3382 17.4716 36.4922 17.8763C36.6666 18.3345 36.6666 18.8675 36.6666 19.9335V26.31Z" stroke="white" stroke-width="2.1" stroke-linecap="round" stroke-linejoin="round"/>
</svg>
