<svg width="47" height="47" viewBox="0 0 47 47" fill="none" xmlns="http://www.w3.org/2000/svg">
<circle cx="23.462" cy="23.462" r="23.462" fill="white"/>
<path d="M19.8078 26.0099C20.174 26.7074 20.9053 27.183 21.7477 27.183H24.2503C25.5461 27.183 26.5965 26.1326 26.5965 24.8368C26.5965 23.5411 25.5461 22.4906 24.2503 22.4906H21.9041C20.6084 22.4906 19.5579 21.4402 19.5579 20.1444C19.5579 18.8487 20.6084 17.7982 21.9041 17.7982H24.4068C25.2492 17.7982 25.9805 18.2739 26.3467 18.9713M23.0772 16.0386V17.7982M23.0772 27.183V28.9427M32.462 23.0772C32.462 28.8353 26.1813 33.0232 23.8961 34.3564C23.6363 34.5079 23.5065 34.5837 23.3232 34.623C23.181 34.6535 22.9735 34.6535 22.8313 34.623C22.648 34.5837 22.5181 34.5079 22.2584 34.3564C19.9732 33.0232 13.6924 28.8353 13.6924 23.0772V17.467C13.6924 16.5291 13.6924 16.0601 13.8458 15.657C13.9813 15.3009 14.2015 14.9831 14.4874 14.7312C14.811 14.446 15.2501 14.2814 16.1283 13.9521L22.4182 11.5933C22.6621 11.5019 22.784 11.4562 22.9095 11.438C23.0207 11.4219 23.1337 11.4219 23.245 11.438C23.3705 11.4562 23.4924 11.5019 23.7363 11.5933L30.0262 13.9521C30.9044 14.2814 31.3435 14.446 31.6671 14.7312C31.9529 14.9831 32.1731 15.3009 32.3086 15.657C32.462 16.0601 32.462 16.5291 32.462 17.467V23.0772Z" stroke="#181523" stroke-width="2.05292" stroke-linecap="round" stroke-linejoin="round"/>
</svg>
