<svg width="47" height="48" viewBox="0 0 47 48" fill="none" xmlns="http://www.w3.org/2000/svg">
<circle cx="23.462" cy="24.376" r="23.462" fill="white"/>
<path d="M30.5006 27.3288C32.0662 28.1153 33.4085 29.3774 34.3882 30.9557C34.5822 31.2682 34.6793 31.4245 34.7128 31.6409C34.781 32.0807 34.4802 32.6213 34.0707 32.7953C33.8691 32.881 33.6424 32.881 33.189 32.881M28.3499 22.6999C29.9433 21.9081 31.0383 20.2638 31.0383 18.3638C31.0383 16.4639 29.9433 14.8196 28.3499 14.0278M26.1992 18.3638C26.1992 21.0364 24.0327 23.2029 21.3602 23.2029C18.6877 23.2029 16.5212 21.0364 16.5212 18.3638C16.5212 15.6913 18.6877 13.5248 21.3602 13.5248C24.0327 13.5248 26.1992 15.6913 26.1992 18.3638ZM13.8965 30.664C15.6109 28.0898 18.3163 26.4289 21.3602 26.4289C24.4041 26.4289 27.1095 28.0898 28.8239 30.664C29.1995 31.2279 29.3873 31.5098 29.3657 31.87C29.3488 32.1505 29.165 32.4938 28.9409 32.6633C28.6531 32.881 28.2573 32.881 27.4656 32.881H15.2548C14.4632 32.881 14.0673 32.881 13.7795 32.6633C13.5554 32.4938 13.3716 32.1505 13.3548 31.87C13.3331 31.5098 13.5209 31.2279 13.8965 30.664Z" stroke="#181523" stroke-width="2.05292" stroke-linecap="round" stroke-linejoin="round"/>
</svg>
