<svg width="493" height="432" viewBox="0 0 493 432" fill="none" xmlns="http://www.w3.org/2000/svg">
<path d="M322.68 32.9704C289.88 32.9704 263.19 59.6604 263.19 92.4604C263.19 125.26 289.88 151.95 322.68 151.95C355.48 151.95 382.17 125.26 382.17 92.4604C382.17 59.6604 355.48 32.9704 322.68 32.9704ZM298.16 133.11V98.4604H347.2V133.11C340.04 137.45 331.65 139.94 322.68 139.94C313.71 139.94 305.32 137.45 298.16 133.11ZM359.19 122.78V92.4604C359.19 89.1504 356.5 86.4604 353.19 86.4604H292.15C288.84 86.4604 286.15 89.1504 286.15 92.4604V122.78C279.3 114.55 275.18 103.98 275.18 92.4604C275.18 66.2704 296.48 44.9704 322.67 44.9704C348.86 44.9704 370.16 66.2704 370.16 92.4604C370.17 103.98 366.04 114.55 359.19 122.78ZM483.05 209.47L450.7 177.12V40.1004C450.7 18.4904 433.12 0.900391 411.5 0.900391H39.2C17.58 0.900391 0 18.4804 0 40.1004V304.92C0 326.53 17.58 344.12 39.2 344.12H172.52C171.03 368.03 166.53 393.2 159.11 419.1H128.55C125.24 419.1 122.55 421.79 122.55 425.1C122.55 428.41 125.24 431.1 128.55 431.1H322.16C325.47 431.1 328.16 428.41 328.16 425.1C328.16 421.79 325.47 419.1 322.16 419.1H291.6C284.18 393.2 279.67 368.02 278.19 344.12H411.5C433.11 344.12 450.7 326.54 450.7 304.92V259.89C454.07 261.13 457.67 261.79 461.37 261.79C469.58 261.79 477.28 258.61 483.05 252.84C495 240.88 495 221.43 483.05 209.47ZM411.5 12.9004C426.5 12.9004 438.7 25.1004 438.7 40.1004V165.13L424.8 151.23C422.46 148.89 418.66 148.89 416.31 151.23L412.43 155.11L399.51 142.19C408.81 127.86 414.23 110.78 414.23 92.4604C414.23 58.4304 395.57 28.6804 367.94 12.9004H411.5ZM393.81 173.73L382.12 162.04C385.76 158.93 389.15 155.53 392.26 151.9L403.95 163.59L393.81 173.73ZM298.16 246.11V180.68C305.97 182.85 314.19 184.02 322.68 184.02C331.17 184.02 339.39 182.85 347.2 180.68V246.11H298.16ZM249.87 246.11H200.83V157.88H249.87V246.11ZM261.87 160.84C269.05 167.23 277.24 172.51 286.16 176.41V246.11H261.87V160.84ZM322.68 172.02C278.81 172.02 243.12 136.33 243.12 92.4604C243.12 48.5904 278.81 12.9004 322.68 12.9004C366.55 12.9004 402.24 48.5904 402.24 92.4604C402.24 136.33 366.54 172.02 322.68 172.02ZM39.2 12.9004H277.4C249.78 28.6804 231.11 58.4304 231.11 92.4604C231.11 112.39 237.51 130.84 248.36 145.89H194.82C191.51 145.89 188.82 148.58 188.82 151.89V246.12H164.53V181.19C164.53 177.88 161.84 175.19 158.53 175.19H97.5C94.19 175.19 91.5 177.88 91.5 181.19V246.12H70.45C67.14 246.12 64.45 248.81 64.45 252.12C64.45 255.43 67.14 258.12 70.45 258.12H380.26C383.57 258.12 386.26 255.43 386.26 252.12C386.26 248.81 383.57 246.12 380.26 246.12H359.2V176.42C363.81 174.41 368.23 172.02 372.41 169.31L385.33 182.23L381.45 186.11C380.33 187.24 379.69 188.76 379.69 190.35C379.69 191.94 380.32 193.47 381.45 194.59L438.71 251.85V277.91H12V40.1004C12 25.1004 24.2 12.9004 39.2 12.9004ZM152.54 246.11H103.5V187.18H152.54V246.11ZM279.13 419.1H171.57C178.75 393.26 183.11 368.09 184.54 344.12H266.15C267.58 368.09 271.94 393.26 279.13 419.1ZM411.5 332.12H39.2C24.2 332.12 12 319.92 12 304.92V289.9H438.7V304.92C438.7 319.92 426.5 332.12 411.5 332.12ZM474.56 244.35C471.06 247.85 466.37 249.79 461.37 249.79C456.37 249.79 451.68 247.86 448.18 244.35L394.17 190.34L420.56 163.95L474.57 217.96C481.84 225.23 481.84 237.07 474.56 244.35ZM269.62 310.73C269.62 314.04 266.93 316.73 263.62 316.73H187.07C183.76 316.73 181.07 314.04 181.07 310.73C181.07 307.42 183.76 304.73 187.07 304.73H263.62C266.94 304.73 269.62 307.41 269.62 310.73ZM41.17 46.1504C41.17 42.8404 43.86 40.1504 47.17 40.1504H114.73C118.04 40.1504 120.73 42.8404 120.73 46.1504C120.73 49.4604 118.04 52.1504 114.73 52.1504H47.17C43.85 52.1504 41.17 49.4604 41.17 46.1504ZM130.77 46.1504C130.77 42.8404 133.46 40.1504 136.77 40.1504H154.03C157.34 40.1504 160.03 42.8404 160.03 46.1504C160.03 49.4604 157.34 52.1504 154.03 52.1504H136.77C133.45 52.1504 130.77 49.4604 130.77 46.1504ZM41.17 73.3704C41.17 70.0604 43.86 67.3704 47.17 67.3704H114.73C118.04 67.3704 120.73 70.0604 120.73 73.3704C120.73 76.6804 118.04 79.3704 114.73 79.3704H47.17C43.85 79.3704 41.17 76.6804 41.17 73.3704ZM130.77 73.3704C130.77 70.0604 133.46 67.3704 136.77 67.3704H154.03C157.34 67.3704 160.03 70.0604 160.03 73.3704C160.03 76.6804 157.34 79.3704 154.03 79.3704H136.77C133.45 79.3704 130.77 76.6804 130.77 73.3704ZM41.17 100.58C41.17 97.2704 43.86 94.5804 47.17 94.5804H114.73C118.04 94.5804 120.73 97.2704 120.73 100.58C120.73 103.89 118.04 106.58 114.73 106.58H47.17C43.85 106.58 41.17 103.9 41.17 100.58ZM130.77 100.58C130.77 97.2704 133.46 94.5804 136.77 94.5804H154.03C157.34 94.5804 160.03 97.2704 160.03 100.58C160.03 103.89 157.34 106.58 154.03 106.58H136.77C133.45 106.58 130.77 103.9 130.77 100.58ZM41.17 127.8C41.17 124.49 43.86 121.8 47.17 121.8H114.73C118.04 121.8 120.73 124.49 120.73 127.8C120.73 131.11 118.04 133.8 114.73 133.8H47.17C43.85 133.8 41.17 131.12 41.17 127.8ZM130.77 127.8C130.77 124.49 133.46 121.8 136.77 121.8H154.03C157.34 121.8 160.03 124.49 160.03 127.8C160.03 131.11 157.34 133.8 154.03 133.8H136.77C133.45 133.8 130.77 131.12 130.77 127.8Z" fill="url(#paint0_linear_721_28694)"/>
<defs>
<linearGradient id="paint0_linear_721_28694" x1="246.006" y1="0.900391" x2="246.006" y2="431.1" gradientUnits="userSpaceOnUse">
<stop stop-color="#5CFF80"/>
<stop offset="1" stop-color="#BEF856"/>
</linearGradient>
</defs>
</svg>
