<svg width="502" height="502" viewBox="0 0 502 502" fill="none" xmlns="http://www.w3.org/2000/svg">
<path d="M131.984 451.98L141.12 446.911L146.19 456.047L137.054 461.116L131.984 451.98Z" fill="url(#paint0_linear_721_28613)"/>
<path d="M160.238 454.961L164.491 445.419C161.656 444.157 158.851 442.829 156.076 441.439L153.608 440.205L150.421 441.977L153.251 447.074L151.395 450.777C154.312 452.238 157.26 453.633 160.238 454.961Z" fill="url(#paint1_linear_721_28613)"/>
<path d="M42.2275 330.032C43.4873 333.365 44.8334 336.672 46.259 339.946L55.8339 335.774C54.4771 332.659 53.1971 329.514 51.9987 326.34L42.2275 330.032Z" fill="url(#paint2_linear_721_28613)"/>
<path d="M113.676 462.15L122.807 457.083L127.876 466.219L118.745 471.286L113.676 462.15Z" fill="url(#paint3_linear_721_28613)"/>
<path d="M87.3975 472.42L80.0107 465.023L87.4041 457.64L94.7909 465.037L87.3975 472.42Z" fill="url(#paint4_linear_721_28613)"/>
<path d="M173.901 449.332L170.127 459.073C173.447 460.358 176.803 461.569 180.184 462.696L183.489 452.787C180.26 451.711 177.068 450.561 173.901 449.332Z" fill="url(#paint5_linear_721_28613)"/>
<path d="M46.7744 353.961L55.9083 359.025L61.7984 348.394L60.1157 345L54.8091 347.652L51.336 345.727L46.7744 353.961Z" fill="url(#paint6_linear_721_28613)"/>
<path d="M97.7223 483.16L109.827 476.446L104.757 467.312L96.1084 472.111L98.3649 476.176L94.5479 479.965L97.7223 483.16Z" fill="url(#paint7_linear_721_28613)"/>
<path d="M45.9473 377.195L36.8138 372.133L41.8764 362.999L51.0098 368.062L45.9473 377.195Z" fill="url(#paint8_linear_721_28613)"/>
<path d="M21.4692 399.641L18.9092 404.261L28.1198 413.479L35.5092 406.094L29.0782 399.659L26.3753 402.362L21.4692 399.641Z" fill="url(#paint9_linear_721_28613)"/>
<path d="M43.0928 428.123L35.706 420.726L43.0994 413.343L50.4862 420.74L43.0928 428.123Z" fill="url(#paint10_linear_721_28613)"/>
<path d="M72.248 457.773L64.864 450.389L72.2518 443.002L79.6359 450.386L72.248 457.773Z" fill="url(#paint11_linear_721_28613)"/>
<path d="M57.8613 442.891L50.4746 435.493L57.868 428.11L65.2547 435.508L57.8613 442.891Z" fill="url(#paint12_linear_721_28613)"/>
<path d="M35.6885 395.398L26.555 390.336L31.6176 381.202L40.751 386.265L35.6885 395.398Z" fill="url(#paint13_linear_721_28613)"/>
<path d="M461.834 114.963L470.972 120.028L465.91 129.161L456.771 124.096L461.834 114.963Z" fill="url(#paint14_linear_721_28613)"/>
<path d="M421.535 36.1074L428.923 43.4953L421.539 50.8794L414.151 43.4915L421.535 36.1074Z" fill="url(#paint15_linear_721_28613)"/>
<path d="M473.267 87.8633L465.883 95.2474L458.495 87.8595L465.879 80.4754L473.267 87.8633Z" fill="url(#paint16_linear_721_28613)"/>
<path d="M462.628 180.177C461.613 177.127 460.522 174.093 459.369 171.084L449.618 174.827C450.719 177.694 451.75 180.58 452.724 183.487L462.628 180.177Z" fill="url(#paint17_linear_721_28613)"/>
<path d="M455.843 147.039L446.716 141.964L451.794 132.832L460.921 137.908L455.843 147.039Z" fill="url(#paint18_linear_721_28613)"/>
<path d="M441.402 156.175C442.922 159.222 444.366 162.3 445.742 165.408L455.289 161.186C453.85 157.93 452.336 154.704 450.745 151.514L441.402 156.175Z" fill="url(#paint19_linear_721_28613)"/>
<path d="M443.727 58.3164L436.342 65.7005L428.958 58.3164L436.342 50.9323L443.727 58.3164Z" fill="url(#paint20_linear_721_28613)"/>
<path d="M363.789 41.3379L372.92 36.2709L377.99 45.4066L368.859 50.4735L363.789 41.3379Z" fill="url(#paint21_linear_721_28613)"/>
<path d="M354.724 46.1777L359.793 55.3134L350.662 60.3804L345.593 51.2447L354.724 46.1777Z" fill="url(#paint22_linear_721_28613)"/>
<path d="M396.546 35.0859L387.41 40.1555L382.341 31.0199L391.476 25.9503L396.546 35.0859Z" fill="url(#paint23_linear_721_28613)"/>
<path d="M476.105 110.488L466.979 105.413L472.054 96.2863L481.181 101.361L476.105 110.488Z" fill="url(#paint24_linear_721_28613)"/>
<path d="M406.743 36.2048L414.127 28.8202L404.203 18.8906L400.449 20.9866L403.173 25.5029L399.608 29.0677L406.743 36.2048Z" fill="url(#paint25_linear_721_28613)"/>
<path d="M458.494 73.0859L451.11 80.47L443.726 73.0859L451.11 65.7019L458.494 73.0859Z" fill="url(#paint26_linear_721_28613)"/>
<path d="M427.188 153.589L456.043 101.588L400.409 45.9575L348.411 74.8124C335.127 67.4508 321.112 61.6423 306.684 57.5111L290.319 0.333984H211.685L195.274 57.5105C180.847 61.6364 166.832 67.4476 153.542 74.8119L101.539 45.9569L45.9559 101.586L74.765 153.587C67.4034 166.874 61.5949 180.886 57.4637 195.319L0.333008 211.681V290.369L57.4637 306.732C61.5922 321.164 67.4034 335.176 74.765 348.464L45.9559 400.464L101.539 456.093L153.537 427.241C166.71 434.577 180.744 440.386 195.32 444.539L211.68 501.667H290.32L306.685 444.537C321.118 440.406 335.132 434.597 348.412 427.238L400.41 456.093L456.044 400.461L427.189 348.461C434.553 335.171 440.362 321.162 444.488 306.732L501.666 290.369V211.681L444.487 195.319C440.361 180.889 434.553 166.879 427.188 153.589ZM491.222 282.495L435.966 298.307L435.195 301.158C431.014 316.669 424.782 331.704 416.678 345.843L415.209 348.4L443.09 398.646L398.594 443.139L348.35 415.259L345.795 416.722C331.658 424.828 316.624 431.06 301.105 435.248L298.259 436.015L282.445 491.223H219.554L203.74 436.012L200.889 435.245C185.202 431.027 170.158 424.798 156.174 416.73L153.614 415.254L103.36 443.14L58.9053 398.644L86.7426 348.398L85.2791 345.843C77.173 331.706 70.941 316.669 66.7538 301.158L65.9863 298.31L10.7773 282.495V219.555L65.9853 203.741L66.7527 200.893C70.9399 185.382 77.1719 170.345 85.2781 156.208L86.7415 153.653L58.9042 103.407L103.359 58.9111L153.603 86.7916L156.158 85.3281C170.305 77.2167 185.339 70.9846 200.848 66.8007L203.694 66.0332L219.549 10.7788H282.445L298.259 66.0327L301.105 66.8001C316.619 70.9873 331.653 77.2193 345.795 85.3276L348.35 86.791L398.594 58.9105L443.09 103.404L415.209 153.65L416.678 156.207C424.782 170.346 431.014 185.38 435.195 200.892L435.966 203.743L491.222 219.555V282.495Z" fill="url(#paint27_linear_721_28613)"/>
<path d="M250.999 82.1484C212.383 82.1484 174.634 95.5202 144.704 119.803L151.282 127.912C179.357 105.136 214.77 92.5927 250.999 92.5927C338.344 92.5927 409.405 163.654 409.405 251.001C409.405 338.348 338.344 409.409 250.999 409.409C163.655 409.409 92.5913 338.348 92.5913 251.001C92.5913 215.363 104.148 181.707 126.008 153.671L117.777 147.25C94.4654 177.135 82.1465 213.012 82.1465 251.001C82.1465 344.106 157.892 419.853 250.999 419.853C344.102 419.853 419.849 344.106 419.849 251.001C419.849 157.896 344.102 82.1484 250.999 82.1484Z" fill="url(#paint28_linear_721_28613)"/>
<path d="M340.869 353.783L347.754 361.637C352.935 357.1 357.847 352.151 362.35 346.931L354.445 340.107C350.253 344.96 345.688 349.563 340.869 353.783Z" fill="url(#paint29_linear_721_28613)"/>
<path d="M251 398.033C279.391 398.033 306.965 389.891 330.746 374.487L325.065 365.721C302.983 380.028 277.371 387.589 251 387.589C232.324 387.589 214.22 383.871 197.181 376.54L193.051 386.133C211.4 394.03 230.897 398.033 251 398.033Z" fill="url(#paint30_linear_721_28613)"/>
<path d="M152.456 340.342H162.9V316.663H180.861V243.193H162.9V219.529H152.456V243.193H134.52V316.663H152.456V340.342ZM144.964 253.637H170.417V306.219H144.964V253.637Z" fill="url(#paint31_linear_721_28613)"/>
<path d="M276.871 216.203V236.618H258.93V316.664H276.871V337.071H287.315V316.664H305.272V236.618H287.315V216.203H276.871ZM294.827 306.22H269.374V247.062H294.827V306.22Z" fill="url(#paint32_linear_721_28613)"/>
<path d="M214.694 163.732V184.55H196.728V259.665H214.694V284.598H225.139V259.665H243.07V184.55H225.139V163.732H214.694ZM232.625 249.221H207.172V194.995H232.625V249.221Z" fill="url(#paint33_linear_721_28613)"/>
<path d="M339.105 161.66V183.729H321.138V260.487H339.105V282.528H349.549V260.487H367.48V183.729H349.549V161.66H339.105ZM357.036 250.043H331.582V194.174H357.036V250.043Z" fill="url(#paint34_linear_721_28613)"/>
<path d="M152.456 266.029H162.899V292.547H152.456V266.029Z" fill="url(#paint35_linear_721_28613)"/>
<path d="M214.675 208.846H225.117V235.363H214.675V208.846Z" fill="url(#paint36_linear_721_28613)"/>
<path d="M276.883 275.412H287.325V289.897H276.883V275.412Z" fill="url(#paint37_linear_721_28613)"/>
<path d="M276.883 260.467H287.325V268.893H276.883V260.467Z" fill="url(#paint38_linear_721_28613)"/>
<path d="M339.085 218.457H349.528V235.369H339.085V218.457Z" fill="url(#paint39_linear_721_28613)"/>
<path d="M339.085 204.643H349.528V213.139H339.085V204.643Z" fill="url(#paint40_linear_721_28613)"/>
<defs>
<linearGradient id="paint0_linear_721_28613" x1="136.552" y1="449.446" x2="141.622" y2="458.581" gradientUnits="userSpaceOnUse">
<stop stop-color="#5CFF80"/>
<stop offset="1" stop-color="#BEF856"/>
</linearGradient>
<linearGradient id="paint1_linear_721_28613" x1="157.456" y1="440.205" x2="157.456" y2="454.961" gradientUnits="userSpaceOnUse">
<stop stop-color="#5CFF80"/>
<stop offset="1" stop-color="#BEF856"/>
</linearGradient>
<linearGradient id="paint2_linear_721_28613" x1="49.0307" y1="326.34" x2="49.0307" y2="339.946" gradientUnits="userSpaceOnUse">
<stop stop-color="#5CFF80"/>
<stop offset="1" stop-color="#BEF856"/>
</linearGradient>
<linearGradient id="paint3_linear_721_28613" x1="118.241" y1="459.617" x2="123.311" y2="468.753" gradientUnits="userSpaceOnUse">
<stop stop-color="#5CFF80"/>
<stop offset="1" stop-color="#BEF856"/>
</linearGradient>
<linearGradient id="paint4_linear_721_28613" x1="83.7041" y1="468.721" x2="91.0975" y2="461.338" gradientUnits="userSpaceOnUse">
<stop stop-color="#5CFF80"/>
<stop offset="1" stop-color="#BEF856"/>
</linearGradient>
<linearGradient id="paint5_linear_721_28613" x1="176.808" y1="449.332" x2="176.808" y2="462.696" gradientUnits="userSpaceOnUse">
<stop stop-color="#5CFF80"/>
<stop offset="1" stop-color="#BEF856"/>
</linearGradient>
<linearGradient id="paint6_linear_721_28613" x1="54.2864" y1="345" x2="54.2864" y2="359.025" gradientUnits="userSpaceOnUse">
<stop stop-color="#5CFF80"/>
<stop offset="1" stop-color="#BEF856"/>
</linearGradient>
<linearGradient id="paint7_linear_721_28613" x1="102.187" y1="467.312" x2="102.187" y2="483.16" gradientUnits="userSpaceOnUse">
<stop stop-color="#5CFF80"/>
<stop offset="1" stop-color="#BEF856"/>
</linearGradient>
<linearGradient id="paint8_linear_721_28613" x1="41.3805" y1="374.664" x2="46.4431" y2="365.531" gradientUnits="userSpaceOnUse">
<stop stop-color="#5CFF80"/>
<stop offset="1" stop-color="#BEF856"/>
</linearGradient>
<linearGradient id="paint9_linear_721_28613" x1="27.2092" y1="399.641" x2="27.2092" y2="413.479" gradientUnits="userSpaceOnUse">
<stop stop-color="#5CFF80"/>
<stop offset="1" stop-color="#BEF856"/>
</linearGradient>
<linearGradient id="paint10_linear_721_28613" x1="39.3994" y1="424.424" x2="46.7928" y2="417.041" gradientUnits="userSpaceOnUse">
<stop stop-color="#5CFF80"/>
<stop offset="1" stop-color="#BEF856"/>
</linearGradient>
<linearGradient id="paint11_linear_721_28613" x1="68.556" y1="454.081" x2="75.9439" y2="446.694" gradientUnits="userSpaceOnUse">
<stop stop-color="#5CFF80"/>
<stop offset="1" stop-color="#BEF856"/>
</linearGradient>
<linearGradient id="paint12_linear_721_28613" x1="54.168" y1="439.192" x2="61.5614" y2="431.809" gradientUnits="userSpaceOnUse">
<stop stop-color="#5CFF80"/>
<stop offset="1" stop-color="#BEF856"/>
</linearGradient>
<linearGradient id="paint13_linear_721_28613" x1="31.1217" y1="392.867" x2="36.1843" y2="383.734" gradientUnits="userSpaceOnUse">
<stop stop-color="#5CFF80"/>
<stop offset="1" stop-color="#BEF856"/>
</linearGradient>
<linearGradient id="paint14_linear_721_28613" x1="466.403" y1="117.495" x2="461.341" y2="126.629" gradientUnits="userSpaceOnUse">
<stop stop-color="#5CFF80"/>
<stop offset="1" stop-color="#BEF856"/>
</linearGradient>
<linearGradient id="paint15_linear_721_28613" x1="425.229" y1="39.8014" x2="417.845" y2="47.1854" gradientUnits="userSpaceOnUse">
<stop stop-color="#5CFF80"/>
<stop offset="1" stop-color="#BEF856"/>
</linearGradient>
<linearGradient id="paint16_linear_721_28613" x1="469.575" y1="91.5553" x2="462.187" y2="84.1675" gradientUnits="userSpaceOnUse">
<stop stop-color="#5CFF80"/>
<stop offset="1" stop-color="#BEF856"/>
</linearGradient>
<linearGradient id="paint17_linear_721_28613" x1="456.123" y1="171.084" x2="456.123" y2="183.487" gradientUnits="userSpaceOnUse">
<stop stop-color="#5CFF80"/>
<stop offset="1" stop-color="#BEF856"/>
</linearGradient>
<linearGradient id="paint18_linear_721_28613" x1="451.279" y1="144.501" x2="456.357" y2="135.37" gradientUnits="userSpaceOnUse">
<stop stop-color="#5CFF80"/>
<stop offset="1" stop-color="#BEF856"/>
</linearGradient>
<linearGradient id="paint19_linear_721_28613" x1="448.346" y1="151.514" x2="448.346" y2="165.408" gradientUnits="userSpaceOnUse">
<stop stop-color="#5CFF80"/>
<stop offset="1" stop-color="#BEF856"/>
</linearGradient>
<linearGradient id="paint20_linear_721_28613" x1="440.035" y1="62.0084" x2="432.65" y2="54.6244" gradientUnits="userSpaceOnUse">
<stop stop-color="#5CFF80"/>
<stop offset="1" stop-color="#BEF856"/>
</linearGradient>
<linearGradient id="paint21_linear_721_28613" x1="368.355" y1="38.8044" x2="373.424" y2="47.9401" gradientUnits="userSpaceOnUse">
<stop stop-color="#5CFF80"/>
<stop offset="1" stop-color="#BEF856"/>
</linearGradient>
<linearGradient id="paint22_linear_721_28613" x1="357.258" y1="50.7456" x2="348.127" y2="55.8125" gradientUnits="userSpaceOnUse">
<stop stop-color="#5CFF80"/>
<stop offset="1" stop-color="#BEF856"/>
</linearGradient>
<linearGradient id="paint23_linear_721_28613" x1="391.978" y1="37.6207" x2="386.908" y2="28.4851" gradientUnits="userSpaceOnUse">
<stop stop-color="#5CFF80"/>
<stop offset="1" stop-color="#BEF856"/>
</linearGradient>
<linearGradient id="paint24_linear_721_28613" x1="471.542" y1="107.951" x2="476.617" y2="98.8238" gradientUnits="userSpaceOnUse">
<stop stop-color="#5CFF80"/>
<stop offset="1" stop-color="#BEF856"/>
</linearGradient>
<linearGradient id="paint25_linear_721_28613" x1="406.868" y1="18.8906" x2="406.868" y2="36.2048" gradientUnits="userSpaceOnUse">
<stop stop-color="#5CFF80"/>
<stop offset="1" stop-color="#BEF856"/>
</linearGradient>
<linearGradient id="paint26_linear_721_28613" x1="454.802" y1="76.778" x2="447.418" y2="69.3939" gradientUnits="userSpaceOnUse">
<stop stop-color="#5CFF80"/>
<stop offset="1" stop-color="#BEF856"/>
</linearGradient>
<linearGradient id="paint27_linear_721_28613" x1="251" y1="0.333984" x2="251" y2="501.667" gradientUnits="userSpaceOnUse">
<stop stop-color="#5CFF80"/>
<stop offset="1" stop-color="#BEF856"/>
</linearGradient>
<linearGradient id="paint28_linear_721_28613" x1="250.998" y1="82.1484" x2="250.998" y2="419.853" gradientUnits="userSpaceOnUse">
<stop stop-color="#5CFF80"/>
<stop offset="1" stop-color="#BEF856"/>
</linearGradient>
<linearGradient id="paint29_linear_721_28613" x1="351.609" y1="340.107" x2="351.609" y2="361.637" gradientUnits="userSpaceOnUse">
<stop stop-color="#5CFF80"/>
<stop offset="1" stop-color="#BEF856"/>
</linearGradient>
<linearGradient id="paint30_linear_721_28613" x1="261.899" y1="365.721" x2="261.899" y2="398.033" gradientUnits="userSpaceOnUse">
<stop stop-color="#5CFF80"/>
<stop offset="1" stop-color="#BEF856"/>
</linearGradient>
<linearGradient id="paint31_linear_721_28613" x1="157.69" y1="219.529" x2="157.69" y2="340.342" gradientUnits="userSpaceOnUse">
<stop stop-color="#5CFF80"/>
<stop offset="1" stop-color="#BEF856"/>
</linearGradient>
<linearGradient id="paint32_linear_721_28613" x1="282.101" y1="216.203" x2="282.101" y2="337.071" gradientUnits="userSpaceOnUse">
<stop stop-color="#5CFF80"/>
<stop offset="1" stop-color="#BEF856"/>
</linearGradient>
<linearGradient id="paint33_linear_721_28613" x1="219.899" y1="163.732" x2="219.899" y2="284.598" gradientUnits="userSpaceOnUse">
<stop stop-color="#5CFF80"/>
<stop offset="1" stop-color="#BEF856"/>
</linearGradient>
<linearGradient id="paint34_linear_721_28613" x1="344.309" y1="161.66" x2="344.309" y2="282.528" gradientUnits="userSpaceOnUse">
<stop stop-color="#5CFF80"/>
<stop offset="1" stop-color="#BEF856"/>
</linearGradient>
<linearGradient id="paint35_linear_721_28613" x1="157.677" y1="266.029" x2="157.677" y2="292.547" gradientUnits="userSpaceOnUse">
<stop stop-color="#5CFF80"/>
<stop offset="1" stop-color="#BEF856"/>
</linearGradient>
<linearGradient id="paint36_linear_721_28613" x1="219.896" y1="208.846" x2="219.896" y2="235.363" gradientUnits="userSpaceOnUse">
<stop stop-color="#5CFF80"/>
<stop offset="1" stop-color="#BEF856"/>
</linearGradient>
<linearGradient id="paint37_linear_721_28613" x1="282.104" y1="275.412" x2="282.104" y2="289.897" gradientUnits="userSpaceOnUse">
<stop stop-color="#5CFF80"/>
<stop offset="1" stop-color="#BEF856"/>
</linearGradient>
<linearGradient id="paint38_linear_721_28613" x1="282.104" y1="260.467" x2="282.104" y2="268.893" gradientUnits="userSpaceOnUse">
<stop stop-color="#5CFF80"/>
<stop offset="1" stop-color="#BEF856"/>
</linearGradient>
<linearGradient id="paint39_linear_721_28613" x1="344.306" y1="218.457" x2="344.306" y2="235.369" gradientUnits="userSpaceOnUse">
<stop stop-color="#5CFF80"/>
<stop offset="1" stop-color="#BEF856"/>
</linearGradient>
<linearGradient id="paint40_linear_721_28613" x1="344.306" y1="204.643" x2="344.306" y2="213.139" gradientUnits="userSpaceOnUse">
<stop stop-color="#5CFF80"/>
<stop offset="1" stop-color="#BEF856"/>
</linearGradient>
</defs>
</svg>
