<svg width="490" height="504" viewBox="0 0 490 504" fill="none" xmlns="http://www.w3.org/2000/svg">
<path d="M227.728 247.564C182.911 247.564 143.202 219.04 128.912 176.601C128.514 175.429 128.514 174.143 128.912 172.971C143.202 130.521 182.911 102.008 227.728 102.008C272.545 102.008 312.253 130.532 326.544 172.971C326.942 174.143 326.942 175.429 326.544 176.601C312.265 219.04 272.545 247.564 227.728 247.564ZM140.324 174.78C153.568 211.587 188.44 236.186 227.728 236.186C267.015 236.186 301.888 211.587 315.132 174.78C301.888 137.973 267.015 113.374 227.728 113.374C188.452 113.374 153.568 137.973 140.324 174.78Z" fill="url(#paint0_linear_721_28656)"/>
<path d="M306.11 208.765C304.608 208.765 303.117 208.173 301.991 207.001C293.662 198.286 289.077 186.84 289.077 174.779C289.077 162.719 293.662 151.273 301.991 142.558C304.164 140.282 307.759 140.202 310.035 142.376C312.311 144.549 312.39 148.144 310.217 150.42C303.925 157.007 300.455 165.666 300.455 174.779C300.455 183.893 303.925 192.552 310.217 199.139C312.39 201.415 312.299 205.01 310.035 207.183C308.943 208.242 307.521 208.765 306.11 208.765Z" fill="url(#paint1_linear_721_28656)"/>
<path d="M149.358 208.765C147.947 208.765 146.536 208.242 145.433 207.195C143.157 205.022 143.077 201.427 145.251 199.151C151.542 192.563 155.013 183.905 155.013 174.791C155.013 165.678 151.542 157.019 145.251 150.431C143.077 148.156 143.157 144.56 145.433 142.387C147.708 140.214 151.304 140.294 153.477 142.569C161.805 151.285 166.39 162.731 166.39 174.791C166.39 186.852 161.805 198.298 153.477 207.013C152.35 208.174 150.848 208.765 149.358 208.765Z" fill="url(#paint2_linear_721_28656)"/>
<path d="M227.728 221.44C202.003 221.44 181.067 200.505 181.067 174.779C181.067 149.054 202.003 128.119 227.728 128.119C253.453 128.119 274.388 149.054 274.388 174.779C274.388 200.505 253.464 221.44 227.728 221.44ZM227.728 139.497C208.272 139.497 192.445 155.323 192.445 174.779C192.445 194.235 208.272 210.062 227.728 210.062C247.184 210.062 263.01 194.235 263.01 174.779C263.01 155.323 247.184 139.497 227.728 139.497Z" fill="url(#paint3_linear_721_28656)"/>
<path d="M227.728 197.684C215.098 197.684 204.824 187.41 204.824 174.78C204.824 162.151 215.098 151.877 227.728 151.877C240.357 151.877 250.631 162.151 250.631 174.78C250.643 187.41 240.368 197.684 227.728 197.684ZM227.728 163.255C221.368 163.255 216.202 168.432 216.202 174.78C216.202 181.141 221.379 186.306 227.728 186.306C234.088 186.306 239.253 181.129 239.253 174.78C239.265 168.42 234.088 163.255 227.728 163.255Z" fill="url(#paint4_linear_721_28656)"/>
<path d="M103.915 394.2H80.625C73.5025 394.2 67.7112 388.409 67.7112 381.286V355.345C62.9098 353.32 58.3928 350.703 54.2286 347.551L31.7575 360.522C25.5907 364.083 17.6718 361.967 14.1105 355.789L2.47105 335.616C-1.09019 329.449 1.02607 321.53 7.20421 317.969L29.6753 304.998C29.3567 302.416 29.1975 299.81 29.1975 297.216C29.1975 294.61 29.3567 292.005 29.6753 289.434L7.20421 276.463C4.22323 274.745 2.08421 271.957 1.19674 268.612C0.297897 265.279 0.753008 261.797 2.48243 258.816L14.1219 238.643C17.6831 232.476 25.6021 230.349 31.7688 233.91L54.2399 246.881C59.4055 242.967 65.083 239.906 71.1928 237.733C71.8755 237.448 72.6151 237.289 73.4001 237.289C76.5404 237.289 79.089 239.826 79.089 242.967C79.089 245.39 77.553 247.563 75.2661 248.36C69.0993 250.51 63.4559 253.776 58.4839 258.065C56.652 259.647 54.0238 259.897 51.9189 258.691L26.0572 243.763C25.329 243.342 24.3733 243.604 23.9523 244.332L12.3242 264.505C12.0511 264.983 12.1194 265.438 12.1763 265.677C12.2332 265.916 12.4152 266.337 12.8817 266.61L38.732 281.537C40.8255 282.743 41.9292 285.144 41.4741 287.522C40.8711 290.708 40.5639 293.973 40.5639 297.227C40.5639 300.481 40.8711 303.747 41.4741 306.933C41.9292 309.311 40.8255 311.711 38.732 312.917L12.8817 327.845C12.1535 328.266 11.9032 329.222 12.3128 329.95L23.9523 350.123C24.3733 350.851 25.329 351.101 26.0572 350.691L51.9189 335.764C54.0124 334.558 56.652 334.797 58.4839 336.39C63.4559 340.679 69.0993 343.944 75.2661 346.095C77.553 346.891 79.089 349.042 79.089 351.465V381.309C79.089 382.14 79.7944 382.845 80.625 382.845H103.915C104.746 382.845 105.451 382.14 105.451 381.309V351.477C105.451 349.053 106.987 346.903 109.274 346.106C115.441 343.956 121.096 340.69 126.056 336.401C127.888 334.819 130.528 334.569 132.621 335.775L158.472 350.703C158.938 350.976 159.405 350.908 159.632 350.851C159.871 350.794 160.292 350.612 160.565 350.145L170.76 332.476C172.33 329.756 175.811 328.823 178.531 330.394C181.25 331.964 182.183 335.445 180.613 338.165L170.418 355.834C168.7 358.815 165.913 360.954 162.568 361.842C159.234 362.729 155.752 362.285 152.771 360.556L130.3 347.585C126.136 350.748 121.619 353.354 116.818 355.379V381.309C116.829 388.409 111.038 394.2 103.915 394.2Z" fill="url(#paint5_linear_721_28656)"/>
<path d="M92.2755 337.847C69.8727 337.847 51.6455 319.62 51.6455 297.217C51.6455 278.364 64.4341 262.128 82.741 257.725C85.8016 256.985 88.8736 258.874 89.6018 261.923C90.3413 264.973 88.4526 268.045 85.4034 268.784C72.2279 271.958 63.0233 283.643 63.0233 297.217C63.0233 313.339 76.1419 326.469 92.2755 326.469C104.689 326.469 115.782 318.607 119.878 306.9C120.913 303.941 124.167 302.371 127.126 303.418C130.095 304.453 131.654 307.707 130.607 310.666C124.918 326.936 109.502 337.847 92.2755 337.847Z" fill="url(#paint6_linear_721_28656)"/>
<path d="M215.656 503.291H198.259C192.15 503.291 187.177 498.319 187.177 492.209V473.777C184.105 472.401 181.181 470.717 178.451 468.737L162.488 477.953C159.928 479.432 156.947 479.819 154.079 479.057C151.212 478.294 148.823 476.451 147.344 473.891L138.651 458.827C135.591 453.536 137.411 446.744 142.713 443.683L158.676 434.467C158.505 432.795 158.414 431.111 158.414 429.427C158.414 427.743 158.505 426.059 158.676 424.386L142.713 415.17C140.153 413.691 138.321 411.302 137.548 408.435C136.774 405.567 137.172 402.587 138.651 400.027L147.344 384.962C150.404 379.672 157.197 377.851 162.488 380.9L178.451 390.116C181.181 388.125 184.105 386.441 187.177 385.065V366.644C187.177 360.534 192.15 355.551 198.259 355.551H215.656C221.766 355.551 226.738 360.523 226.738 366.644V385.065C229.81 386.441 232.734 388.125 235.465 390.116L251.428 380.9C253.988 379.421 256.969 379.035 259.836 379.797C262.703 380.559 265.092 382.402 266.572 384.962L275.264 400.027C278.325 405.317 276.504 412.121 271.202 415.17L255.239 424.386C255.41 426.059 255.501 427.743 255.501 429.427C255.501 431.111 255.41 432.795 255.239 434.467L271.202 443.683C273.762 445.162 275.594 447.551 276.368 450.419C277.13 453.286 276.743 456.278 275.264 458.827L266.572 473.891C263.511 479.182 256.718 481.002 251.428 477.953L235.465 468.737C232.734 470.728 229.81 472.412 226.738 473.789V492.209C226.749 498.319 221.766 503.291 215.656 503.291ZM198.555 491.913H215.372V469.92C215.372 467.497 216.908 465.346 219.195 464.55C223.632 463.003 227.682 460.659 231.255 457.575C233.087 455.994 235.726 455.743 237.82 456.95L256.878 467.952L265.286 453.388L246.239 442.386C244.146 441.18 243.042 438.779 243.497 436.401C243.93 434.114 244.157 431.759 244.157 429.427C244.157 427.083 243.941 424.739 243.497 422.452C243.042 420.074 244.146 417.673 246.239 416.467L265.286 405.465L256.878 390.902L237.82 401.904C235.726 403.11 233.087 402.86 231.255 401.278C227.682 398.195 223.62 395.839 219.195 394.303C216.908 393.507 215.372 391.357 215.372 388.933V366.94H198.555V388.933C198.555 391.357 197.019 393.507 194.732 394.303C190.295 395.851 186.244 398.195 182.672 401.278C180.84 402.86 178.2 403.11 176.107 401.904L157.049 390.902L148.641 405.465L167.687 416.467C169.781 417.673 170.884 420.074 170.429 422.452C169.997 424.739 169.769 427.083 169.769 429.427C169.769 431.771 169.986 434.114 170.429 436.401C170.884 438.779 169.781 441.18 167.687 442.386L148.641 453.388L157.049 467.952L176.107 456.95C178.2 455.743 180.84 455.982 182.672 457.575C186.244 460.659 190.306 463.014 194.732 464.55C197.019 465.346 198.555 467.497 198.555 469.92V491.913Z" fill="url(#paint7_linear_721_28656)"/>
<path d="M206.964 456.255C192.172 456.255 180.135 444.218 180.135 429.426C180.135 414.635 192.172 402.598 206.964 402.598C221.755 402.598 233.792 414.635 233.792 429.426C233.792 444.229 221.755 456.255 206.964 456.255ZM206.964 413.975C198.442 413.975 191.513 420.905 191.513 429.426C191.513 437.948 198.442 444.877 206.964 444.877C215.486 444.877 222.415 437.948 222.415 429.426C222.415 420.905 215.486 413.975 206.964 413.975Z" fill="url(#paint8_linear_721_28656)"/>
<path d="M227.728 349.088C183.071 349.088 138.413 332.09 104.416 298.093C36.4225 230.099 36.4225 119.473 104.416 51.4796C172.41 -16.514 283.047 -16.514 351.029 51.4796C419.023 119.473 419.023 230.111 351.029 298.093C317.044 332.09 272.386 349.088 227.728 349.088ZM227.728 11.8508C185.983 11.8508 144.238 27.7455 112.46 59.5237C48.9039 123.08 48.9039 226.493 112.46 290.049C176.016 353.605 279.429 353.605 342.985 290.049C406.542 226.493 406.542 123.08 342.985 59.5237C311.219 27.7342 269.474 11.8508 227.728 11.8508Z" fill="url(#paint9_linear_721_28656)"/>
<path d="M227.728 314.556C191.922 314.556 156.105 300.925 128.844 273.664C102.436 247.256 87.8838 212.133 87.8838 174.78C87.8838 137.427 102.425 102.315 128.844 75.8956C183.366 21.3733 272.09 21.3733 326.612 75.8956C353.02 102.303 367.572 137.427 367.572 174.78C367.572 212.133 353.032 247.245 326.612 273.664C299.351 300.925 263.545 314.556 227.728 314.556ZM136.899 83.9397C112.63 108.209 99.2729 140.465 99.2729 174.78C99.2729 209.095 112.63 241.351 136.899 265.62C186.984 315.705 268.483 315.705 318.58 265.62C342.848 241.351 356.206 209.095 356.206 174.78C356.206 140.465 342.848 108.209 318.58 83.9397C268.483 33.8547 186.984 33.8547 136.899 83.9397Z" fill="url(#paint10_linear_721_28656)"/>
<path d="M342.905 327.857C334.201 327.857 325.486 324.911 318.455 318.96C316.054 316.923 315.758 313.339 317.795 310.939C319.831 308.538 323.415 308.242 325.816 310.279C336.261 319.131 352.042 318.471 361.736 308.777C371.43 299.083 372.089 283.302 363.238 272.857C361.201 270.456 361.508 266.872 363.897 264.836C366.298 262.799 369.882 263.106 371.919 265.496C384.571 280.423 383.627 302.963 369.78 316.81C362.441 324.148 352.679 327.857 342.905 327.857Z" fill="url(#paint11_linear_721_28656)"/>
<path d="M382.841 335.583C381.385 335.583 379.929 335.026 378.814 333.922L361.713 316.821C359.494 314.603 359.494 310.996 361.713 308.777C363.931 306.559 367.538 306.559 369.757 308.777L386.858 325.878C389.076 328.097 389.076 331.704 386.858 333.922C385.754 335.026 384.298 335.583 382.841 335.583Z" fill="url(#paint12_linear_721_28656)"/>
<path d="M454.294 436.903C450.915 436.903 447.547 435.617 444.976 433.046L378.814 366.884C367.505 355.574 367.505 337.176 378.814 325.867C390.124 314.557 408.522 314.557 419.831 325.867L485.993 392.029C491.124 397.16 491.124 405.523 485.993 410.654L463.613 433.046C461.041 435.617 457.674 436.903 454.294 436.903ZM399.34 328.757C394.823 328.757 390.306 330.475 386.87 333.911C379.997 340.783 379.997 351.968 386.87 358.84L453.02 425.001C453.714 425.684 454.875 425.684 455.557 425.001L477.949 402.61C478.631 401.927 478.631 400.755 477.949 400.073L411.798 333.911C408.362 330.475 403.845 328.757 399.34 328.757Z" fill="url(#paint13_linear_721_28656)"/>
<path d="M427.42 413.134C425.964 413.134 424.507 412.576 423.392 411.473C421.174 409.254 421.174 405.647 423.392 403.429L456.365 370.456C458.584 368.237 462.191 368.237 464.409 370.456C466.628 372.674 466.628 376.281 464.409 378.5L431.436 411.473C430.333 412.576 428.876 413.134 427.42 413.134ZM393.23 378.944C391.773 378.944 390.317 378.386 389.202 377.282C386.983 375.064 386.983 371.457 389.202 369.238L422.175 336.266C424.394 334.047 428 334.047 430.219 336.266C432.438 338.484 432.438 342.091 430.219 344.31L397.246 377.282C396.143 378.386 394.686 378.944 393.23 378.944Z" fill="url(#paint14_linear_721_28656)"/>
<path d="M264.638 78.7411H190.83C187.69 78.7411 185.142 76.1924 185.142 73.0522C185.142 69.9119 187.69 67.3633 190.83 67.3633H264.638C267.778 67.3633 270.327 69.9119 270.327 73.0522C270.327 76.1924 267.778 78.7411 264.638 78.7411Z" fill="url(#paint15_linear_721_28656)"/>
<path d="M264.638 282.198H190.83C187.69 282.198 185.142 279.649 185.142 276.509C185.142 273.369 187.69 270.82 190.83 270.82H264.638C267.778 270.82 270.327 273.369 270.327 276.509C270.327 279.649 267.778 282.198 264.638 282.198Z" fill="url(#paint16_linear_721_28656)"/>
<defs>
<linearGradient id="paint0_linear_721_28656" x1="227.728" y1="102.008" x2="227.728" y2="247.564" gradientUnits="userSpaceOnUse">
<stop stop-color="#5CFF80"/>
<stop offset="1" stop-color="#BEF856"/>
</linearGradient>
<linearGradient id="paint1_linear_721_28656" x1="300.436" y1="140.797" x2="300.436" y2="208.765" gradientUnits="userSpaceOnUse">
<stop stop-color="#5CFF80"/>
<stop offset="1" stop-color="#BEF856"/>
</linearGradient>
<linearGradient id="paint2_linear_721_28656" x1="155.031" y1="140.809" x2="155.031" y2="208.765" gradientUnits="userSpaceOnUse">
<stop stop-color="#5CFF80"/>
<stop offset="1" stop-color="#BEF856"/>
</linearGradient>
<linearGradient id="paint3_linear_721_28656" x1="227.728" y1="128.119" x2="227.728" y2="221.44" gradientUnits="userSpaceOnUse">
<stop stop-color="#5CFF80"/>
<stop offset="1" stop-color="#BEF856"/>
</linearGradient>
<linearGradient id="paint4_linear_721_28656" x1="227.728" y1="151.877" x2="227.728" y2="197.684" gradientUnits="userSpaceOnUse">
<stop stop-color="#5CFF80"/>
<stop offset="1" stop-color="#BEF856"/>
</linearGradient>
<linearGradient id="paint5_linear_721_28656" x1="91.0588" y1="232.184" x2="91.0588" y2="394.2" gradientUnits="userSpaceOnUse">
<stop stop-color="#5CFF80"/>
<stop offset="1" stop-color="#BEF856"/>
</linearGradient>
<linearGradient id="paint6_linear_721_28656" x1="91.2893" y1="257.564" x2="91.2893" y2="337.847" gradientUnits="userSpaceOnUse">
<stop stop-color="#5CFF80"/>
<stop offset="1" stop-color="#BEF856"/>
</linearGradient>
<linearGradient id="paint7_linear_721_28656" x1="206.955" y1="355.551" x2="206.955" y2="503.291" gradientUnits="userSpaceOnUse">
<stop stop-color="#5CFF80"/>
<stop offset="1" stop-color="#BEF856"/>
</linearGradient>
<linearGradient id="paint8_linear_721_28656" x1="206.964" y1="402.598" x2="206.964" y2="456.255" gradientUnits="userSpaceOnUse">
<stop stop-color="#5CFF80"/>
<stop offset="1" stop-color="#BEF856"/>
</linearGradient>
<linearGradient id="paint9_linear_721_28656" x1="227.723" y1="0.484375" x2="227.723" y2="349.088" gradientUnits="userSpaceOnUse">
<stop stop-color="#5CFF80"/>
<stop offset="1" stop-color="#BEF856"/>
</linearGradient>
<linearGradient id="paint10_linear_721_28656" x1="227.728" y1="35.0039" x2="227.728" y2="314.556" gradientUnits="userSpaceOnUse">
<stop stop-color="#5CFF80"/>
<stop offset="1" stop-color="#BEF856"/>
</linearGradient>
<linearGradient id="paint11_linear_721_28656" x1="348.631" y1="263.486" x2="348.631" y2="327.857" gradientUnits="userSpaceOnUse">
<stop stop-color="#5CFF80"/>
<stop offset="1" stop-color="#BEF856"/>
</linearGradient>
<linearGradient id="paint12_linear_721_28656" x1="374.285" y1="307.113" x2="374.285" y2="335.583" gradientUnits="userSpaceOnUse">
<stop stop-color="#5CFF80"/>
<stop offset="1" stop-color="#BEF856"/>
</linearGradient>
<linearGradient id="paint13_linear_721_28656" x1="430.087" y1="317.385" x2="430.087" y2="436.903" gradientUnits="userSpaceOnUse">
<stop stop-color="#5CFF80"/>
<stop offset="1" stop-color="#BEF856"/>
</linearGradient>
<linearGradient id="paint14_linear_721_28656" x1="426.806" y1="334.602" x2="426.806" y2="413.134" gradientUnits="userSpaceOnUse">
<stop stop-color="#5CFF80"/>
<stop offset="1" stop-color="#BEF856"/>
</linearGradient>
<linearGradient id="paint15_linear_721_28656" x1="227.734" y1="67.3633" x2="227.734" y2="78.7411" gradientUnits="userSpaceOnUse">
<stop stop-color="#5CFF80"/>
<stop offset="1" stop-color="#BEF856"/>
</linearGradient>
<linearGradient id="paint16_linear_721_28656" x1="227.734" y1="270.82" x2="227.734" y2="282.198" gradientUnits="userSpaceOnUse">
<stop stop-color="#5CFF80"/>
<stop offset="1" stop-color="#BEF856"/>
</linearGradient>
</defs>
</svg>
