<svg width="480" height="474" viewBox="0 0 480 474" fill="none" xmlns="http://www.w3.org/2000/svg">
<path fill-rule="evenodd" clip-rule="evenodd" d="M433.58 273.65C448.78 269.577 461.572 285.997 453.622 299.767C445.641 313.59 425.039 310.667 420.97 295.482C419.757 290.915 420.403 286.053 422.766 281.962C425.13 277.87 429.018 274.881 433.58 273.65ZM441.634 284.93C440.46 284.251 439.111 283.936 437.757 284.024C436.404 284.111 435.107 284.598 434.03 285.423C432.954 286.248 432.145 287.373 431.708 288.656C431.271 289.94 431.223 291.325 431.573 292.635C431.922 293.946 432.651 295.123 433.669 296.019C434.688 296.915 435.948 297.489 437.293 297.669C438.637 297.848 440.004 297.626 441.222 297.028C442.44 296.431 443.453 295.487 444.134 294.314C444.586 293.533 444.88 292.672 444.999 291.778C445.118 290.884 445.06 289.975 444.828 289.104C444.596 288.232 444.194 287.415 443.646 286.699C443.098 285.983 442.414 285.382 441.634 284.93ZM46.4198 200.35C31.2198 204.422 18.4278 188.003 26.3778 174.233C34.3588 160.409 54.9618 163.333 59.0298 178.518C60.2427 183.085 59.5967 187.946 57.2334 192.038C54.87 196.13 50.9818 199.118 46.4198 200.35ZM38.3658 189.07C39.54 189.748 40.889 190.064 42.2424 189.976C43.5957 189.888 44.8927 189.401 45.9694 188.577C47.0461 187.752 47.8542 186.627 48.2917 185.343C48.7291 184.059 48.7763 182.675 48.4272 181.364C48.078 180.054 47.3483 178.876 46.3302 177.98C45.312 177.084 44.0512 176.51 42.707 176.331C41.3627 176.151 39.9954 176.374 38.7778 176.971C37.5601 177.568 36.5468 178.513 35.8658 179.686C35.4137 180.466 35.1197 181.328 35.0007 182.222C34.8816 183.116 34.9398 184.024 35.172 184.896C35.4041 185.767 35.8057 186.584 36.3537 187.3C36.9017 188.017 37.5854 188.618 38.3658 189.07ZM355.625 393.692C325.834 418.293 289.267 433.253 250.776 436.587C212.285 439.921 173.69 431.472 140.113 412.36C106.536 393.248 79.5642 364.377 62.7777 329.579C45.9912 294.781 40.1833 255.701 46.1248 217.526C46.2398 216.43 46.682 215.395 47.3939 214.555C48.1058 213.715 49.0543 213.108 50.1158 212.815C56.618 210.991 62.3412 207.083 66.4056 201.69C70.47 196.297 72.6506 189.719 72.6121 182.966C72.5736 176.213 70.3181 169.66 66.1925 164.313C62.0668 158.967 56.2994 155.124 49.7769 153.375C43.2544 151.626 36.338 152.068 30.0909 154.632C23.8439 157.197 18.6121 161.742 15.2 167.57C11.7879 173.397 10.3843 180.184 11.2051 186.887C12.0258 193.59 15.0255 199.838 19.7428 204.67C20.4446 205.292 20.9755 206.083 21.285 206.968C21.5945 207.853 21.6722 208.802 21.5108 209.726C13.8804 253.502 19.9349 298.566 38.849 338.775C57.7631 378.985 88.6166 412.384 127.204 434.419C165.791 456.455 210.235 466.055 254.478 461.912C298.72 457.768 340.608 440.082 374.433 411.265C375.468 410.257 376.859 409.698 378.303 409.707C379.748 409.716 381.131 410.293 382.154 411.314L390.163 419.324L405.681 361.41L347.767 376.927L356.234 385.394C356.792 385.952 357.223 386.625 357.498 387.365C357.773 388.105 357.886 388.896 357.828 389.683C357.77 390.471 357.543 391.236 357.163 391.928C356.783 392.62 356.258 393.223 355.625 393.694V393.692ZM56.4998 222.248C66.5441 218.474 74.7523 210.982 79.4242 201.323C84.0962 191.664 84.874 180.578 81.5965 170.361C78.3191 160.144 71.2375 151.579 61.8185 146.44C52.3996 141.301 41.3648 139.982 30.9998 142.756C1.07684 150.774 -9.85616 187.369 10.2468 210.525C2.88983 255.989 9.53523 302.616 29.3008 344.214C49.0663 385.813 81.017 420.416 120.911 443.429C160.805 466.442 206.755 476.777 252.66 473.061C298.566 469.345 342.256 451.755 377.929 422.625L389.129 433.813C389.812 434.491 390.661 434.979 391.591 435.226C392.521 435.474 393.5 435.473 394.43 435.223C395.36 434.974 396.208 434.485 396.89 433.805C397.571 433.125 398.062 432.278 398.314 431.349L418.739 355.122C418.998 354.19 419.006 353.206 418.763 352.27C418.519 351.334 418.033 350.478 417.353 349.79C416.674 349.102 415.824 348.606 414.891 348.352C413.958 348.097 412.974 348.094 412.039 348.342L336 368.716C335.034 368.923 334.142 369.387 333.417 370.059C332.693 370.731 332.163 371.586 331.883 372.533C331.604 373.481 331.585 374.487 331.829 375.444C332.073 376.401 332.571 377.275 333.27 377.974L344.125 388.829C315.916 410.642 281.85 423.559 246.27 425.933C210.69 428.307 175.21 420.031 144.353 402.16C113.496 384.289 88.6603 357.632 73.0136 325.59C57.3669 293.547 51.6179 257.571 56.4998 222.248ZM124.373 80.3078C154.163 55.7069 190.731 40.7467 229.222 37.4126C267.713 34.0785 306.308 42.528 339.885 61.6399C373.462 80.7518 400.433 109.622 417.22 144.42C434.007 179.218 439.814 218.298 433.873 256.474C433.758 257.569 433.315 258.604 432.603 259.445C431.891 260.285 430.943 260.891 429.881 261.185C423.379 263.009 417.656 266.917 413.593 272.31C409.529 277.703 407.349 284.281 407.387 291.034C407.426 297.786 409.682 304.339 413.808 309.685C417.933 315.031 423.701 318.873 430.223 320.622C436.745 322.371 443.661 321.929 449.908 319.364C456.155 316.8 461.386 312.254 464.798 306.427C468.21 300.6 469.613 293.813 468.792 287.111C467.972 280.408 464.972 274.161 460.255 269.329C459.553 268.707 459.022 267.917 458.712 267.032C458.403 266.147 458.325 265.197 458.487 264.274C466.117 220.498 460.062 175.435 441.148 135.226C422.234 95.0164 391.381 61.6179 352.794 39.5824C314.207 17.5469 269.764 7.94646 225.522 12.0896C181.28 16.2328 139.392 33.918 105.567 62.7348C104.531 63.7423 103.141 64.302 101.696 64.2928C100.252 64.2837 98.8684 63.7064 97.8458 62.6858L89.8368 54.6758L74.3188 112.59L132.233 97.0728L123.766 88.6058C123.208 88.0472 122.777 87.375 122.501 86.6349C122.226 85.8948 122.114 85.1042 122.171 84.3167C122.229 83.5293 122.456 82.7634 122.836 82.0713C123.216 81.3792 123.74 80.7771 124.374 80.3058L124.373 80.3078ZM423.5 251.752C413.451 255.522 405.238 263.015 400.563 272.676C395.888 282.337 395.11 293.427 398.389 303.647C401.668 313.867 408.754 322.433 418.177 327.571C427.6 332.708 438.639 334.024 449.006 331.244C478.929 323.226 489.862 286.631 469.759 263.475C477.116 218.01 470.471 171.383 450.705 129.784C430.94 88.1855 398.989 53.5825 359.095 30.5693C319.201 7.55613 273.25 -2.77847 227.344 0.937568C181.439 4.6536 137.749 22.2445 102.076 51.3748L90.8758 40.1868C90.1929 39.5106 89.3447 39.0251 88.4158 38.7788C87.4868 38.5324 86.5095 38.5338 85.5813 38.7828C84.653 39.0317 83.8062 39.5196 83.1252 40.1977C82.4442 40.8758 81.9527 41.7206 81.6998 42.6478L61.2698 118.875C61.0109 119.807 61.0027 120.791 61.246 121.727C61.4892 122.663 61.9754 123.518 62.6553 124.206C63.3351 124.894 64.1846 125.39 65.1178 125.645C66.051 125.899 67.0349 125.903 67.9698 125.655L144 105.284C144.966 105.076 145.858 104.612 146.582 103.94C147.307 103.269 147.837 102.414 148.116 101.466C148.396 100.518 148.414 99.5129 148.17 98.5555C147.926 97.5981 147.429 96.7241 146.73 96.0258L135.875 85.1708C164.084 63.3579 198.15 50.4407 233.73 48.0664C269.309 45.6921 304.79 53.9682 335.647 71.8394C366.504 89.7107 391.339 116.367 406.986 148.41C422.633 180.452 428.382 216.429 423.5 251.752ZM281.834 182.908C292.532 191.182 300.537 202.442 304.835 215.265C309.134 228.088 309.534 241.898 305.984 254.948C302.434 267.999 295.094 279.703 284.892 288.582C274.69 297.46 262.084 303.114 248.669 304.829C235.253 306.543 221.631 304.241 209.524 298.213C197.417 292.186 187.369 282.703 180.651 270.965C173.934 259.227 170.847 245.761 171.783 232.269C172.719 218.777 177.634 205.865 185.908 195.167C197.005 180.823 213.344 171.474 231.333 169.175C249.321 166.877 267.486 171.816 281.834 182.908ZM229.946 158.308C245.511 156.319 261.315 158.991 275.362 165.985C289.408 172.978 301.065 183.98 308.859 197.599C316.652 211.218 320.232 226.842 319.146 242.496C318.06 258.15 312.356 273.13 302.756 285.542C293.156 297.953 280.092 307.24 265.214 312.227C250.336 317.214 234.314 317.677 219.173 313.557C204.032 309.438 190.453 300.922 180.152 289.085C169.852 277.248 163.292 262.622 161.304 247.058C159.982 236.723 160.709 226.229 163.443 216.175C166.177 206.121 170.865 196.705 177.24 188.463C183.614 180.221 191.549 173.316 200.593 168.142C209.636 162.968 219.611 159.626 229.946 158.308ZM201.294 239.245C200.152 238.357 199.406 237.055 199.22 235.62C199.034 234.186 199.422 232.736 200.3 231.586C201.178 230.437 202.474 229.68 203.907 229.482C205.34 229.284 206.793 229.66 207.95 230.528L227.083 245.114L269.721 215.072C270.911 214.251 272.378 213.934 273.801 214.188C275.225 214.443 276.49 215.25 277.322 216.432C278.154 217.615 278.485 219.079 278.243 220.504C278.002 221.93 277.208 223.203 276.033 224.046L230.113 256.4C229.159 257.07 228.016 257.419 226.85 257.396C225.685 257.373 224.557 256.979 223.63 256.272L201.294 239.245ZM319.252 343.88H318.641L308.516 333.755C307.587 332.827 306.356 332.262 305.046 332.162C303.737 332.063 302.435 332.435 301.376 333.212C290.026 340.475 277.472 345.656 264.304 348.512C263.077 348.777 261.978 349.454 261.19 350.43C260.402 351.407 259.972 352.624 259.972 353.879V368.179L259.541 368.61H220.464L220.033 368.179V353.879C220.032 352.581 219.573 351.326 218.737 350.335C217.9 349.343 216.74 348.679 215.462 348.46C202.264 345.569 189.689 340.342 178.332 333.025C177.278 332.349 176.025 332.054 174.781 332.188C173.537 332.322 172.375 332.877 171.49 333.762L161.359 343.88H160.748L133.12 316.252V315.641L143.247 305.515C144.175 304.586 144.74 303.355 144.839 302.045C144.939 300.736 144.567 299.434 143.79 298.375C136.526 287.026 131.345 274.472 128.49 261.304C128.225 260.077 127.548 258.978 126.571 258.19C125.595 257.402 124.378 256.972 123.123 256.972H108.814L108.383 256.541V217.464L108.814 217.033H123.123C124.42 217.032 125.675 216.573 126.666 215.737C127.658 214.9 128.322 213.74 128.541 212.462C131.43 199.265 136.657 186.691 143.974 175.334C144.65 174.28 144.945 173.027 144.811 171.783C144.677 170.538 144.121 169.377 143.237 168.492L133.117 158.359V157.749L160.745 130.12H161.356L171.481 140.246C172.41 141.174 173.641 141.739 174.95 141.838C176.26 141.938 177.562 141.566 178.621 140.789C189.97 133.524 202.524 128.343 215.693 125.489C216.919 125.224 218.018 124.547 218.806 123.57C219.595 122.594 220.025 121.377 220.025 120.122V105.817L220.456 105.386H259.528L259.959 105.817V120.122C259.96 121.419 260.419 122.674 261.255 123.665C262.091 124.657 263.251 125.321 264.53 125.54C277.728 128.43 290.302 133.658 301.66 140.976C302.713 141.651 303.966 141.947 305.21 141.812C306.454 141.678 307.615 141.123 308.501 140.239L318.633 130.12H319.244L346.872 157.749V158.359L336.745 168.486C335.817 169.415 335.252 170.646 335.152 171.955C335.053 173.265 335.425 174.567 336.202 175.626C343.465 186.974 348.647 199.528 351.502 212.696C351.767 213.922 352.444 215.021 353.421 215.81C354.397 216.598 355.614 217.028 356.869 217.029H371.178L371.609 217.46V256.532L371.178 256.963H356.874C355.577 256.963 354.322 257.423 353.33 258.259C352.339 259.095 351.675 260.255 351.456 261.534C348.566 274.731 343.339 287.305 336.023 298.662C335.347 299.715 335.052 300.968 335.186 302.213C335.32 303.457 335.875 304.618 336.76 305.504L346.88 315.637V316.248L319.252 343.88ZM354.652 324.023L327.024 351.652C324.88 353.79 321.975 354.991 318.947 354.991C315.919 354.991 313.015 353.79 310.871 351.652L303.814 344.596C293.571 350.687 282.507 355.276 270.96 358.223V368.183C270.955 371.211 269.75 374.114 267.609 376.255C265.468 378.396 262.565 379.601 259.537 379.607H220.464C217.436 379.601 214.533 378.396 212.392 376.255C210.25 374.114 209.045 371.211 209.04 368.183V358.223C197.493 355.278 186.429 350.69 176.186 344.6L169.13 351.656C166.986 353.794 164.081 354.995 161.053 354.995C158.025 354.995 155.121 353.794 152.977 351.656L125.349 324.027C123.211 321.883 122.01 318.978 122.01 315.95C122.01 312.922 123.211 310.018 125.349 307.874L132.406 300.816C126.315 290.574 121.727 279.51 118.781 267.964H108.817C105.789 267.958 102.886 266.753 100.745 264.612C98.6039 262.471 97.3989 259.568 97.3938 256.54V217.464C97.3991 214.436 98.6043 211.533 100.745 209.392C102.886 207.251 105.789 206.046 108.817 206.041H118.781C121.727 194.494 126.315 183.431 132.406 173.189L125.349 166.131C123.21 163.987 122.01 161.082 122.01 158.054C122.01 155.026 123.21 152.121 125.349 149.977L152.977 122.349C155.121 120.21 158.025 119.009 161.053 119.009C164.081 119.009 166.986 120.21 169.13 122.349L176.186 129.405C186.428 123.313 197.493 118.724 209.04 115.777V105.817C209.045 102.789 210.25 99.8861 212.392 97.745C214.533 95.6039 217.436 94.3988 220.464 94.3938H259.536C262.564 94.3988 265.466 95.6039 267.608 97.745C269.749 99.8862 270.954 102.789 270.959 105.817V115.778C282.506 118.724 293.57 123.313 303.813 129.405L310.87 122.349C313.014 120.21 315.918 119.009 318.946 119.009C321.974 119.009 324.879 120.21 327.023 122.349L354.651 149.977C356.789 152.121 357.991 155.025 357.991 158.054C357.991 161.082 356.789 163.987 354.651 166.131L347.594 173.189C353.684 183.431 358.273 194.494 361.219 206.041H371.183C374.211 206.046 377.113 207.251 379.254 209.392C381.395 211.533 382.601 214.436 382.606 217.464V256.536C382.601 259.564 381.396 262.467 379.255 264.608C377.114 266.749 374.211 267.954 371.183 267.96H361.219C358.273 279.506 353.684 290.569 347.594 300.812L354.651 307.87C356.789 310.014 357.99 312.918 357.99 315.946C357.99 318.974 356.789 321.879 354.651 324.023H354.652Z" fill="url(#paint0_linear_721_28696)"/>
<defs>
<linearGradient id="paint0_linear_721_28696" x1="240.003" y1="0.197266" x2="240.003" y2="473.801" gradientUnits="userSpaceOnUse">
<stop stop-color="#5CFF80"/>
<stop offset="1" stop-color="#BEF856"/>
</linearGradient>
</defs>
</svg>
