<svg width="498" height="452" viewBox="0 0 498 452" fill="none" xmlns="http://www.w3.org/2000/svg">
<path fill-rule="evenodd" clip-rule="evenodd" d="M44.0824 269.836H83.9572C93.6631 269.836 101.532 277.705 101.532 287.41V353.767C101.532 363.473 93.6631 371.341 83.9572 371.341H17.601C7.89508 371.341 0.0273438 363.473 0.0273438 353.767V287.41C0.0273438 277.705 7.89508 269.836 17.601 269.836H27.6834C23.3956 248.173 22.2401 225.504 24.6716 202.382C37.7186 78.4858 148.722 -11.3742 272.617 1.6728C312.938 5.91136 349.649 20.5395 380.384 42.6137L376.327 28.4012C375.111 24.1386 377.583 19.6902 381.846 18.4734C386.107 17.2567 390.556 19.7293 391.773 23.992L402.789 62.5847C403.466 64.959 403.015 67.513 401.563 69.5108C400.111 71.5086 397.822 72.7274 395.355 72.8157L355.245 74.2583C350.815 74.4169 347.089 70.9504 346.929 66.5201C346.771 62.0908 350.237 58.3653 354.668 58.2056L373.57 57.526C344.515 35.9878 309.503 21.701 270.937 17.6472C155.864 5.52987 52.7644 88.9899 40.646 204.062C38.2707 226.653 39.5778 248.775 44.0824 269.836ZM83.9572 285.899H17.601C16.7667 285.899 16.0901 286.576 16.0901 287.41V353.767C16.0901 354.601 16.7667 355.278 17.601 355.278H83.9582C84.7925 355.278 85.4691 354.601 85.4691 353.767V287.41C85.4691 286.576 84.7925 285.899 83.9572 285.899ZM39.8509 296.769C42.1047 292.864 46.271 290.459 50.7796 290.459C55.2882 290.459 59.4535 292.864 61.7083 296.769L79.5711 327.707C81.8249 331.613 81.8249 336.422 79.5711 340.328C77.3163 344.232 73.151 346.637 68.6424 346.637H32.9168C28.4082 346.637 24.2419 344.232 21.9881 340.328C19.7333 336.422 19.7333 331.613 21.9881 327.707L39.8509 296.769ZM38.8801 330.575H62.6781L50.7796 309.965L38.8801 330.575ZM468.864 175.349C474.326 199.062 476.015 224.07 473.326 249.618C460.279 373.514 349.276 463.374 225.381 450.327C185.074 446.084 148.347 431.455 117.615 409.389L121.672 423.599C122.888 427.862 120.415 432.31 116.153 433.527C111.89 434.743 107.442 432.271 106.225 428.008L95.2092 389.415C94.5315 387.041 94.9833 384.487 96.4349 382.489C97.8866 380.492 100.177 379.273 102.643 379.184L142.754 377.742C147.183 377.583 150.909 381.05 151.068 385.48C151.228 389.909 147.76 393.635 143.331 393.795L124.424 394.474C153.475 416.005 188.507 430.293 227.062 434.353C342.135 446.471 445.233 363.01 457.352 247.937C459.781 224.842 458.365 202.224 453.61 180.726C450.258 181.37 446.797 181.706 443.258 181.706C413.06 181.706 388.543 157.189 388.543 126.992C388.543 96.7944 413.06 72.2776 443.258 72.2776C473.456 72.2776 497.972 96.7944 497.972 126.992C497.972 147.941 486.173 166.156 468.864 175.349ZM443.258 88.3403C421.925 88.3403 404.606 105.659 404.606 126.992C404.606 148.325 421.925 165.643 443.258 165.643C464.59 165.643 481.91 148.325 481.91 126.992C481.91 105.659 464.59 88.3403 443.258 88.3403ZM443.258 95.667C460.546 95.667 474.582 109.704 474.582 126.992C474.582 144.28 460.546 158.317 443.258 158.317C425.969 158.317 411.933 144.28 411.933 126.992C411.933 109.704 425.969 95.667 443.258 95.667ZM443.258 111.73C434.835 111.73 427.996 118.568 427.996 126.992C427.996 135.415 434.835 142.254 443.258 142.254C451.681 142.254 458.519 135.415 458.519 126.992C458.519 118.568 451.681 111.73 443.258 111.73ZM249 78.3885C330.531 78.3885 396.612 144.469 396.612 226C396.612 307.532 330.531 373.612 249 373.612C167.468 373.612 101.388 307.532 101.388 226C101.388 144.469 167.468 78.3885 249 78.3885ZM350.812 309.316C369.397 286.63 380.549 257.619 380.549 226C380.549 153.34 321.66 94.4512 249 94.4512C176.34 94.4512 117.451 153.34 117.451 226C117.451 257.619 128.603 286.63 147.188 309.316C156.434 275.166 182.394 247.884 215.735 236.801C201.192 226.38 191.675 209.342 191.675 190.181C191.675 158.643 217.462 132.856 249 132.856C280.538 132.856 306.325 158.643 306.325 190.181C306.325 209.342 296.808 226.38 282.265 236.801C315.606 247.884 341.565 275.166 350.812 309.316ZM160.607 323.432C183.96 344.631 214.97 357.549 249 357.549C283.03 357.549 314.04 344.631 337.393 323.432C330.882 280.452 293.775 247.506 249 247.506C204.225 247.506 167.118 280.452 160.607 323.432ZM249 231.443C271.702 231.443 290.262 212.883 290.262 190.181C290.262 167.479 271.702 148.919 249 148.919C226.298 148.919 207.738 167.479 207.738 190.181C207.738 212.883 226.298 231.443 249 231.443Z" fill="url(#paint0_linear_721_28719)"/>
<defs>
<linearGradient id="paint0_linear_721_28719" x1="249" y1="0.414062" x2="249" y2="451.586" gradientUnits="userSpaceOnUse">
<stop stop-color="#5CFF80"/>
<stop offset="1" stop-color="#BEF856"/>
</linearGradient>
</defs>
</svg>
