<svg width="483" height="472" viewBox="0 0 483 472" fill="none" xmlns="http://www.w3.org/2000/svg">
<path d="M208 32H232V56.736C237.28 56.28 242.608 56 248 56C253.392 56 258.72 56.28 264 56.736V32H288C292.416 32 296 28.416 296 24C296 10.744 285.256 0 272 0H224C210.744 0 200 10.744 200 24C200 28.416 203.584 32 208 32Z" fill="url(#paint0_linear_721_28721)"/>
<path d="M310.104 416.136C309.232 413.888 307.344 412.144 304.928 411.352C302.528 410.568 300.328 409.416 298.344 408.008H248H0V424.008H311.68C312.008 422.392 312.04 420.752 311.392 419.272C310.928 418.2 310.504 417.176 310.104 416.136Z" fill="url(#paint1_linear_721_28721)"/>
<path d="M477.48 135.593L482.528 120.409L411.504 96.8086L425.296 116.577C450.616 152.881 464 195.561 464 240.001C464 250.337 463.264 260.721 461.816 270.865L477.648 273.129C479.208 262.241 480 251.097 480 240.001C480 199.897 469.848 161.121 450.456 126.617L477.48 135.593Z" fill="url(#paint2_linear_721_28721)"/>
<path d="M13.4805 359.591L84.5045 383.191L70.7125 363.423C45.3845 327.119 32.0005 284.439 32.0005 239.999C32.0005 229.663 32.7365 219.279 34.1845 209.135L18.3525 206.871C16.7925 217.759 16.0005 228.903 16.0005 239.999C16.0005 280.103 26.1525 318.879 45.5445 353.383L18.5285 344.399L13.4805 359.591Z" fill="url(#paint3_linear_721_28721)"/>
<path d="M288 387.984V380.016C288 379.352 288.104 378.72 288.152 378.064C275.4 381.816 261.976 384 248 384C201.656 384 160.536 362.016 134.192 328H308.64C309.008 324.672 310.104 321.464 311.776 318.512C312.84 316.64 314.072 314.856 315.648 313.272L316.928 311.992L321.28 307.64C323.256 305.656 325.552 304.144 328 302.96V192H296V312H264V160H232V312H200V240H168V312H123.424C111.144 290.8 104 266.256 104 240C104 160.472 168.472 96 248 96C327.528 96 392 160.472 392 240C392 253.976 389.816 267.4 386.064 280.152C386.712 280.104 387.352 280 388.016 280H395.984C401.152 280 406.008 281.624 410.032 284.432C413.992 270 416 255.12 416 240C416 147.36 340.64 72 248 72C155.36 72 80 147.36 80 240C80 332.64 155.36 408 248 408C263.12 408 278 405.992 292.432 402.032C289.624 398.008 288 393.152 288 387.984Z" fill="url(#paint4_linear_721_28721)"/>
<path d="M474.088 371.848C467.104 369.552 461.6 364.392 458.992 357.68C458.656 356.808 458.304 355.96 457.936 355.112C455.088 348.56 455.344 341.064 458.632 334.544C460.312 331.224 459.672 327.216 457.04 324.584L451.408 318.952C448.768 316.312 444.76 315.664 441.448 317.36C434.928 320.648 427.416 320.904 420.872 318.056C420.032 317.696 419.176 317.344 418.32 317.008C411.608 314.4 406.448 308.896 404.152 301.92C402.992 298.376 399.704 296 395.984 296H388.016C384.296 296 381.016 298.376 379.848 301.912C377.552 308.896 372.384 314.4 365.672 317.008C364.816 317.344 363.96 317.688 363.112 318.056C356.568 320.904 349.064 320.656 342.544 317.36C339.216 315.672 335.216 316.32 332.584 318.952L326.952 324.584C324.32 327.216 323.68 331.224 325.36 334.544C328.656 341.064 328.904 348.56 326.056 355.12C325.696 355.952 325.344 356.808 325.008 357.664C322.392 364.384 316.888 369.552 309.912 371.84C306.376 373.008 304 376.296 304 380.016V387.984C304 391.704 306.376 394.984 309.912 396.152C316.896 398.448 322.4 403.608 325.008 410.32C325.344 411.192 325.696 412.04 326.064 412.888C328.912 419.44 328.656 426.936 325.368 433.456C323.688 436.776 324.328 440.776 326.96 443.408L332.6 449.048C335.24 451.68 339.232 452.32 342.552 450.64C346.064 448.864 349.864 447.976 353.64 447.976C356.88 447.976 360.104 448.632 363.128 449.952C363.96 450.312 364.816 450.664 365.672 451C372.392 453.616 377.56 459.112 379.848 466.088C381.016 469.632 384.296 472.008 388.016 472.008H395.984C399.704 472.008 402.984 469.632 404.152 466.096C406.448 459.112 411.608 453.608 418.32 451C419.192 450.664 420.04 450.312 420.888 449.944C427.432 447.104 434.944 447.352 441.456 450.64C444.768 452.312 448.768 451.68 451.408 449.048L457.048 443.408C459.68 440.776 460.32 436.776 458.64 433.456C455.344 426.936 455.096 419.44 457.944 412.88C458.304 412.048 458.656 411.192 458.992 410.336C461.608 403.616 467.104 398.448 474.08 396.16C477.624 394.992 480 391.712 480 387.992V380.024C480 376.296 477.624 373.008 474.088 371.848ZM392 432C365.488 432 344 410.512 344 384C344 357.488 365.488 336 392 336C418.512 336 440 357.488 440 384C440 410.512 418.512 432 392 432Z" fill="url(#paint5_linear_721_28721)"/>
<path d="M392 400C400.837 400 408 392.837 408 384C408 375.163 400.837 368 392 368C383.163 368 376 375.163 376 384C376 392.837 383.163 400 392 400Z" fill="url(#paint6_linear_721_28721)"/>
<defs>
<linearGradient id="paint0_linear_721_28721" x1="248" y1="0" x2="248" y2="56.736" gradientUnits="userSpaceOnUse">
<stop stop-color="#5CFF80"/>
<stop offset="1" stop-color="#BEF856"/>
</linearGradient>
<linearGradient id="paint1_linear_721_28721" x1="155.954" y1="408.008" x2="155.954" y2="424.008" gradientUnits="userSpaceOnUse">
<stop stop-color="#5CFF80"/>
<stop offset="1" stop-color="#BEF856"/>
</linearGradient>
<linearGradient id="paint2_linear_721_28721" x1="447.016" y1="96.8086" x2="447.016" y2="273.129" gradientUnits="userSpaceOnUse">
<stop stop-color="#5CFF80"/>
<stop offset="1" stop-color="#BEF856"/>
</linearGradient>
<linearGradient id="paint3_linear_721_28721" x1="48.9925" y1="206.871" x2="48.9925" y2="383.191" gradientUnits="userSpaceOnUse">
<stop stop-color="#5CFF80"/>
<stop offset="1" stop-color="#BEF856"/>
</linearGradient>
<linearGradient id="paint4_linear_721_28721" x1="248" y1="72" x2="248" y2="408" gradientUnits="userSpaceOnUse">
<stop stop-color="#5CFF80"/>
<stop offset="1" stop-color="#BEF856"/>
</linearGradient>
<linearGradient id="paint5_linear_721_28721" x1="392" y1="296" x2="392" y2="472.008" gradientUnits="userSpaceOnUse">
<stop stop-color="#5CFF80"/>
<stop offset="1" stop-color="#BEF856"/>
</linearGradient>
<linearGradient id="paint6_linear_721_28721" x1="392" y1="368" x2="392" y2="400" gradientUnits="userSpaceOnUse">
<stop stop-color="#5CFF80"/>
<stop offset="1" stop-color="#BEF856"/>
</linearGradient>
</defs>
</svg>
