<svg width="512" height="512" viewBox="0 0 512 512" fill="none" xmlns="http://www.w3.org/2000/svg">
<path d="M408 8C389.013 8 370.452 13.6303 354.665 24.1789C338.878 34.7275 326.574 49.7207 319.308 67.2624C312.042 84.8041 310.14 104.106 313.845 122.729C317.549 141.351 326.692 158.456 340.118 171.882C353.544 185.308 370.649 194.451 389.271 198.155C407.894 201.86 427.196 199.958 444.738 192.692C462.279 185.426 477.273 173.122 487.821 157.335C498.37 141.548 504 122.987 504 104C504 78.5392 493.886 54.1212 475.882 36.1177C457.879 18.1143 433.461 8 408 8ZM408 184C392.178 184 376.71 179.308 363.554 170.518C350.399 161.727 340.145 149.233 334.09 134.615C328.035 119.997 326.45 103.911 329.537 88.3928C332.624 72.8743 340.243 58.6197 351.432 47.4315C362.62 36.2433 376.874 28.624 392.393 25.5372C407.911 22.4504 423.997 24.0346 438.615 30.0896C453.233 36.1446 465.727 46.3984 474.518 59.5544C483.308 72.7103 488 88.1775 488 104C488 114.506 485.931 124.909 481.91 134.615C477.89 144.321 471.997 153.14 464.569 160.569C457.14 167.997 448.321 173.89 438.615 177.91C428.909 181.931 418.506 184 408 184Z" fill="url(#paint0_linear_721_28706)"/>
<path d="M416 96V72C418.996 71.8458 421.979 72.5087 424.628 73.9178C427.277 75.3268 429.493 77.4291 431.04 80C431.738 81.2091 432.74 82.2145 433.947 82.9162C435.154 83.6179 436.524 83.9916 437.92 84C439.286 84.0164 440.634 83.6827 441.835 83.0305C443.035 82.3783 444.049 81.4294 444.779 80.2743C445.509 79.1192 445.931 77.7964 446.005 76.432C446.078 75.0675 445.801 73.707 445.2 72.48C442.279 67.3488 438.02 63.1061 432.878 60.204C427.736 57.3019 421.903 55.8489 416 56V48C416 45.8783 415.157 43.8434 413.657 42.3431C412.157 40.8429 410.122 40 408 40C405.878 40 403.843 40.8429 402.343 42.3431C400.843 43.8434 400 45.8783 400 48V56C392.054 55.5159 384.239 58.1843 378.248 63.4261C372.257 68.668 368.575 76.0605 368 84C368.575 91.9395 372.257 99.332 378.248 104.574C384.239 109.816 392.054 112.484 400 112V136C397.004 136.154 394.021 135.491 391.372 134.082C388.723 132.673 386.507 130.571 384.96 128C384.262 126.791 383.26 125.786 382.053 125.084C380.846 124.382 379.476 124.008 378.08 124C376.714 123.984 375.366 124.317 374.165 124.97C372.965 125.622 371.951 126.571 371.221 127.726C370.491 128.881 370.069 130.204 369.995 131.568C369.922 132.932 370.199 134.293 370.8 135.52C373.721 140.651 377.98 144.894 383.122 147.796C388.264 150.698 394.097 152.151 400 152V160C400 162.122 400.843 164.157 402.343 165.657C403.843 167.157 405.878 168 408 168C410.122 168 412.157 167.157 413.657 165.657C415.157 164.157 416 162.122 416 160V152C423.946 152.484 431.761 149.816 437.752 144.574C443.743 139.332 447.425 131.939 448 124C447.425 116.061 443.743 108.668 437.752 103.426C431.761 98.1842 423.946 95.5159 416 96ZM384 84C384 77.52 391.36 72 400 72V96C391.36 96 384 90.48 384 84ZM416 136V112C424.64 112 432 117.52 432 124C432 130.48 424.64 136 416 136Z" fill="url(#paint1_linear_721_28706)"/>
<path d="M104 200C122.987 200 141.548 194.37 157.335 183.821C173.122 173.273 185.426 158.279 192.692 140.738C199.958 123.196 201.86 103.894 198.155 85.2714C194.451 66.6492 185.308 49.5436 171.882 36.1178C158.456 22.692 141.351 13.5488 122.729 9.84466C104.106 6.14048 84.8041 8.0416 67.2624 15.3076C49.7207 22.5736 34.7275 34.8782 24.1789 50.6653C13.6303 66.4524 8 85.013 8 104C8 129.461 18.1143 153.879 36.1177 171.882C54.1212 189.886 78.5392 200 104 200ZM104 24C119.823 24 135.29 28.692 148.446 37.4825C161.602 46.273 171.855 58.7673 177.91 73.3854C183.965 88.0035 185.55 104.089 182.463 119.607C179.376 135.126 171.757 149.38 160.569 160.569C149.38 171.757 135.126 179.376 119.607 182.463C104.089 185.55 88.0034 183.965 73.3853 177.91C58.7672 171.855 46.2729 161.602 37.4824 148.446C28.6919 135.29 24 119.823 24 104C24 82.7827 32.4285 62.4344 47.4315 47.4315C62.4344 32.4286 82.7827 24 104 24Z" fill="url(#paint2_linear_721_28706)"/>
<path d="M72 139.999H96V155.999C96 158.121 96.8429 160.156 98.3431 161.656C99.8434 163.156 101.878 163.999 104 163.999C106.122 163.999 108.157 163.156 109.657 161.656C111.157 160.156 112 158.121 112 155.999V139.999H136C138.122 139.999 140.157 139.156 141.657 137.656C143.157 136.156 144 134.121 144 131.999C144 129.877 143.157 127.843 141.657 126.342C140.157 124.842 138.122 123.999 136 123.999H112V107.999H136C138.122 107.999 140.157 107.156 141.657 105.656C143.157 104.156 144 102.121 144 99.9992C144 97.8775 143.157 95.8426 141.657 94.3424C140.157 92.8421 138.122 91.9992 136 91.9992H118.96L138.24 63.1192C139.418 61.3476 139.843 59.1807 139.423 57.0953C139.003 55.0099 137.772 53.1768 136 51.9992C134.228 50.8216 132.061 50.3961 129.976 50.8162C127.891 51.2363 126.058 52.4676 124.88 54.2392L104 85.5992L83.12 54.2392C81.9424 52.4676 80.1093 51.2363 78.0239 50.8162C75.9385 50.3961 73.7716 50.8216 72 51.9992C70.2284 53.1768 68.9971 55.0099 68.577 57.0953C68.1569 59.1807 68.5824 61.3476 69.76 63.1192L89.04 91.9992H72C69.8783 91.9992 67.8434 92.8421 66.3431 94.3424C64.8429 95.8426 64 97.8775 64 99.9992C64 102.121 64.8429 104.156 66.3431 105.656C67.8434 107.156 69.8783 107.999 72 107.999H96V123.999H72C69.8783 123.999 67.8434 124.842 66.3431 126.342C64.8429 127.843 64 129.877 64 131.999C64 134.121 64.8429 136.156 66.3431 137.656C67.8434 139.156 69.8783 139.999 72 139.999Z" fill="url(#paint3_linear_721_28706)"/>
<path d="M48.0001 504H112C114.122 504 116.157 503.157 117.657 501.657C119.157 500.157 120 498.122 120 496V400H136C138.122 400 140.157 399.157 141.657 397.657C143.157 396.157 144 394.122 144 392V328C144.018 317.794 140.135 307.968 133.145 300.532C126.155 293.095 116.587 288.612 106.4 288C112.494 281.485 115.92 272.92 116 264C116 254.452 112.207 245.295 105.456 238.544C98.7046 231.793 89.5479 228 80.0001 228C70.4523 228 61.2955 231.793 54.5442 238.544C47.7929 245.295 44.0001 254.452 44.0001 264C44.0801 272.92 47.5061 281.485 53.6001 288C43.4128 288.612 33.8448 293.095 26.8549 300.532C19.8649 307.968 15.9817 317.794 16.0001 328V392C16.0001 394.122 16.8429 396.157 18.3432 397.657C19.8435 399.157 21.8783 400 24.0001 400H40.0001V496C40.0001 498.122 40.8429 500.157 42.3432 501.657C43.8435 503.157 45.8783 504 48.0001 504ZM80.0001 244C83.9557 244 87.8225 245.173 91.1115 247.371C94.4005 249.568 96.9639 252.692 98.4777 256.346C99.9914 260.001 100.387 264.022 99.6158 267.902C98.8441 271.781 96.9393 275.345 94.1422 278.142C91.3452 280.939 87.7815 282.844 83.9019 283.616C80.0223 284.387 76.0009 283.991 72.3464 282.478C68.6919 280.964 65.5683 278.4 63.3707 275.111C61.173 271.822 60.0001 267.956 60.0001 264C60.0001 258.696 62.1072 253.609 65.8579 249.858C69.6087 246.107 74.6957 244 80.0001 244ZM32.0001 384V328C32.0001 321.635 34.5286 315.53 39.0295 311.029C43.5304 306.529 49.6349 304 56.0001 304H104C110.365 304 116.47 306.529 120.971 311.029C125.472 315.53 128 321.635 128 328V384H120V344C120 341.878 119.157 339.843 117.657 338.343C116.157 336.843 114.122 336 112 336C109.878 336 107.844 336.843 106.343 338.343C104.843 339.843 104 341.878 104 344V488H88.0001V400C88.0001 397.878 87.1572 395.843 85.6569 394.343C84.1566 392.843 82.1218 392 80.0001 392C77.8783 392 75.8435 392.843 74.3432 394.343C72.8429 395.843 72.0001 397.878 72.0001 400V488H56.0001V344C56.0001 341.878 55.1572 339.843 53.6569 338.343C52.1566 336.843 50.1218 336 48.0001 336C45.8783 336 43.8435 336.843 42.3432 338.343C40.8429 339.843 40.0001 341.878 40.0001 344V384H32.0001Z" fill="url(#paint4_linear_721_28706)"/>
<path d="M368 328V392C368 394.122 368.843 396.157 370.343 397.657C371.843 399.157 373.878 400 376 400H392V496C392 498.122 392.843 500.157 394.343 501.657C395.843 503.157 397.878 504 400 504H464C466.122 504 468.157 503.157 469.657 501.657C471.157 500.157 472 498.122 472 496V400H488C490.122 400 492.157 399.157 493.657 397.657C495.157 396.157 496 394.122 496 392V328C496.018 317.794 492.135 307.968 485.145 300.532C478.155 293.095 468.587 288.612 458.4 288C464.494 281.485 467.92 272.92 468 264C468 254.452 464.207 245.295 457.456 238.544C450.705 231.793 441.548 228 432 228C422.452 228 413.296 231.793 406.544 238.544C399.793 245.295 396 254.452 396 264C396.08 272.92 399.506 281.485 405.6 288C395.413 288.612 385.845 293.095 378.855 300.532C371.865 307.968 367.982 317.794 368 328ZM432 244C435.956 244 439.823 245.173 443.111 247.371C446.4 249.568 448.964 252.692 450.478 256.346C451.991 260.001 452.387 264.022 451.616 267.902C450.844 271.781 448.939 275.345 446.142 278.142C443.345 280.939 439.781 282.844 435.902 283.616C432.022 284.387 428.001 283.991 424.346 282.478C420.692 280.964 417.568 278.4 415.371 275.111C413.173 271.822 412 267.956 412 264C412 258.696 414.107 253.609 417.858 249.858C421.609 246.107 426.696 244 432 244ZM384 328C384 321.635 386.529 315.53 391.03 311.029C395.53 306.529 401.635 304 408 304H456C462.365 304 468.47 306.529 472.971 311.029C477.471 315.53 480 321.635 480 328V384H472V344C472 341.878 471.157 339.843 469.657 338.343C468.157 336.843 466.122 336 464 336C461.878 336 459.843 336.843 458.343 338.343C456.843 339.843 456 341.878 456 344V488H440V400C440 397.878 439.157 395.843 437.657 394.343C436.157 392.843 434.122 392 432 392C429.878 392 427.843 392.843 426.343 394.343C424.843 395.843 424 397.878 424 400V488H408V344C408 341.878 407.157 339.843 405.657 338.343C404.157 336.843 402.122 336 400 336C397.878 336 395.843 336.843 394.343 338.343C392.843 339.843 392 341.878 392 344V384H384V328Z" fill="url(#paint5_linear_721_28706)"/>
<path d="M313.52 194.96L259.52 168.8C258.299 168.202 256.946 167.925 255.588 167.995C254.23 168.065 252.913 168.48 251.76 169.2C250.607 169.921 249.657 170.923 248.999 172.113C248.341 173.303 247.997 174.641 248 176V194.56C228.527 196.227 210.37 205.078 197.062 219.392C183.754 233.705 176.247 252.458 176 272C176.019 282.193 178.058 292.281 182 301.68C182.437 302.737 183.096 303.688 183.932 304.468C184.768 305.248 185.762 305.841 186.846 306.204C187.93 306.568 189.08 306.696 190.217 306.578C191.355 306.46 192.454 306.099 193.44 305.52C195.009 304.561 196.199 303.091 196.811 301.357C197.423 299.623 197.419 297.732 196.8 296C193.602 288.405 191.97 280.242 192 272C192.263 256.716 198.099 242.054 208.411 230.77C218.723 219.486 232.801 212.356 248 210.72V228.4C248.011 229.746 248.361 231.068 249.018 232.243C249.676 233.417 250.619 234.407 251.76 235.12C253.008 235.972 254.489 236.419 256 236.4C257.215 236.373 258.412 236.101 259.52 235.6L313.52 209.36C314.866 208.701 316 207.676 316.792 206.403C317.585 205.13 318.003 203.66 318 202.16C318.003 200.661 317.585 199.191 316.792 197.918C316 196.645 314.866 195.62 313.52 194.96ZM264 216V188.8L291.68 202.16L264 216Z" fill="url(#paint6_linear_721_28706)"/>
<path d="M260.24 308.881C259.066 308.104 257.709 307.651 256.304 307.567C254.9 307.483 253.498 307.77 252.24 308.401L198.24 334.641C196.893 335.301 195.759 336.325 194.967 337.598C194.175 338.871 193.757 340.341 193.76 341.841C193.757 343.34 194.175 344.81 194.967 346.083C195.759 347.356 196.893 348.381 198.24 349.041L252.24 375.201C253.409 375.769 254.7 376.044 256 376.001C257.498 376.006 258.967 375.59 260.24 374.801C261.393 374.08 262.343 373.078 263.001 371.888C263.659 370.698 264.003 369.36 264 368.001V349.441C283.473 347.774 301.63 338.923 314.938 324.609C328.246 310.296 335.753 291.544 336 272.001C335.981 261.808 333.941 251.72 330 242.321C329.562 241.264 328.903 240.314 328.068 239.533C327.232 238.753 326.238 238.161 325.154 237.797C324.07 237.433 322.92 237.306 321.783 237.424C320.645 237.542 319.546 237.902 318.56 238.481C316.901 239.454 315.648 240.993 315.031 242.815C314.414 244.636 314.474 246.62 315.2 248.401C318.345 255.873 319.977 263.894 320 272.001C319.737 287.285 313.901 301.947 303.589 313.231C293.277 324.515 279.198 331.645 264 333.281V315.601C263.989 314.255 263.639 312.933 262.982 311.759C262.324 310.584 261.381 309.594 260.24 308.881ZM248 355.201L220.32 341.841L248 328.401V355.201Z" fill="url(#paint7_linear_721_28706)"/>
<defs>
<linearGradient id="paint0_linear_721_28706" x1="408" y1="8" x2="408" y2="200" gradientUnits="userSpaceOnUse">
<stop stop-color="#5CFF80"/>
<stop offset="1" stop-color="#BEF856"/>
</linearGradient>
<linearGradient id="paint1_linear_721_28706" x1="408" y1="40" x2="408" y2="168" gradientUnits="userSpaceOnUse">
<stop stop-color="#5CFF80"/>
<stop offset="1" stop-color="#BEF856"/>
</linearGradient>
<linearGradient id="paint2_linear_721_28706" x1="104" y1="8" x2="104" y2="200" gradientUnits="userSpaceOnUse">
<stop stop-color="#5CFF80"/>
<stop offset="1" stop-color="#BEF856"/>
</linearGradient>
<linearGradient id="paint3_linear_721_28706" x1="104" y1="50.6582" x2="104" y2="163.999" gradientUnits="userSpaceOnUse">
<stop stop-color="#5CFF80"/>
<stop offset="1" stop-color="#BEF856"/>
</linearGradient>
<linearGradient id="paint4_linear_721_28706" x1="80.0001" y1="228" x2="80.0001" y2="504" gradientUnits="userSpaceOnUse">
<stop stop-color="#5CFF80"/>
<stop offset="1" stop-color="#BEF856"/>
</linearGradient>
<linearGradient id="paint5_linear_721_28706" x1="432" y1="228" x2="432" y2="504" gradientUnits="userSpaceOnUse">
<stop stop-color="#5CFF80"/>
<stop offset="1" stop-color="#BEF856"/>
</linearGradient>
<linearGradient id="paint6_linear_721_28706" x1="247" y1="167.984" x2="247" y2="306.62" gradientUnits="userSpaceOnUse">
<stop stop-color="#5CFF80"/>
<stop offset="1" stop-color="#BEF856"/>
</linearGradient>
<linearGradient id="paint7_linear_721_28706" x1="264.88" y1="237.381" x2="264.88" y2="376.005" gradientUnits="userSpaceOnUse">
<stop stop-color="#5CFF80"/>
<stop offset="1" stop-color="#BEF856"/>
</linearGradient>
</defs>
</svg>
