<svg width="480" height="480" viewBox="0 0 480 480" fill="none" xmlns="http://www.w3.org/2000/svg">
<path fill-rule="evenodd" clip-rule="evenodd" d="M158.138 69.045C156.326 61.4322 153.31 54.1574 149.205 47.495L155.421 33.5L138.92 17L124.92 23.218C118.259 19.1147 110.986 16.0995 103.375 14.286L97.877 0H74.544L69.044 14.286C61.4337 16.0997 54.1611 19.1148 47.5 23.218L33.5 17L17 33.5L23.217 47.5C19.1128 54.161 16.0972 61.4341 14.284 69.045L0 74.543V97.877L14.283 103.377C16.0956 110.99 19.1116 118.265 23.217 124.927L17 138.92L33.5 155.42L47.5 149.202C54.1609 153.306 61.434 156.321 69.045 158.134L74.545 172.42H97.879L103.379 158.137C110.992 156.325 118.267 153.309 124.929 149.204L138.929 155.42L155.429 138.92L149.211 124.92C153.315 118.259 156.33 110.987 158.143 103.376L172.429 97.876V74.543L158.138 69.045ZM86.21 126.905C78.1617 126.904 70.2944 124.517 63.603 120.045C56.9115 115.573 51.6963 109.217 48.6168 101.781C45.5373 94.3452 44.7318 86.1632 46.3022 78.2696C47.8726 70.376 51.7483 63.1253 57.4393 57.4343C63.1303 51.7433 70.381 47.8676 78.2746 46.2972C86.1682 44.7268 94.3502 45.5323 101.786 48.6118C109.222 51.6912 115.578 56.9065 120.05 63.598C124.522 70.2894 126.909 78.1567 126.91 86.205C126.911 91.5501 125.859 96.8429 123.814 101.781C121.769 106.72 118.771 111.207 114.991 114.986C111.212 118.766 106.725 121.764 101.786 123.809C96.8479 125.854 91.5551 126.906 86.21 126.905ZM396.252 312.505C379.689 312.505 363.497 317.417 349.725 326.619C335.953 335.822 325.219 348.901 318.881 364.204C312.542 379.507 310.884 396.345 314.115 412.59C317.347 428.836 325.323 443.758 337.035 455.47C348.747 467.182 363.669 475.158 379.915 478.39C396.16 481.621 412.998 479.963 428.301 473.624C443.604 467.286 456.683 456.552 465.886 442.78C475.088 429.008 480 412.816 480 396.253C480 385.255 477.834 374.365 473.625 364.204C469.417 354.043 463.248 344.811 455.471 337.034C447.694 329.258 438.462 323.089 428.301 318.88C418.14 314.672 407.25 312.506 396.252 312.506V312.505ZM396.252 468.205C382.022 468.205 368.111 463.986 356.278 456.08C344.446 448.175 335.224 436.938 329.778 423.791C324.332 410.644 322.906 396.177 325.682 382.22C328.458 368.263 335.31 355.443 345.372 345.38C355.434 335.317 368.254 328.464 382.211 325.688C396.168 322.911 410.635 324.336 423.782 329.781C436.93 335.226 448.167 344.448 456.073 356.28C463.979 368.112 468.2 382.023 468.2 396.253C468.199 415.334 460.618 433.633 447.126 447.126C433.633 460.618 415.334 468.199 396.253 468.2L396.252 468.205ZM396.252 340.305C385.186 340.305 374.369 343.586 365.168 349.734C355.967 355.882 348.795 364.62 344.56 374.843C340.325 385.067 339.217 396.316 341.376 407.17C343.535 418.023 348.863 427.992 356.688 435.817C364.513 443.642 374.482 448.971 385.335 451.13C396.189 453.289 407.438 452.181 417.662 447.946C427.885 443.711 436.624 436.54 442.772 427.339C448.92 418.138 452.201 407.321 452.201 396.255C452.202 388.907 450.755 381.631 447.944 374.843C445.133 368.054 441.012 361.885 435.816 356.69C430.621 351.494 424.453 347.372 417.665 344.56C410.876 341.748 403.601 340.3 396.253 340.3L396.252 340.305ZM404.252 434.839V436.722C404.252 438.844 403.409 440.879 401.909 442.379C400.409 443.879 398.374 444.722 396.252 444.722C394.13 444.722 392.095 443.879 390.595 442.379C389.095 440.879 388.252 438.844 388.252 436.722V434.675C378.374 432.248 370.506 425.468 367.987 415.363C367.737 414.345 367.689 413.288 367.848 412.252C368.006 411.216 368.367 410.221 368.909 409.325C369.452 408.428 370.166 407.647 371.01 407.026C371.855 406.406 372.813 405.957 373.831 405.707C374.849 405.457 375.906 405.409 376.942 405.568C377.978 405.726 378.973 406.087 379.869 406.629C381.68 407.725 382.982 409.496 383.487 411.551C384.967 417.484 391.328 419.841 396.901 419.708C397.434 419.696 398.14 419.637 399.017 419.531C402.526 419.105 408.903 417.407 408.795 412.881C408.795 412.809 408.768 412.572 408.718 412.162C408.005 406.289 399.778 404.679 395.03 403.899C382.567 401.854 370.591 395.793 369.902 381.588C369.331 369.823 377.374 360.988 388.253 357.969V355.788C388.253 353.666 389.096 351.631 390.596 350.131C392.096 348.631 394.131 347.788 396.253 347.788C398.375 347.788 400.41 348.631 401.91 350.131C403.41 351.631 404.253 353.666 404.253 355.788V357.861C408.315 358.903 412.077 360.881 415.237 363.637C418.397 366.394 420.869 369.851 422.453 373.734C423.215 375.679 423.186 377.844 422.372 379.768C421.559 381.692 420.025 383.221 418.099 384.029C416.173 384.837 414.007 384.86 412.065 384.092C410.122 383.325 408.557 381.828 407.703 379.922C405.309 374.222 399.303 371.922 393.497 373.087C389.597 373.871 385.621 376.377 385.837 380.838C386.086 385.983 393.586 387.492 397.59 388.15C410.426 390.257 422.83 395.781 424.59 410.287C424.662 410.881 424.708 411.625 424.728 412.506C425.027 424.879 415.413 432.417 404.253 434.837L404.252 434.839ZM97.027 326.567C94.9053 326.567 92.8704 327.41 91.3701 328.91C89.8699 330.41 89.027 332.445 89.027 334.567C89.027 336.689 89.8699 338.724 91.3701 340.224C92.8704 341.724 94.9053 342.567 97.027 342.567H312.172C315.857 336.814 320.12 331.453 324.895 326.567H97.027ZM206.748 56.19C204.726 56.8115 202.539 56.6043 200.67 55.6138C198.8 54.6233 197.401 52.9308 196.779 50.9085C196.158 48.8862 196.365 46.6999 197.356 44.8304C198.346 42.961 200.039 41.5615 202.061 40.94C233.695 31.1805 267.31 29.7393 299.663 36.7552C332.016 43.7712 362.014 59.0076 386.763 80.9941C411.513 102.981 430.177 130.975 440.956 162.276C451.735 193.577 454.264 227.128 448.3 259.691L466.173 246.255C467.865 244.999 469.984 244.465 472.069 244.768C474.154 245.071 476.034 246.187 477.298 247.872C478.562 249.558 479.107 251.675 478.814 253.761C478.522 255.847 477.415 257.733 475.736 259.005L440.369 285.591C439.412 286.382 438.284 286.939 437.074 287.218C435.864 287.496 434.606 287.488 433.399 287.195C432.193 286.901 431.072 286.33 430.125 285.526C429.178 284.723 428.432 283.71 427.946 282.567L410.458 241.513C410.038 240.547 409.814 239.508 409.797 238.454C409.781 237.401 409.974 236.355 410.364 235.377C410.754 234.399 411.333 233.507 412.069 232.754C412.805 232.001 413.683 231.4 414.652 230.988C415.622 230.576 416.663 230.359 417.716 230.351C418.769 230.343 419.814 230.543 420.789 230.941C421.764 231.338 422.651 231.925 423.399 232.666C424.147 233.408 424.74 234.291 425.145 235.263L433.1 253.95C438.024 224.243 435.274 193.771 425.113 165.425C414.951 137.079 397.713 111.801 375.037 91.9889C352.36 72.1769 324.997 58.4885 295.544 52.2232C266.091 45.9578 235.525 47.3233 206.748 56.19ZM17.676 237.594C15.9837 238.837 13.8692 239.362 11.7922 239.054C9.71513 238.747 7.84332 237.632 6.58356 235.952C5.32379 234.273 4.77787 232.163 5.06445 230.083C5.35102 228.003 6.44693 226.121 8.114 224.844L43.481 198.258C44.4377 197.467 45.5658 196.911 46.7753 196.633C47.9849 196.355 49.2426 196.363 50.4485 196.657C51.6544 196.951 52.7751 197.522 53.7215 198.325C54.6678 199.127 55.4138 200.14 55.9 201.282L73.388 242.337C74.2167 244.285 74.2377 246.482 73.4464 248.445C72.655 250.408 71.1162 251.977 69.1685 252.806C67.2208 253.634 65.0236 253.655 63.0604 252.864C61.0971 252.073 59.5287 250.534 58.7 248.586L50.747 229.9C45.8232 259.607 48.5728 290.079 58.7349 318.425C68.8969 346.771 86.1343 372.049 108.811 391.861C131.487 411.673 158.851 425.361 188.304 431.626C217.757 437.892 248.323 436.526 277.1 427.659C279.122 427.037 281.309 427.244 283.178 428.235C285.048 429.225 286.447 430.918 287.069 432.94C287.691 434.962 287.484 437.149 286.493 439.018C285.503 440.888 283.81 442.287 281.788 442.909C250.154 452.669 216.539 454.11 184.186 447.094C151.833 440.078 121.835 424.842 97.0857 402.855C72.3364 380.868 53.6719 352.874 42.8931 321.573C32.1144 290.272 29.5853 256.721 35.55 224.158L17.676 237.594ZM105.356 236.186V308.649H143.127V236.186H105.356ZM213.264 198.221H175.492V308.65H213.264V198.221ZM283.4 158.577H245.628V308.649H283.4V158.577ZM315.762 122.913V308.649H348.522C350.164 307.752 351.835 306.901 353.534 306.097V122.913H315.762Z" fill="url(#paint0_linear_721_28730)"/>
<defs>
<linearGradient id="paint0_linear_721_28730" x1="240" y1="0" x2="240" y2="479.999" gradientUnits="userSpaceOnUse">
<stop stop-color="#5CFF80"/>
<stop offset="1" stop-color="#BEF856"/>
</linearGradient>
</defs>
</svg>
