<svg width="424" height="492" viewBox="0 0 424 492" fill="none" xmlns="http://www.w3.org/2000/svg">
<path d="M396.767 172.939C381.824 172.939 369.665 185.097 369.665 200.041V262.656C369.665 269.255 367.557 274.809 363.226 279.59C360.774 270.621 353.406 263.282 344.422 260.875C335.969 258.61 327.325 261.104 320.711 267.719L264.424 324.006C257.144 331.285 253.452 340.197 253.452 350.493V429.648H246.333C236.034 429.648 227.656 438.026 227.656 448.325V473.323C227.656 483.622 236.034 492 246.333 492H351.443C361.742 492 370.12 483.622 370.12 473.323V448.325C370.12 438.026 361.742 429.648 351.443 429.648H344.325V400.623L410.215 334.733C419.275 325.674 423.868 314.584 423.868 301.772V200.042C423.868 185.098 411.71 172.94 396.766 172.94L396.767 172.939ZM358.121 448.325V473.323C358.121 477.005 355.126 480 351.444 480H246.334C242.652 480 239.657 477.004 239.657 473.323V448.325C239.657 444.643 242.652 441.648 246.334 441.648H351.444C355.126 441.648 358.121 444.644 358.121 448.325ZM411.869 301.771C411.869 311.419 408.553 319.426 401.731 326.247L334.084 393.894C332.958 395.019 332.326 396.545 332.326 398.137V429.648H265.453V350.493C265.453 343.396 267.891 337.508 272.909 332.491L329.196 276.204C333.751 271.651 338.303 271.66 341.316 272.465C346.2 273.774 350.36 277.933 351.669 282.817C352.477 285.833 352.484 290.383 347.931 294.937L308.209 334.659C305.865 337.002 305.865 340.801 308.209 343.144C309.38 344.315 310.916 344.901 312.451 344.901C313.986 344.901 315.522 344.315 316.693 343.144L356.41 303.427C356.41 303.427 356.414 303.424 356.415 303.423L370.693 289.143C377.973 281.864 381.665 272.952 381.665 262.656V200.041C381.665 191.714 388.439 184.939 396.767 184.939C405.095 184.939 411.869 191.713 411.869 200.041V301.771ZM251.422 460.824C251.422 457.511 254.109 454.824 257.422 454.824H268.485C271.798 454.824 274.485 457.511 274.485 460.824C274.485 464.137 271.798 466.824 268.485 466.824H257.422C254.109 466.824 251.422 464.137 251.422 460.824ZM82.0209 133.828C82.0209 60.035 142.056 0 215.849 0C240.599 0 264.824 6.842 285.902 19.786C305.181 31.624 321.101 48.113 332.235 67.705L336.831 52.235C337.775 49.058 341.119 47.251 344.292 48.193C347.468 49.137 349.278 52.477 348.335 55.653L339.384 85.781C338.907 87.385 337.782 88.717 336.28 89.456C334.777 90.195 333.037 90.271 331.474 89.671L299.845 77.487C296.753 76.296 295.212 72.823 296.404 69.731C297.596 66.638 301.067 65.101 304.16 66.289L321.404 72.932C299.674 35.191 259.785 12 215.849 12C148.673 12 94.0209 66.652 94.0209 133.828C94.0209 137.141 91.3339 139.828 88.0209 139.828C84.7079 139.828 82.0209 137.141 82.0209 133.828ZM215.849 267.656C167.649 267.656 123.266 241.768 99.4649 199.941L94.8659 215.422C93.9229 218.599 90.5799 220.409 87.4049 219.464C84.2289 218.52 82.4189 215.18 83.3619 212.004L92.3139 181.876C92.7909 180.272 93.9149 178.94 95.4169 178.201C96.9199 177.463 98.6619 177.385 100.222 177.986L131.851 190.17C134.944 191.361 136.485 194.834 135.293 197.926C134.102 201.019 130.629 202.558 127.538 201.368L110.31 194.732C132.078 232.389 172.246 255.657 215.848 255.657C283.024 255.657 337.676 201.005 337.676 133.829C337.676 130.516 340.363 127.829 343.676 127.829C346.989 127.829 349.676 130.516 349.676 133.829C349.676 207.622 289.641 267.657 215.848 267.657L215.849 267.656ZM177.667 429.648H170.549V350.493C170.549 340.198 166.858 331.286 159.576 324.006L103.29 267.719C96.6749 261.104 88.0339 258.609 79.5779 260.875C70.5949 263.282 63.2259 270.621 60.7739 279.59C56.4429 274.809 54.3349 269.255 54.3349 262.656V200.041C54.3349 185.097 42.1769 172.939 27.2329 172.939C12.2889 172.939 0.130859 185.097 0.130859 200.041V301.771C0.130859 314.583 4.72486 325.672 13.7839 334.732L79.6739 400.622V429.647H72.5559C62.2569 429.647 53.8789 438.025 53.8789 448.324V473.322C53.8789 483.621 62.2569 491.999 72.5559 491.999H177.666C187.965 491.999 196.343 483.621 196.343 473.322V448.324C196.343 438.025 187.965 429.647 177.666 429.647L177.667 429.648ZM89.9169 393.895L22.2709 326.248C15.4489 319.426 12.1319 311.419 12.1319 301.772V200.042C12.1319 191.715 18.9059 184.94 27.2339 184.94C35.5619 184.94 42.3359 191.714 42.3359 200.042V262.657C42.3359 272.953 46.0269 281.865 53.3079 289.144L67.5859 303.424L107.308 343.146C108.479 344.317 110.015 344.903 111.55 344.903C113.085 344.903 114.621 344.317 115.792 343.146C118.136 340.803 118.136 337.004 115.792 334.661L76.0759 294.945C76.0759 294.945 76.0729 294.941 76.0719 294.94C71.5169 290.386 71.5249 285.836 72.3329 282.82C73.6419 277.937 77.8018 273.777 82.6859 272.468C85.7009 271.661 90.2529 271.654 94.8059 276.207L151.093 332.494C156.111 337.512 158.55 343.4 158.55 350.496V429.651H91.6759V398.14C91.6759 396.549 91.0439 395.023 89.9179 393.897L89.9169 393.895ZM184.344 473.323C184.344 477.005 181.349 480 177.667 480H72.5569C68.8749 480 65.8799 477.004 65.8799 473.323V448.325C65.8799 444.643 68.8749 441.648 72.5569 441.648H177.667C181.349 441.648 184.344 444.644 184.344 448.325V473.323ZM172.579 460.824C172.579 464.137 169.892 466.824 166.579 466.824H155.517C152.204 466.824 149.517 464.137 149.517 460.824C149.517 457.511 152.204 454.824 155.517 454.824H166.579C169.892 454.824 172.579 457.511 172.579 460.824ZM301.172 155.788C303.736 155.444 305.79 153.495 306.27 150.952C308.411 139.586 308.411 128.062 306.27 116.702C305.791 114.16 303.736 112.211 301.172 111.867L287.818 110.073C286.649 106.529 285.216 103.074 283.534 99.739L291.708 89.028C293.277 86.972 293.353 84.141 291.894 82.005C285.372 72.453 277.222 64.304 267.672 57.784C265.536 56.325 262.706 56.399 260.65 57.97L249.933 66.148C246.597 64.464 243.143 63.031 239.605 61.863L237.81 48.505C237.465 45.941 235.517 43.887 232.975 43.408C221.613 41.266 210.088 41.266 198.724 43.408C196.182 43.887 194.234 45.941 193.889 48.505L192.094 61.863C188.554 63.031 185.1 64.465 181.765 66.148L171.049 57.971C168.992 56.401 166.161 56.326 164.027 57.785C154.472 64.308 146.324 72.457 139.805 82.007C138.347 84.143 138.422 86.973 139.992 89.029L148.168 99.743C146.484 103.079 145.052 106.534 143.883 110.074L130.527 111.868C127.963 112.212 125.909 114.161 125.429 116.704C123.289 128.067 123.289 139.591 125.429 150.954C125.908 153.496 127.962 155.446 130.527 155.79L143.881 157.584C145.051 161.128 146.484 164.584 148.167 167.919L139.993 178.629C138.424 180.686 138.348 183.516 139.807 185.652C146.329 195.206 154.479 203.356 164.028 209.874C166.163 211.331 168.993 211.257 171.05 209.688L181.767 201.51C185.103 203.194 188.556 204.626 192.095 205.795L193.89 219.153C194.235 221.717 196.183 223.772 198.726 224.251C204.408 225.321 210.13 225.856 215.852 225.856C221.574 225.856 227.294 225.321 232.975 224.251C235.518 223.772 237.466 221.718 237.811 219.154L239.606 205.796C243.146 204.628 246.6 203.195 249.935 201.512L260.651 209.689C262.708 211.259 265.539 211.334 267.673 209.875C277.227 203.353 285.376 195.204 291.895 185.654C293.354 183.518 293.279 180.688 291.709 178.632L283.532 167.917C285.215 164.582 286.648 161.128 287.817 157.586L301.173 155.792L301.172 155.788ZM282.387 146.205C279.994 146.526 278.029 148.249 277.396 150.579C275.983 155.782 273.902 160.8 271.209 165.493C270.008 167.588 270.18 170.199 271.645 172.118L279.467 182.369C275.127 188.055 270.076 193.105 264.389 197.447L254.138 189.624C252.22 188.16 249.611 187.988 247.514 189.188C242.818 191.88 237.8 193.961 232.6 195.373C230.271 196.006 228.547 197.973 228.226 200.365L226.509 213.141C219.42 214.092 212.279 214.092 205.188 213.141L203.471 200.365C203.15 197.973 201.426 196.006 199.097 195.373C193.9 193.962 188.882 191.881 184.184 189.187C182.088 187.986 179.479 188.158 177.56 189.623L167.308 197.446C161.622 193.107 156.573 188.057 152.231 182.368L160.05 172.122C161.515 170.202 161.687 167.591 160.485 165.497C157.795 160.805 155.713 155.786 154.298 150.579C153.666 148.249 151.699 146.526 149.307 146.205L136.536 144.489C135.585 137.399 135.585 130.257 136.536 123.167L149.309 121.451C151.702 121.13 153.667 119.407 154.3 117.077C155.712 111.877 157.794 106.859 160.487 102.161C161.688 100.067 161.516 97.456 160.051 95.537L152.23 85.287C156.569 79.601 161.619 74.551 167.307 70.209L177.558 78.032C179.477 79.497 182.088 79.669 184.182 78.468C188.878 75.776 193.896 73.694 199.096 72.282C201.425 71.65 203.149 69.683 203.47 67.291L205.187 54.515C212.276 53.564 219.417 53.564 226.508 54.515L228.225 67.291C228.546 69.684 230.27 71.65 232.6 72.283C237.795 73.693 242.813 75.774 247.512 78.469C249.609 79.671 252.218 79.499 254.136 78.033L264.388 70.21C270.075 74.551 275.124 79.601 279.466 85.288L271.647 95.534C270.182 97.454 270.01 100.064 271.211 102.159C273.901 106.85 275.982 111.869 277.397 117.077C278.029 119.407 279.996 121.13 282.388 121.451L295.16 123.167C296.111 130.257 296.111 137.397 295.16 144.489L282.387 146.205ZM215.849 85.783C189.357 85.783 167.804 107.336 167.804 133.828C167.804 160.32 189.357 181.873 215.849 181.873C242.341 181.873 263.894 160.32 263.894 133.828C263.894 107.336 242.341 85.783 215.849 85.783ZM215.849 169.873C195.974 169.873 179.804 153.704 179.804 133.828C179.804 113.952 195.974 97.783 215.849 97.783C235.724 97.783 251.894 113.952 251.894 133.828C251.894 153.704 235.724 169.873 215.849 169.873ZM238.876 114.762C241.22 117.105 241.22 120.904 238.876 123.247L209.668 152.455C208.537 153.586 207.009 154.212 205.426 154.212C205.215 154.212 205.002 154.201 204.789 154.178C202.985 153.985 201.366 152.988 200.384 151.464L189.796 135.046C188 132.261 188.802 128.547 191.586 126.752C194.372 124.956 198.084 125.759 199.88 128.543L206.44 138.714L230.392 114.762C232.734 112.419 236.535 112.419 238.876 114.762Z" fill="url(#paint0_linear_721_28609)"/>
<defs>
<linearGradient id="paint0_linear_721_28609" x1="211.999" y1="0" x2="211.999" y2="492" gradientUnits="userSpaceOnUse">
<stop stop-color="#5CFF80"/>
<stop offset="1" stop-color="#BEF856"/>
</linearGradient>
</defs>
</svg>
