<svg width="512" height="512" viewBox="0 0 512 512" fill="none" xmlns="http://www.w3.org/2000/svg">
<g clip-path="url(#clip0_721_28600)">
<path d="M256 68.2676C218.87 68.2676 182.574 79.2779 151.701 99.9063C120.828 120.535 96.7661 149.855 82.557 184.158C68.3479 218.462 64.6302 256.209 71.8739 292.626C79.1177 329.043 96.9975 362.493 123.253 388.748C149.507 415.003 182.958 432.883 219.375 440.127C255.792 447.371 293.539 443.653 327.842 429.444C362.146 415.235 391.466 391.173 412.095 360.3C432.723 329.427 443.733 293.131 443.733 256.001C443.677 206.228 423.88 158.51 388.685 123.316C353.491 88.1212 305.773 68.324 256 68.2676ZM256 426.668C222.245 426.668 189.249 416.658 161.183 397.905C133.117 379.152 111.242 352.497 98.3246 321.312C85.4072 290.127 82.0275 255.812 88.6127 222.706C95.1979 189.599 111.452 159.19 135.32 135.321C159.189 111.453 189.599 95.1988 222.705 88.6136C255.811 82.0283 290.126 85.4081 321.311 98.3255C352.497 111.243 379.151 133.118 397.904 161.184C416.657 189.25 426.667 222.246 426.667 256.001C426.615 301.249 408.617 344.628 376.622 376.623C344.627 408.618 301.248 426.616 256 426.668Z" fill="url(#paint0_linear_721_28600)"/>
<path d="M496.64 297.02C500.546 295.454 503.95 292.851 506.485 289.491C509.019 286.131 510.587 282.143 511.019 277.956C512.347 263.332 512.347 248.617 511.019 233.993C510.577 229.81 509.003 225.827 506.464 222.474C503.926 219.12 500.52 216.523 496.614 214.963L471.97 205.116C466.504 181.85 457.281 159.63 444.663 139.332L455.091 114.91C456.822 111.035 457.426 106.751 456.832 102.549C456.239 98.3471 454.473 94.3974 451.738 91.1533C442.354 79.9982 432.028 69.6717 420.872 60.2882C417.636 57.5433 413.69 55.767 409.49 55.1632C405.289 54.5595 401.003 55.1527 397.124 56.8749L372.668 67.3538C352.37 54.7362 330.151 45.513 306.884 40.0471L297.02 15.3602C295.456 11.4567 292.853 8.05558 289.494 5.5255C286.136 2.99542 282.148 1.43286 277.965 1.00715C263.355 -0.3253 248.654 -0.3253 234.044 1.00715C229.85 1.43291 225.853 3.00105 222.489 5.54084C219.125 8.08063 216.522 11.4947 214.963 15.4114L205.116 40.0557C181.849 45.5215 159.63 54.7448 139.332 67.3623L114.91 56.9261C111.032 55.1986 106.747 54.5978 102.544 55.1924C98.3411 55.787 94.3904 57.553 91.1444 60.2882C79.9913 69.6739 69.665 80.0002 60.2794 91.1533C57.5445 94.3944 55.7785 98.3407 55.1838 102.54C54.5892 106.738 55.1899 111.02 56.9172 114.893L67.3535 139.332C54.7359 159.63 45.5127 181.85 40.0468 205.116L15.3599 214.98C11.4563 216.544 8.05525 219.147 5.52517 222.506C2.9951 225.865 1.43254 229.852 1.00682 234.035C-0.329748 248.645 -0.329748 263.347 1.00682 277.956C1.43258 282.15 3.00072 286.147 5.54051 289.511C8.0803 292.876 11.4944 295.479 15.4111 297.037L40.0554 306.884C45.5212 330.151 54.7444 352.37 67.362 372.668L56.9258 397.09C55.1918 400.964 54.5867 405.249 55.18 409.452C55.7732 413.655 57.5408 417.604 60.2794 420.847C69.6657 432.005 79.9951 442.334 91.153 451.721C94.3941 454.456 98.3404 456.222 102.539 456.816C106.738 457.411 111.02 456.81 114.893 455.083L139.332 444.647C159.63 457.264 181.849 466.487 205.116 471.953L214.98 496.64C216.546 500.547 219.149 503.951 222.509 506.485C225.869 509.019 229.857 510.587 234.044 511.019C241.544 511.684 249.19 512.009 256.631 512.009C264.072 512.009 271.317 511.684 277.965 511.019C282.156 510.583 286.148 509.011 289.509 506.47C292.871 503.93 295.474 500.519 297.037 496.606L306.884 471.962C330.151 466.496 352.37 457.273 372.668 444.655L397.09 455.083C400.964 456.817 405.249 457.422 409.452 456.829C413.654 456.235 417.604 454.468 420.847 451.729C432.004 442.348 442.331 432.021 451.712 420.864C454.452 417.624 456.221 413.677 456.818 409.476C457.414 405.274 456.812 400.99 455.083 397.116L444.646 372.676C457.264 352.379 466.487 330.159 471.953 306.893L496.64 297.02ZM456.269 298.846C451.082 323.192 441.468 346.377 427.904 367.249C427.142 368.423 426.68 369.766 426.56 371.161C426.439 372.555 426.663 373.958 427.213 375.245L439.407 403.823C439.875 404.795 440.054 405.882 439.922 406.953C439.791 408.024 439.354 409.035 438.664 409.865C429.88 420.31 420.21 429.978 409.762 438.759C408.93 439.422 407.925 439.833 406.866 439.944C405.808 440.054 404.74 439.859 403.789 439.382L375.228 427.196C373.94 426.647 372.538 426.422 371.143 426.543C369.749 426.663 368.406 427.125 367.232 427.887C346.36 441.451 323.174 451.065 298.829 456.252C297.458 456.544 296.18 457.17 295.109 458.073C294.037 458.977 293.205 460.13 292.685 461.432L281.182 490.223C280.794 491.234 280.139 492.12 279.287 492.787C278.435 493.455 277.417 493.878 276.343 494.012C262.769 495.242 249.111 495.242 235.537 494.012C234.486 493.865 233.493 493.44 232.661 492.781C231.828 492.123 231.186 491.255 230.801 490.266L219.307 461.432C218.787 460.13 217.954 458.977 216.882 458.073C215.811 457.17 214.533 456.544 213.163 456.252C188.817 451.065 165.631 441.451 144.759 427.887C143.587 427.121 142.244 426.657 140.848 426.536C139.453 426.415 138.05 426.642 136.764 427.196L108.185 439.39C107.213 439.855 106.128 440.033 105.058 439.903C103.988 439.773 102.977 439.341 102.144 438.656C91.7003 429.867 82.0333 420.194 73.25 409.745C72.5913 408.911 72.1831 407.906 72.0728 406.849C71.9625 405.791 72.1547 404.724 72.6271 403.772L84.8127 375.211C85.362 373.924 85.5863 372.521 85.4657 371.127C85.3452 369.732 84.8836 368.389 84.1215 367.215C70.5578 346.343 60.9433 323.158 55.7567 298.812C55.4643 297.441 54.8387 296.164 53.9353 295.092C53.0319 294.02 51.8785 293.188 50.577 292.668L21.777 281.199C20.7679 280.81 19.8833 280.155 19.2176 279.303C18.5518 278.451 18.1298 277.434 17.9967 276.361C16.7542 262.784 16.7542 249.122 17.9967 235.546C18.1447 234.497 18.5688 233.507 19.2256 232.676C19.8824 231.845 20.7482 231.204 21.7343 230.818L50.5684 219.307C51.87 218.787 53.0234 217.954 53.9268 216.883C54.8302 215.811 55.4557 214.534 55.7482 213.163C60.9348 188.817 70.5492 165.632 84.113 144.76C84.875 143.586 85.3367 142.242 85.4572 140.848C85.5777 139.454 85.3535 138.051 84.8042 136.764L72.61 108.177C72.145 107.205 71.967 106.12 72.097 105.05C72.227 103.979 72.6595 102.969 73.3439 102.136C82.1326 91.6969 91.8024 82.0329 102.246 73.2503C103.081 72.5931 104.085 72.1851 105.142 72.0734C106.199 71.9616 107.266 72.1507 108.22 72.6189L136.781 84.8045C138.067 85.3583 139.47 85.585 140.865 85.4644C142.261 85.3438 143.604 84.8796 144.776 84.1133C165.648 70.5496 188.834 60.9351 213.18 55.7485C214.55 55.4561 215.828 54.8305 216.9 53.9271C217.971 53.0237 218.804 51.8703 219.324 50.5687L230.827 21.7773C231.215 20.7682 231.871 19.8836 232.723 19.2179C233.575 18.5521 234.592 18.1302 235.665 17.997C249.242 16.7587 262.903 16.7587 276.48 17.997C277.529 18.145 278.519 18.5692 279.35 19.2259C280.18 19.8827 280.821 20.7485 281.207 21.7346L292.693 50.5687C293.213 51.8703 294.046 53.0237 295.117 53.9271C296.189 54.8305 297.467 55.4561 298.837 55.7485C323.183 60.9351 346.369 70.5496 367.24 84.1133C368.414 84.8754 369.758 85.337 371.152 85.4575C372.546 85.5781 373.949 85.3538 375.236 84.8045L403.814 72.6103C404.787 72.1473 405.872 71.9705 406.942 72.1004C408.011 72.2303 409.022 72.6617 409.856 73.3442C420.297 82.1308 429.961 91.8007 438.741 102.247C439.399 103.081 439.808 104.085 439.92 105.142C440.032 106.199 439.842 107.266 439.373 108.22L427.187 136.781C426.638 138.068 426.414 139.471 426.534 140.865C426.655 142.26 427.116 143.603 427.878 144.777C441.442 165.649 451.056 188.834 456.243 213.18C456.536 214.551 457.161 215.828 458.064 216.9C458.968 217.971 460.121 218.804 461.423 219.324L490.214 230.827C491.212 231.209 492.089 231.851 492.754 232.687C493.418 233.523 493.847 234.522 493.995 235.58V235.665C495.224 249.24 495.224 262.897 493.995 276.472C493.847 277.523 493.422 278.516 492.764 279.348C492.106 280.18 491.237 280.822 490.248 281.208L461.431 292.694C460.129 293.214 458.975 294.048 458.071 295.121C457.168 296.194 456.543 297.474 456.252 298.846H456.269Z" fill="url(#paint1_linear_721_28600)"/>
<path d="M230.4 221.868V204.801C230.4 202.538 229.501 200.367 227.901 198.767C226.3 197.167 224.13 196.268 221.867 196.268C219.603 196.268 217.433 197.167 215.833 198.767C214.232 200.367 213.333 202.538 213.333 204.801V221.868C208.807 221.868 204.466 223.666 201.265 226.866C198.065 230.067 196.267 234.408 196.267 238.934V290.134C196.267 294.661 198.065 299.002 201.265 302.202C204.466 305.403 208.807 307.201 213.333 307.201V324.268C213.333 326.531 214.232 328.701 215.833 330.302C217.433 331.902 219.603 332.801 221.867 332.801C224.13 332.801 226.3 331.902 227.901 330.302C229.501 328.701 230.4 326.531 230.4 324.268V307.201C234.926 307.201 239.267 305.403 242.468 302.202C245.669 299.002 247.467 294.661 247.467 290.134V238.934C247.467 234.408 245.669 230.067 242.468 226.866C239.267 223.666 234.926 221.868 230.4 221.868ZM213.333 290.134V238.934H230.4V290.134H213.333Z" fill="url(#paint2_linear_721_28600)"/>
<path d="M162.133 196.266V179.199C162.133 176.936 161.234 174.766 159.634 173.165C158.034 171.565 155.863 170.666 153.6 170.666C151.337 170.666 149.166 171.565 147.566 173.165C145.966 174.766 145.067 176.936 145.067 179.199V196.266C140.54 196.266 136.199 198.064 132.999 201.265C129.798 204.465 128 208.806 128 213.333V264.533C128 269.059 129.798 273.4 132.999 276.601C136.199 279.801 140.54 281.599 145.067 281.599V298.666C145.067 300.929 145.966 303.1 147.566 304.7C149.166 306.3 151.337 307.199 153.6 307.199C155.863 307.199 158.034 306.3 159.634 304.7C161.234 303.1 162.133 300.929 162.133 298.666V281.599C166.66 281.599 171.001 279.801 174.201 276.601C177.402 273.4 179.2 269.059 179.2 264.533V213.333C179.2 208.806 177.402 204.465 174.201 201.265C171.001 198.064 166.66 196.266 162.133 196.266ZM145.067 264.533V213.333H162.133V264.533H145.067Z" fill="url(#paint3_linear_721_28600)"/>
<path d="M298.667 187.733V170.666C298.667 168.403 297.767 166.232 296.167 164.632C294.567 163.032 292.396 162.133 290.133 162.133C287.87 162.133 285.7 163.032 284.099 164.632C282.499 166.232 281.6 168.403 281.6 170.666V187.733C277.074 187.733 272.733 189.531 269.532 192.732C266.331 195.932 264.533 200.273 264.533 204.799V255.999C264.533 260.526 266.331 264.867 269.532 268.067C272.733 271.268 277.074 273.066 281.6 273.066V290.133C281.6 292.396 282.499 294.566 284.099 296.167C285.7 297.767 287.87 298.666 290.133 298.666C292.396 298.666 294.567 297.767 296.167 296.167C297.767 294.566 298.667 292.396 298.667 290.133V273.066C303.193 273.066 307.534 271.268 310.735 268.067C313.935 264.867 315.733 260.526 315.733 255.999V204.799C315.733 200.273 313.935 195.932 310.735 192.732C307.534 189.531 303.193 187.733 298.667 187.733ZM281.6 255.999V204.799H298.667V255.999H281.6Z" fill="url(#paint4_linear_721_28600)"/>
<path d="M366.933 256V238.934C366.933 236.671 366.034 234.5 364.434 232.9C362.833 231.299 360.663 230.4 358.4 230.4C356.137 230.4 353.966 231.299 352.366 232.9C350.766 234.5 349.866 236.671 349.866 238.934V256C345.34 256 340.999 257.798 337.799 260.999C334.598 264.2 332.8 268.541 332.8 273.067V324.267C332.8 328.793 334.598 333.134 337.799 336.335C340.999 339.536 345.34 341.334 349.866 341.334V358.4C349.866 360.664 350.766 362.834 352.366 364.434C353.966 366.035 356.137 366.934 358.4 366.934C360.663 366.934 362.833 366.035 364.434 364.434C366.034 362.834 366.933 360.664 366.933 358.4V341.334C371.46 341.334 375.8 339.536 379.001 336.335C382.202 333.134 384 328.793 384 324.267V273.067C384 268.541 382.202 264.2 379.001 260.999C375.8 257.798 371.46 256 366.933 256ZM349.866 324.267V273.067H366.933V324.267H349.866Z" fill="url(#paint5_linear_721_28600)"/>
<path d="M275.004 125.304L225.792 162.202C224.655 163.045 223.277 163.5 221.862 163.5C220.447 163.5 219.069 163.045 217.933 162.202L184.32 136.994C182.509 135.636 180.234 135.053 177.993 135.373C175.753 135.693 173.731 136.89 172.373 138.701C171.015 140.511 170.432 142.787 170.752 145.028C171.072 147.268 172.269 149.29 174.08 150.648L207.693 175.855C211.786 178.909 216.756 180.558 221.862 180.558C226.969 180.558 231.939 178.909 236.032 175.855L285.244 138.957C286.467 138.046 287.969 137.59 289.492 137.666C291.015 137.742 292.463 138.347 293.589 139.375L386.765 224.777C388.434 226.307 390.642 227.111 392.904 227.012C395.166 226.914 397.297 225.921 398.827 224.252C400.356 222.583 401.161 220.374 401.062 218.112C400.964 215.85 399.971 213.72 398.302 212.19L305.126 126.78C301.065 123.061 295.832 120.878 290.331 120.608C284.831 120.339 279.409 122 275.004 125.304Z" fill="url(#paint6_linear_721_28600)"/>
</g>
<defs>
<linearGradient id="paint0_linear_721_28600" x1="256" y1="68.2676" x2="256" y2="443.734" gradientUnits="userSpaceOnUse">
<stop stop-color="#5CFF80"/>
<stop offset="1" stop-color="#BEF856"/>
</linearGradient>
<linearGradient id="paint1_linear_721_28600" x1="256.01" y1="0.0078125" x2="256.01" y2="512.009" gradientUnits="userSpaceOnUse">
<stop stop-color="#5CFF80"/>
<stop offset="1" stop-color="#BEF856"/>
</linearGradient>
<linearGradient id="paint2_linear_721_28600" x1="221.867" y1="196.268" x2="221.867" y2="332.801" gradientUnits="userSpaceOnUse">
<stop stop-color="#5CFF80"/>
<stop offset="1" stop-color="#BEF856"/>
</linearGradient>
<linearGradient id="paint3_linear_721_28600" x1="153.6" y1="170.666" x2="153.6" y2="307.199" gradientUnits="userSpaceOnUse">
<stop stop-color="#5CFF80"/>
<stop offset="1" stop-color="#BEF856"/>
</linearGradient>
<linearGradient id="paint4_linear_721_28600" x1="290.133" y1="162.133" x2="290.133" y2="298.666" gradientUnits="userSpaceOnUse">
<stop stop-color="#5CFF80"/>
<stop offset="1" stop-color="#BEF856"/>
</linearGradient>
<linearGradient id="paint5_linear_721_28600" x1="358.4" y1="230.4" x2="358.4" y2="366.934" gradientUnits="userSpaceOnUse">
<stop stop-color="#5CFF80"/>
<stop offset="1" stop-color="#BEF856"/>
</linearGradient>
<linearGradient id="paint6_linear_721_28600" x1="285.868" y1="120.58" x2="285.868" y2="227.02" gradientUnits="userSpaceOnUse">
<stop stop-color="#5CFF80"/>
<stop offset="1" stop-color="#BEF856"/>
</linearGradient>
<clipPath id="clip0_721_28600">
<rect width="512" height="512" fill="white"/>
</clipPath>
</defs>
</svg>
